mtllib button_enter.mtl

#
# object r_button_enter
#

v  -0.0017955261 0.0066657220 0.0733798072
v  -0.0017833119 0.0076723523 0.0745428130
v  0.0025447551 0.0071040327 0.0739618689
v  0.0069734119 0.0075512775 0.0745557919
v  0.0069611371 0.0065440964 0.0733921453
v  0.0064596683 0.0084935576 0.0756370723
v  0.0010409036 0.0044198497 0.0708253682
v  0.0025526602 0.0042317812 0.0706293881
v  -0.0003000973 0.0049347212 0.0714012459
v  0.0040688911 0.0043823342 0.0708246529
v  0.0054229437 0.0048752120 0.0714130700
v  -0.0012823001 0.0057112696 0.0722844750
v  0.0064243865 0.0056019556 0.0722962543
v  0.0011068457 0.0098358691 0.0770827532
v  0.0026036068 0.0099999048 0.0772933066
v  -0.0012471261 0.0086013535 0.0756235346
v  -0.0002461879 0.0093552712 0.0765085220
v  0.0041349488 0.0097995456 0.0770834088
v  0.0054767835 0.0092864763 0.0765096173
v  -0.0019272128 0.0063312952 0.0757345259
v  -0.0019088273 0.0075946068 0.0746408850
v  -0.0019214469 0.0065590995 0.0734445229
v  -0.0019398333 0.0052957879 0.0745381489
v  0.0070655961 0.0051709996 0.0745511800
v  0.0070839808 0.0064343037 0.0734575391
v  0.0070966007 0.0074698091 0.0746539161
v  0.0070782159 0.0062065050 0.0757475495
v  0.0065684915 0.0084386254 0.0757656321
v  0.0065501062 0.0071753198 0.0768592730
v  0.0009779327 0.0029853631 0.0719102770
v  0.0009963182 0.0042486726 0.0708166361
v  0.0025515179 0.0040554791 0.0706153587
v  0.0025331322 0.0027921773 0.0717089996
v  -0.0004014902 0.0035151197 0.0725028142
v  -0.0003831046 0.0047784215 0.0714091808
v  0.0041109635 0.0042107166 0.0708166361
v  0.0040925783 0.0029474068 0.0719102770
v  0.0055030254 0.0047180941 0.0714223534
v  0.0054846406 0.0034547884 0.0725159869
v  -0.0014118782 0.0043139518 0.0734113827
v  -0.0013934937 0.0055772555 0.0723177418
v  0.0065138745 0.0042023128 0.0734244138
v  0.0065322593 0.0054656202 0.0723307654
v  0.0025855366 0.0087254066 0.0785636753
v  0.0026039218 0.0099887131 0.0774700344
v  0.0010642176 0.0098202135 0.0772537217
v  0.0010458324 0.0085569080 0.0783473477
v  -0.0013756462 0.0072869570 0.0768462420
v  -0.0013572623 0.0085502630 0.0757526159
v  -0.0003460713 0.0080625461 0.0777566880
v  -0.0003276856 0.0093258554 0.0766630545
v  0.0055399202 0.0079908259 0.0777566880
v  0.0055583059 0.0092541277 0.0766630545
v  0.0041788630 0.0097822575 0.0772537217
v  0.0041604778 0.0085189482 0.0783473477
# 55 vertices

vn 0.0113599226 0.7562481761 -0.6541862488
vn 0.0113525502 0.7557538748 -0.6547573209
vn 0.0109861065 0.7560086250 -0.6544694901
vn 0.0113576166 0.7562534213 -0.6541802287
vn 0.0113543663 0.7557560205 -0.6547548771
vn 0.0141988564 0.7530487180 -0.6578115821
vn 0.0099608283 0.7573630214 -0.6529179811
vn 0.0092279473 0.7574534416 -0.6528239846
vn 0.0106156860 0.7571089268 -0.6532024145
vn 0.0084908241 0.7573695779 -0.6529313326
vn 0.0128230350 0.7598479986 -0.6499742866
vn 0.0111028198 0.7567200065 -0.6536448002
vn 0.0143028609 0.7588898540 -0.6510619521
vn 0.0099406093 0.7546775341 -0.6560206413
vn 0.0091972565 0.7546086311 -0.6561107635
vn 0.0110848155 0.7552903891 -0.6552964449
vn 0.0105876634 0.7549134493 -0.6557390094
vn 0.0084587969 0.7547034025 -0.6560115814
vn 0.0127051938 0.7521213889 -0.6589021683
vn -0.9830809236 0.1278564185 0.1311665475
vn -0.9830680490 0.1279015541 0.1312188804
vn -0.9862204790 -0.0998418331 -0.1319120675
vn -0.9862316251 -0.0997984111 -0.1318621039
vn 0.9834619761 -0.1265112013 -0.1296048164
vn 0.9834741354 -0.1264682114 -0.1295549423
vn 0.9858723879 0.1011979058 0.1334713250
vn 0.9858607650 0.1012427285 0.1335229129
vn 0.8677701950 0.3179910481 0.3819119334
vn 0.8683770299 0.3172912300 0.3811137676
vn -0.3430162370 -0.6119423509 -0.7126474977
vn -0.3426698148 -0.6120280027 -0.7127406001
vn -0.0077831419 -0.6544269323 -0.7560850978
vn -0.0081670042 -0.6544217467 -0.7560855746
vn -0.6433797479 -0.4956841171 -0.5834035277
vn -0.6431444287 -0.4958155155 -0.5835512877
vn 0.3324659467 -0.6200401187 -0.7106451988
vn 0.3321093023 -0.6201194525 -0.7107427716
vn 0.6314182281 -0.5127673745 -0.5817048550
vn 0.6322554350 -0.5123276711 -0.5811828375
vn -0.8689470887 -0.3166308999 -0.3803628981
vn -0.8688465953 -0.3167470694 -0.3804954290
vn 0.8593777418 -0.3417706490 -0.3803456128
vn 0.8587214947 -0.3424862027 -0.3811832070
vn 0.0054987068 0.6544544697 0.7560815215
vn 0.0059102518 0.6544494033 0.7560827136
vn -0.3339408636 0.6197099686 0.7102414966
vn -0.3342719674 0.6196359992 0.7101504207
vn -0.8601000309 0.3409787714 0.3794224560
vn -0.8599978089 0.3410907388 0.3795534670
vn -0.6309570670 0.5130077004 0.5819932818
vn -0.6307166219 0.5131337643 0.5821429491
vn 0.6435554028 0.4955867529 0.5832926035
vn 0.6426913142 0.4960690439 0.5838351250
vn 0.3471338153 0.6109161377 0.7115331292
vn 0.3468000591 0.6109998822 0.7116242051
vn 0.0025604947 0.7553110719 -0.6553614140
vn -0.9860709310 -0.0929959863 -0.1378978938
vn -0.9829316139 0.1347583532 0.1252424717
vn 0.0025750927 0.7568821907 -0.6535462141
vn 0.0201513842 0.7571437955 -0.6529373527
vn 0.9859336019 0.1080679074 0.1275001317
vn 0.9835349917 -0.1196184084 -0.1354642212
vn 0.0201357994 0.7545849681 -0.6558933258
vn 0.0219375286 0.7558259368 -0.6544049978
vn 0.8678848147 0.3247793019 0.3758913875
vn -0.3425658047 -0.6051649451 -0.7186264992
vn 0.0068987370 0.7518993616 -0.6592418551
vn 0.0091511738 0.7515770793 -0.6595818400
vn -0.0076947589 -0.6475676894 -0.7619692087
vn -0.6430138350 -0.4888967276 -0.5895025134
vn 0.0048740911 0.7526640296 -0.6583867669
vn 0.0114542674 0.7517781258 -0.6593166590
vn 0.3325438201 -0.6131920815 -0.7165263891
vn 0.0184674002 0.7552294731 -0.6552002430
vn 0.6315261722 -0.5058572292 -0.5876079798
vn -0.8687161803 -0.3098648190 -0.3864143193
vn 0.0033528251 0.7538658381 -0.6570197940
vn 0.8588011265 -0.3355838656 -0.3870970905
vn 0.0219634231 0.7558314204 -0.6543979645
vn 0.0059944317 0.6612750888 0.7501195073
vn 0.0092432834 0.7604866624 -0.6492879391
vn 0.0069446499 0.7602304816 -0.6496163607
vn -0.3338514268 0.6265763640 0.7042339444
vn -0.8598573208 0.3479345739 0.3736133277
vn 0.0034191883 0.7583455443 -0.6518439651
vn -0.6305877566 0.5199391842 0.5762137771
vn 0.0049549877 0.7594801188 -0.6505116224
vn 0.0115553224 0.7601599693 -0.6496331692
vn 0.3472309411 0.6177489758 0.7055613995
vn 0.6427935958 0.5028559566 0.5778860450
vn 0.0184459016 0.7565217018 -0.6537083387
vn -0.0110025881 -0.7560076118 0.6544703245
vn -0.0110025881 -0.7560076118 0.6544703841
vn -0.0110025899 -0.7560076714 0.6544703841
vn -0.0110025890 -0.7560076118 0.6544703841
vn -0.0110025890 -0.7560076714 0.6544703841
vn -0.0110025881 -0.7560076714 0.6544703245
vn -0.0110025872 -0.7560075521 0.6544703245
vn -0.0110025881 -0.7560075521 0.6544703245
# 99 vertex normals

vt 0.5429457426 0.0877323598 0.5011305213
vt 0.5429453850 0.0777883381 0.6484301686
vt 0.5715359449 0.0827885717 0.5712860823
vt 0.6007081270 0.0777441710 0.6428701282
vt 0.6007081270 0.0876936764 0.4954895675
vt 0.5972441435 0.0684990138 0.7798179388
vt 0.5618333817 0.1095735282 0.1775987446
vt 0.5718188286 0.1112491339 0.1527782977
vt 0.5529476404 0.1046495885 0.2505376041
vt 0.5818067789 0.1095796674 0.1775087714
vt 0.5906975269 0.1045484990 0.2520356178
vt 0.5464073420 0.0970977992 0.3624014854
vt 0.5972437859 0.0970638245 0.3566901088
vt 0.5618329048 0.0560710877 0.9701250196
vt 0.5716912746 0.0542707890 0.9967930317
vt 0.5464071035 0.0685478896 0.7853083014
vt 0.5529478788 0.0609809607 0.8973962665
vt 0.5818070173 0.0560654849 0.9702091217
vt 0.5906980038 0.0609716028 0.8975358605
vt 0.5388447046 0.0769898742 0.5066434741
vt 0.5419601202 0.0775425285 0.6146431565
vt 0.5419601202 0.0877718776 0.4631175101
vt 0.5385991335 0.0878740996 0.3551177382
vt 0.6064348221 0.0884045810 0.3493583202
vt 0.6020183563 0.0879748315 0.4573579431
vt 0.6019364595 0.0774181336 0.6088835597
vt 0.6061892509 0.0762104243 0.5008838177
vt 0.5982118845 0.0677488297 0.7496876121
vt 0.6018915176 0.0651494116 0.6416878700
vt 0.5600750446 0.1141909212 0.0222857296
vt 0.5612255335 0.1108140200 0.1302853525
vt 0.5717436075 0.1126986593 0.1047926247
vt 0.5719029903 0.1162393540 -0.0032070279
vt 0.5493792295 0.1081421226 0.0973334908
vt 0.5520033836 0.1055838913 0.2053332031
vt 0.5824254751 0.1105683893 0.1302853525
vt 0.5837309361 0.1142727584 0.0222857296
vt 0.5918112993 0.1055530757 0.2070012093
vt 0.5944267511 0.1083569974 0.0990015566
vt 0.5421600342 0.0993912071 0.2124074101
vt 0.5454392433 0.0978153795 0.3204070926
vt 0.6014002562 0.1000854224 0.2066478431
vt 0.5982937813 0.0976909250 0.3146475554
vt 0.5715260506 0.0483788699 0.8649680614
vt 0.5716942549 0.0531887263 0.9729675055
vt 0.5615530014 0.0550383776 0.9455690384
vt 0.5599931479 0.0508016199 0.8375695348
vt 0.5428968668 0.0660925359 0.6474478245
vt 0.5454392433 0.0678732842 0.7554475069
vt 0.5498704910 0.0568343848 0.7627593279
vt 0.5522490740 0.0600886792 0.8707591295
vt 0.5940992832 0.0568343848 0.7627595663
vt 0.5912382603 0.0600886792 0.8707593679
vt 0.5822618008 0.0550383776 0.9455690384
vt 0.5841403008 0.0508835167 0.8375695348
vt 0.6295219660 0.0500026047 0.0000000000
vt 0.6328921914 0.0461580083 0.0000000000
vt 0.6346759200 0.0413467139 0.0000000000
vt 0.6346759200 0.0362382084 0.0000000000
vt 0.6328921914 0.0314911865 0.0000000000
vt 0.6295219660 0.0276248436 0.0000000000
vt 0.6249433160 0.0251027122 0.0000000000
vt 0.6197317839 0.0241790116 0.0000000000
vt 0.6146517992 0.0251027122 0.0000000000
vt 0.6100732088 0.0276248604 0.0000000000
vt 0.6067029238 0.0315124393 0.0000000000
vt 0.6049191952 0.0362594798 0.0000000000
vt 0.6049191952 0.0413679853 0.0000000000
vt 0.6067029238 0.0461792499 0.0000000000
vt 0.6100732088 0.0500588417 0.0000000000
vt 0.6146517992 0.0525890142 0.0000000000
vt 0.6197975874 0.0534484386 0.0000000000
vt 0.6249433160 0.0525890142 0.0000000000
# 73 texture coords

o r_button_enter
g r_button_enter
usemtl oculusriftscontright
s 1
f 1/1/1 2/2/2 3/3/3 
f 3/3/3 4/4/4 5/5/5 
f 4/4/4 3/3/3 6/6/6 
f 7/7/7 3/3/3 8/8/8 
f 3/3/3 7/7/7 9/9/9 
f 10/10/10 8/8/8 3/3/3 
f 11/11/11 10/10/10 3/3/3 
f 3/3/3 9/9/9 12/12/12 
f 3/3/3 5/5/5 13/13/13 
f 3/3/3 13/13/13 11/11/11 
f 3/3/3 14/14/14 15/15/15 
f 2/2/2 16/16/16 3/3/3 
f 3/3/3 16/16/16 17/17/17 
f 3/3/3 18/18/18 19/19/19 
f 18/18/18 3/3/3 15/15/15 
f 17/17/17 14/14/14 3/3/3 
f 3/3/3 19/19/19 6/6/6 
f 1/1/1 3/3/3 12/12/12 
s 2
f 20/20/20 21/21/21 22/22/22 
f 22/22/22 23/23/23 20/20/20 
f 24/24/24 25/25/25 26/26/26 
f 26/26/26 27/27/27 24/24/24 
f 27/27/27 26/26/26 28/28/28 
f 28/28/28 29/29/29 27/27/27 
f 30/30/30 31/31/31 32/32/32 
f 32/32/32 33/33/33 30/30/30 
f 34/34/34 35/35/35 31/31/31 
f 31/31/31 30/30/30 34/34/34 
f 33/33/33 32/32/32 36/36/36 
f 36/36/36 37/37/37 33/33/33 
f 37/37/37 36/36/36 38/38/38 
f 38/38/38 39/39/39 37/37/37 
f 40/40/40 41/41/41 35/35/35 
f 35/35/35 34/34/34 40/40/40 
f 42/42/42 43/43/43 25/25/25 
f 25/25/25 24/24/24 42/42/42 
f 39/39/39 38/38/38 43/43/43 
f 43/43/43 42/42/42 39/39/39 
f 44/44/44 45/45/45 46/46/46 
f 46/46/46 47/47/47 44/44/44 
f 48/48/48 49/49/49 21/21/21 
f 21/21/21 20/20/20 48/48/48 
f 50/50/50 51/51/51 49/49/49 
f 49/49/49 48/48/48 50/50/50 
f 52/52/52 53/53/53 54/54/54 
f 54/54/54 55/55/55 52/52/52 
f 55/55/55 54/54/54 45/45/45 
f 45/45/45 44/44/44 55/55/55 
f 47/47/47 46/46/46 51/51/51 
f 51/51/51 50/50/50 47/47/47 
f 29/29/29 28/28/28 53/53/53 
f 53/53/53 52/52/52 29/29/29 
f 23/23/23 22/22/22 41/41/41 
f 41/41/41 40/40/40 23/23/23 
s 2147483648
f 1/1/56 22/22/57 21/21/58 
f 21/21/58 2/2/59 1/1/56 
f 4/4/60 26/26/61 25/25/62 
f 25/25/62 5/5/63 4/4/60 
f 6/6/64 28/28/65 26/26/61 
f 26/26/61 4/4/60 6/6/64 
f 31/31/66 7/7/67 8/8/68 
f 8/8/68 32/32/69 31/31/66 
f 35/35/70 9/9/71 7/7/67 
f 7/7/67 31/31/66 35/35/70 
f 32/32/69 8/8/68 10/10/72 
f 10/10/72 36/36/73 32/32/69 
f 11/11/74 38/38/75 36/36/73 
f 36/36/73 10/10/72 11/11/74 
f 9/9/71 35/35/70 41/41/76 
f 41/41/76 12/12/77 9/9/71 
f 5/5/63 25/25/62 43/43/78 
f 43/43/78 13/13/79 5/5/63 
f 38/38/75 11/11/74 13/13/79 
f 13/13/79 43/43/78 38/38/75 
f 45/45/80 15/15/81 14/14/82 
f 14/14/82 46/46/83 45/45/80 
f 2/2/59 21/21/58 49/49/84 
f 49/49/84 16/16/85 2/2/59 
f 51/51/86 17/17/87 16/16/85 
f 16/16/85 49/49/84 51/51/86 
f 18/18/88 54/54/89 53/53/90 
f 53/53/90 19/19/91 18/18/88 
f 54/54/89 18/18/88 15/15/81 
f 15/15/81 45/45/80 54/54/89 
f 17/17/87 51/51/86 46/46/83 
f 46/46/83 14/14/82 17/17/87 
f 28/28/65 6/6/64 19/19/91 
f 19/19/91 53/53/90 28/28/65 
f 12/12/77 41/41/76 22/22/57 
f 22/22/57 1/1/56 12/12/77 
s off
f 39/56/92 42/57/92 24/58/92 
f 24/58/92 27/59/92 29/60/92 
f 39/56/92 24/58/92 29/60/92 
f 29/60/92 52/61/93 55/62/94 
f 55/62/94 44/63/95 47/64/96 
f 29/60/92 55/62/94 47/64/96 
f 39/56/92 29/60/92 47/64/96 
f 47/64/96 50/65/97 48/66/92 
f 48/66/92 20/67/98 23/68/92 
f 47/64/96 48/66/92 23/68/92 
f 23/68/92 40/69/93 34/70/99 
f 47/64/96 23/68/92 34/70/99 
f 39/56/92 47/64/96 34/70/99 
f 34/70/99 30/71/97 33/72/95 
f 39/56/92 34/70/99 33/72/95 
f 39/56/92 33/72/95 37/73/95 
# 106 faces

