mtllib led_left.mtl

#
# object l_led
#

v  0.008306 -0.005576 0.031386
v  0.008012 -0.005584 0.031371
v  0.007997 -0.005649 0.031480
v  0.008317 -0.005640 0.031496
v  0.008589 -0.005620 0.031313
v  0.008625 -0.005688 0.031417
v  0.008826 -0.005710 0.031161
v  0.008882 -0.005785 0.031252
v  0.008989 -0.005835 0.030948
v  0.009059 -0.005922 0.031020
v  0.009058 -0.005981 0.030699
v  0.009134 -0.006081 0.030749
v  0.009024 -0.006130 0.030445
v  0.009098 -0.006243 0.030473
v  0.008893 -0.006264 0.030216
v  0.008954 -0.006388 0.030225
v  0.008679 -0.006367 0.030041
v  0.008722 -0.006500 0.030034
v  0.008408 -0.006426 0.029939
v  0.008428 -0.006564 0.029923
v  0.008114 -0.006434 0.029924
v  0.008108 -0.006573 0.029906
v  0.007831 -0.006390 0.029997
v  0.007800 -0.006525 0.029986
v  0.007594 -0.006300 0.030149
v  0.007542 -0.006427 0.030151
v  0.007431 -0.006174 0.030362
v  0.007365 -0.006291 0.030383
v  0.007362 -0.006028 0.030611
v  0.007291 -0.006132 0.030654
v  0.007396 -0.005879 0.030865
v  0.007327 -0.005970 0.030930
v  0.007527 -0.005746 0.031094
v  0.007470 -0.005825 0.031178
v  0.007741 -0.005643 0.031269
v  0.007703 -0.005713 0.031369
# 36 vertices

vn 0.099125 0.863873 0.493860
vn -0.200904 0.853047 0.481610
vn -0.200910 0.853048 0.481606
vn 0.104763 0.863608 0.493160
vn 0.383963 0.826944 0.410775
vn 0.393278 0.824826 0.406196
vn 0.616441 0.748313 0.245008
vn 0.625705 0.743698 0.235389
vn 0.768825 0.639136 0.020325
vn 0.774456 0.632590 0.006949
vn 0.825306 0.514010 -0.233805
vn 0.825504 0.507020 -0.247940
vn 0.782743 0.388261 -0.486382
vn 0.778277 0.382441 -0.498020
vn 0.649293 0.276159 -0.708628
vn 0.642992 0.272541 -0.715739
vn 0.442118 0.189682 -0.876671
vn 0.437562 0.188319 -0.879247
vn 0.185000 0.137769 -0.973034
vn 0.185005 0.137771 -0.973033
vn -0.093754 0.126073 -0.987581
vn -0.088387 0.125915 -0.988096
vn -0.363877 0.155876 -0.918312
vn -0.354664 0.154101 -0.922207
vn -0.595179 0.224730 -0.771530
vn -0.585312 0.220601 -0.780221
vn -0.760268 0.325871 -0.561961
vn -0.753340 0.319674 -0.574707
vn -0.837519 0.448501 -0.312104
vn -0.835831 0.441487 -0.326306
vn -0.814077 0.578511 -0.051024
vn -0.817550 0.572369 -0.063286
vn -0.689158 0.699617 0.188674
vn -0.695213 0.695665 0.180911
vn -0.475878 0.795620 0.374874
vn -0.480567 0.794134 0.372031
vn 0.002385 0.862450 -0.506137
vn 0.002351 0.862455 -0.506129
vn 0.002385 0.862451 -0.506135
vn 0.002360 0.862474 -0.506096
vn 0.002387 0.862455 -0.506128
vn 0.002394 0.862477 -0.506091
vn 0.002391 0.862453 -0.506132
vn 0.002415 0.862461 -0.506118
vn 0.002396 0.862452 -0.506134
vn 0.002405 0.862451 -0.506134
vn 0.002395 0.862449 -0.506139
vn 0.002455 0.862425 -0.506178
vn 0.002394 0.862448 -0.506141
vn 0.002396 0.862436 -0.506161
vn 0.002388 0.862448 -0.506141
vn 0.002362 0.862422 -0.506184
vn 0.002387 0.862449 -0.506139
vn 0.002362 0.862445 -0.506145
# 54 vertex normals

vt 0.976488 0.971809 0.986854
vt 0.976995 0.968890 1.000000
vt 0.979005 0.968890 0.744591
vt 0.978377 0.972507 0.730300
vt 0.975029 0.974375 0.949003
vt 0.976569 0.975688 0.689153
vt 0.972793 0.976280 0.891011
vt 0.973798 0.978049 0.626111
vt 0.970050 0.977294 0.819873
vt 0.970400 0.979305 0.548779
vt 0.967132 0.977294 0.744170
vt 0.966783 0.979305 0.466485
vt 0.964389 0.976280 0.673033
vt 0.963384 0.978049 0.389153
vt 0.962154 0.974375 0.615041
vt 0.960614 0.975688 0.326111
vt 0.960695 0.971809 0.577189
vt 0.958805 0.972507 0.284964
vt 0.960188 0.968890 0.564044
vt 0.958177 0.968890 0.270673
vt 0.960695 0.965972 0.577189
vt 0.958805 0.965274 0.284964
vt 0.962154 0.963405 0.615041
vt 0.960614 0.962093 0.326111
vt 0.964389 0.961501 0.673033
vt 0.963384 0.959732 0.389153
vt 0.967132 0.960487 0.744170
vt 0.966783 0.958476 0.466485
vt 0.970050 0.960487 0.819873
vt 0.970400 0.958476 0.548779
vt 0.972793 0.961501 0.891011
vt 0.973798 0.959732 0.626111
vt 0.975029 0.963405 0.949003
vt 0.976569 0.962093 0.689153
vt 0.976488 0.965972 0.986854
vt 0.978377 0.965274 0.730300
# 36 texture coords

o l_led
g l_led
usemtl knuckles_left
s 8
f 1/1/1 2/2/2 3/3/3 
f 3/3/3 4/4/4 1/1/1 
f 5/5/5 1/1/1 4/4/4 
f 4/4/4 6/6/6 5/5/5 
f 7/7/7 5/5/5 6/6/6 
f 6/6/6 8/8/8 7/7/7 
f 9/9/9 7/7/7 8/8/8 
f 8/8/8 10/10/10 9/9/9 
f 11/11/11 9/9/9 10/10/10 
f 10/10/10 12/12/12 11/11/11 
f 13/13/13 11/11/11 12/12/12 
f 12/12/12 14/14/14 13/13/13 
f 15/15/15 13/13/13 14/14/14 
f 14/14/14 16/16/16 15/15/15 
f 17/17/17 15/15/15 16/16/16 
f 16/16/16 18/18/18 17/17/17 
f 19/19/19 17/17/17 18/18/18 
f 18/18/18 20/20/20 19/19/19 
f 21/21/21 19/19/19 20/20/20 
f 20/20/20 22/22/22 21/21/21 
f 23/23/23 21/21/21 22/22/22 
f 22/22/22 24/24/24 23/23/23 
f 25/25/25 23/23/23 24/24/24 
f 24/24/24 26/26/26 25/25/25 
f 27/27/27 25/25/25 26/26/26 
f 26/26/26 28/28/28 27/27/27 
f 29/29/29 27/27/27 28/28/28 
f 28/28/28 30/30/30 29/29/29 
f 31/31/31 29/29/29 30/30/30 
f 30/30/30 32/32/32 31/31/31 
f 33/33/33 31/31/31 32/32/32 
f 32/32/32 34/34/34 33/33/33 
f 35/35/35 33/33/33 34/34/34 
f 34/34/34 36/36/36 35/35/35 
f 2/2/2 35/35/35 36/36/36 
f 36/36/36 3/3/3 2/2/2 
s 1
f 29/29/37 31/31/38 33/33/39 
f 33/33/39 35/35/40 2/2/41 
f 2/2/41 1/1/42 5/5/43 
f 33/33/39 2/2/41 5/5/43 
f 29/29/37 33/33/39 5/5/43 
f 5/5/43 7/7/44 9/9/45 
f 9/9/45 11/11/46 13/13/47 
f 5/5/43 9/9/45 13/13/47 
f 29/29/37 5/5/43 13/13/47 
f 13/13/47 15/15/48 17/17/49 
f 17/17/49 19/19/50 21/21/51 
f 13/13/47 17/17/49 21/21/51 
f 29/29/37 13/13/47 21/21/51 
f 21/21/51 23/23/52 25/25/53 
f 29/29/37 21/21/51 25/25/53 
f 29/29/37 25/25/53 27/27/54 
# 52 faces

