mtllib status_left.mtl

#
# object l_status
#

v  0.007623 -0.002571 0.147381
v  0.007612 0.000594 0.139340
v  0.004627 0.001894 0.139911
v  0.004756 -0.001172 0.147899
v  0.007574 -0.005620 0.154785
v  0.004824 -0.004317 0.155410
v  0.004859 -0.007309 0.162041
v  0.007521 -0.008382 0.161468
v  0.001513 -0.000519 0.148196
v  0.001156 0.002689 0.140300
v  0.001861 -0.003745 0.155837
v  0.002114 -0.006877 0.162440
v  -0.001792 -0.000342 0.148272
v  -0.002472 0.002690 0.140560
v  -0.001083 -0.003836 0.156033
v  -0.000570 -0.006944 0.162630
v  -0.004762 -0.001008 0.148197
v  -0.005565 0.001991 0.140588
v  -0.003832 -0.004421 0.155944
v  -0.003033 -0.007523 0.162662
v  -0.007505 -0.002310 0.147977
v  -0.008536 0.000767 0.140388
v  -0.006445 -0.005461 0.155707
v  -0.005426 -0.008445 0.162567
v  0.010043 -0.001224 0.138659
v  0.010101 -0.004488 0.146612
v  -0.011471 -0.001179 0.139971
v  -0.010321 -0.004264 0.147547
v  -0.009177 -0.007289 0.155233
v  -0.013399 -0.003410 0.139504
v  -0.012301 -0.006288 0.146902
v  -0.011147 -0.009376 0.154651
v  0.009948 -0.007535 0.153981
v  0.009837 -0.010234 0.160700
v  -0.008093 -0.010243 0.162243
v  -0.010041 -0.012376 0.161671
# 36 vertices

vn 0.551320 0.773844 0.311787
vn 0.530309 0.789135 0.309901
vn 0.340171 0.876176 0.341467
vn 0.342239 0.873800 0.345465
vn 0.561318 0.761369 0.324407
vn 0.347548 0.859968 0.373718
vn 0.312524 0.870017 0.381313
vn 0.538389 0.777590 0.324793
vn 0.136038 0.916790 0.375485
vn 0.141080 0.921140 0.362765
vn 0.113893 0.908129 0.402902
vn 0.104712 0.902551 0.417657
vn -0.078480 0.915458 0.394687
vn -0.089337 0.923627 0.372735
vn -0.097233 0.902525 0.419517
vn -0.098949 0.897178 0.430442
vn -0.314548 0.864922 0.391113
vn -0.294455 0.875070 0.384121
vn -0.286294 0.859895 0.422631
vn -0.275470 0.861799 0.425933
vn -0.492444 0.782797 0.380431
vn -0.466065 0.794514 0.389270
vn -0.467301 0.786254 0.404271
vn -0.447931 0.794673 0.409698
vn 0.627774 0.723969 0.285953
vn 0.642458 0.708407 0.292247
vn -0.648817 0.667536 0.365284
vn -0.647759 0.669278 0.363972
vn -0.646524 0.666380 0.371409
vn -0.746566 0.575078 0.334553
vn -0.725870 0.593884 0.347007
vn -0.728183 0.588569 0.351193
vn 0.657972 0.692632 0.295523
vn 0.654667 0.697595 0.291156
vn -0.644893 0.662486 0.381086
vn -0.734708 0.574239 0.361184
# 36 vertex normals

vt 0.861427 0.635522 0.425005
vt 0.882923 0.980241 0.371185
vt 0.770513 0.987722 0.664662
vt 0.754244 0.646171 0.728143
vt 0.838649 0.316073 0.454754
vt 0.735498 0.320998 0.748138
vt 0.716921 0.030666 0.733030
vt 0.817664 0.027652 0.480259
vt 0.628554 0.654239 0.907813
vt 0.636436 0.995258 0.876604
vt 0.620459 0.322308 0.919039
vt 0.609848 0.030135 0.876420
vt 0.498249 0.663086 0.999998
vt 0.492271 0.995472 0.960016
vt 0.503039 0.321548 0.971388
vt 0.502860 0.029313 0.927396
vt 0.377123 0.663324 0.945677
vt 0.366014 0.991763 0.909674
vt 0.391108 0.322997 0.924756
vt 0.402224 0.025659 0.884467
vt 0.261965 0.658289 0.779008
vt 0.242193 0.987827 0.760587
vt 0.282426 0.322363 0.795077
vt 0.302719 0.021071 0.778844
vt 0.970869 0.970152 -0.000001
vt 0.950824 0.626927 0.031784
vt 0.116345 0.980393 0.484612
vt 0.140821 0.650882 0.498820
vt 0.165290 0.318315 0.529818
vt 0.029131 0.967631 0.143055
vt 0.052676 0.648066 0.177995
vt 0.077145 0.312135 0.203371
vt 0.923937 0.309132 0.061438
vt 0.900930 0.020519 0.100035
vt 0.188207 0.011848 0.527115
vt 0.100731 0.004528 0.193927
# 36 texture coords

o l_status
g l_status
usemtl status
s 1
f 1/1/1 2/2/2 3/3/3 
f 3/3/3 4/4/4 1/1/1 
f 5/5/5 1/1/1 4/4/4 
f 4/4/4 6/6/6 5/5/5 
f 7/7/7 8/8/8 5/5/5 
f 5/5/5 6/6/6 7/7/7 
f 9/9/9 4/4/4 3/3/3 
f 3/3/3 10/10/10 9/9/9 
f 11/11/11 6/6/6 4/4/4 
f 4/4/4 9/9/9 11/11/11 
f 6/6/6 11/11/11 12/12/12 
f 12/12/12 7/7/7 6/6/6 
f 13/13/13 9/9/9 10/10/10 
f 10/10/10 14/14/14 13/13/13 
f 15/15/15 11/11/11 9/9/9 
f 9/9/9 13/13/13 15/15/15 
f 15/15/15 16/16/16 12/12/12 
f 12/12/12 11/11/11 15/15/15 
f 17/17/17 13/13/13 14/14/14 
f 14/14/14 18/18/18 17/17/17 
f 19/19/19 15/15/15 13/13/13 
f 13/13/13 17/17/17 19/19/19 
f 19/19/19 20/20/20 16/16/16 
f 16/16/16 15/15/15 19/19/19 
f 21/21/21 17/17/17 18/18/18 
f 18/18/18 22/22/22 21/21/21 
f 23/23/23 19/19/19 17/17/17 
f 17/17/17 21/21/21 23/23/23 
f 23/23/23 24/24/24 20/20/20 
f 20/20/20 19/19/19 23/23/23 
f 25/25/25 2/2/2 1/1/1 
f 1/1/1 26/26/26 25/25/25 
f 22/22/22 27/27/27 28/28/28 
f 28/28/28 21/21/21 22/22/22 
f 21/21/21 28/28/28 29/29/29 
f 29/29/29 23/23/23 21/21/21 
f 27/27/27 30/30/30 31/31/31 
f 31/31/31 28/28/28 27/27/27 
f 28/28/28 31/31/31 32/32/32 
f 32/32/32 29/29/29 28/28/28 
f 26/26/26 1/1/1 5/5/5 
f 5/5/5 33/33/33 26/26/26 
f 33/33/33 5/5/5 8/8/8 
f 8/8/8 34/34/34 33/33/33 
f 24/24/24 23/23/23 29/29/29 
f 29/29/29 35/35/35 24/24/24 
f 35/35/35 29/29/29 32/32/32 
f 32/32/32 36/36/36 35/35/35 
# 48 faces

