mtllib button_a.mtl

#
# object r_button_a
#

v  -0.0013036648 -0.0021237908 0.0619971119
v  -0.0022195803 -0.0015997106 0.0627792552
v  -0.0033479568 -0.0012273121 0.0633390620
v  -0.0046118973 -0.0010319691 0.0636383891
v  -0.0059252661 -0.0010269986 0.0636568516
v  -0.0071985587 -0.0012127343 0.0633931682
v  -0.0083450032 -0.0015765229 0.0628653243
v  -0.0092864726 -0.0020935689 0.0621092767
v  -0.0099588055 -0.0027286396 0.0611765608
v  -0.0103161838 -0.0034384558 0.0601307377
v  -0.0103342514 -0.0041746427 0.0590430796
v  -0.0100117801 -0.0048870319 0.0579877049
v  -0.0093707452 -0.0055270749 0.0570365340
v  -0.0084548285 -0.0060511534 0.0562543981
v  -0.0073264539 -0.0064235539 0.0556945875
v  -0.0060625141 -0.0066188951 0.0553952456
v  -0.0047491444 -0.0066238674 0.0553767942
v  -0.0034758516 -0.0064381296 0.0556404777
v  -0.0023294059 -0.0060743447 0.0561683252
v  -0.0013879371 -0.0055572968 0.0569243729
v  -0.0007156039 -0.0049222242 0.0578570850
v  -0.0003582258 -0.0042124065 0.0589029081
v  -0.0003401568 -0.0034762251 0.0599905662
v  -0.0006626287 -0.0027638341 0.0610459447
v  -0.0103432490 -0.0026024038 0.0579790473
v  -0.0100207794 -0.0033147966 0.0569236763
v  -0.0093797417 -0.0039548362 0.0559725054
v  -0.0084638279 -0.0044789165 0.0551903658
v  -0.0073354528 -0.0048513147 0.0546305552
v  -0.0060715112 -0.0050466596 0.0543312207
v  -0.0047581424 -0.0050516282 0.0543127693
v  -0.0034848491 -0.0048658908 0.0545764491
v  -0.0023384038 -0.0045021041 0.0551043004
v  -0.0013969355 -0.0039850562 0.0558603480
v  -0.0007246018 -0.0033499892 0.0567930602
v  -0.0003672238 -0.0026401749 0.0578388795
v  -0.0003491547 -0.0019039841 0.0589265414
v  -0.0006716266 -0.0011915951 0.0599819161
v  -0.0013126626 -0.0005515519 0.0609330870
v  -0.0022285776 -0.0000274715 0.0617152266
v  -0.0033569548 0.0003449288 0.0622750372
v  -0.0046208943 0.0005402680 0.0625743642
v  -0.0059342640 0.0005452423 0.0625928193
v  -0.0072075566 0.0003595047 0.0623291433
v  -0.0083540007 -0.0000042839 0.0618012957
v  -0.0092954719 -0.0005213356 0.0610452481
v  -0.0099678021 -0.0011564026 0.0601125360
v  -0.0103251804 -0.0018662186 0.0590667054
v  -0.0032740170 -0.0027494221 0.0554233715
v  -0.0040661530 -0.0030007802 0.0550586581
v  -0.0049459352 -0.0031291123 0.0548764691
v  -0.0058534085 -0.0031256811 0.0548892207
v  -0.0067267283 -0.0029907075 0.0550960489
v  -0.0075063789 -0.0027333985 0.0554828458
v  -0.0081392294 -0.0023712865 0.0560232662
v  -0.0085821552 -0.0019290505 0.0566804707
v  -0.0088049667 -0.0014368229 0.0574096814
v  -0.0087924786 -0.0009281540 0.0581612028
v  -0.0085455496 -0.0004377098 0.0588838197
v  -0.0080810012 0.0000010929 0.0595282763
v  -0.0074304943 0.0003583470 0.0600506626
v  -0.0066383579 0.0006097050 0.0604153797
v  -0.0057585752 0.0007380410 0.0605975688
v  -0.0048511038 0.0007346058 0.0605848171
v  -0.0039777849 0.0005996323 0.0603779890
v  -0.0031981322 0.0003423271 0.0599911958
v  -0.0025652815 -0.0000197868 0.0594507754
v  -0.0021223570 -0.0004620266 0.0587935634
v  -0.0018995458 -0.0009542485 0.0580643527
v  -0.0019120293 -0.0014629174 0.0573128350
v  -0.0021589606 -0.0019533655 0.0565902218
v  -0.0026235096 -0.0023921682 0.0559457615
v  -0.0098653054 -0.0027047521 0.0565871596
v  -0.0101768253 -0.0020165616 0.0576066896
v  -0.0092460392 -0.0033230574 0.0556682944
v  -0.0083612315 -0.0038293384 0.0549127199
v  -0.0072711781 -0.0041890908 0.0543719195
v  -0.0060501639 -0.0043777963 0.0540827513
v  -0.0047813994 -0.0043826029 0.0540649220
v  -0.0035513502 -0.0042031729 0.0543196499
v  -0.0024438407 -0.0038517381 0.0548295751
v  -0.0015343471 -0.0033522532 0.0555599444
v  -0.0008848467 -0.0027387505 0.0564609729
v  -0.0005396061 -0.0020530436 0.0574712865
v  -0.0005221510 -0.0013418579 0.0585220009
v  -0.0008336702 -0.0006536656 0.0595415346
v  -0.0014529362 -0.0000353584 0.0604603961
v  -0.0023377438 0.0004709206 0.0612159707
v  -0.0034277984 0.0008306713 0.0617567711
v  -0.0046488130 0.0010193825 0.0620459355
v  -0.0059175757 0.0010241852 0.0620637648
v  -0.0071476246 0.0008447571 0.0618090406
v  -0.0082551353 0.0004933243 0.0612991191
v  -0.0091646295 -0.0000061626 0.0605687536
v  -0.0098141273 -0.0006196671 0.0596677177
v  -0.0101593668 -0.0013053742 0.0586574115
# 96 vertices

vn 0.0047397730 -0.8281631470 0.5604668856
vn 0.0047397739 -0.8281632066 0.5604670048
vn 0.0047397735 -0.8281632662 0.5604669452
vn 0.0047397735 -0.8281632066 0.5604669452
vn 0.0047397739 -0.8281632662 0.5604670048
vn 0.0047397735 -0.8281632066 0.5604668856
vn 0.0047397730 -0.8281632066 0.5604669452
vn 0.0047397735 -0.8281632066 0.5604670048
vn 0.0047397739 -0.8281632066 0.5604669452
vn -0.9931355715 -0.0694035217 -0.0941544399
vn -0.9931354523 -0.0694035515 -0.0941544771
vn -0.9290462136 -0.2109871954 -0.3039039075
vn -0.9290463328 -0.2109870166 -0.3039036393
vn -0.8016433120 -0.3381926119 -0.4929439127
vn -0.8016433716 -0.3381926417 -0.4929439723
vn -0.6196101308 -0.4423507750 -0.6483895779
vn -0.6196101308 -0.4423508048 -0.6483896375
vn -0.3953540027 -0.5163626671 -0.7596479058
vn -0.3953540623 -0.5163626075 -0.7596477866
vn -0.1441519409 -0.5551854968 -0.8191393018
vn -0.1441521943 -0.5551854968 -0.8191393018
vn 0.1168746129 -0.5561735034 -0.8228069544
vn 0.1168744862 -0.5561735034 -0.8228069544
vn 0.3699332774 -0.5192595720 -0.7704017162
vn 0.3699333370 -0.5192595720 -0.7704017162
vn 0.5977836251 -0.4469580054 -0.6654946208
vn 0.5977838039 -0.4469580054 -0.6654946208
vn 0.7848950624 -0.3441976905 -0.5152355433
vn 0.7848950624 -0.3441977501 -0.5152356029
vn 0.9185170531 -0.2179818153 -0.3298639953
vn 0.9185171723 -0.2179818451 -0.3298639953
vn 0.9895443320 -0.0769096687 -0.1220118776
vn 0.9895444512 -0.0769095123 -0.1220116466
vn 0.9931354523 0.0694036409 0.0941548645
vn 0.9931355119 0.0694034249 0.0941545367
vn 0.9290461540 0.2109867632 0.3039046228
vn 0.9290461540 0.2109867036 0.3039045334
vn 0.8016440272 0.3381913602 0.4929434955
vn 0.8016442060 0.3381913304 0.4929434061
vn 0.6196104884 0.4423489869 0.6483904719
vn 0.6196106076 0.4423489571 0.6483903527
vn 0.3953506052 0.5163612962 0.7596505284
vn 0.3953508437 0.5163612366 0.7596504092
vn 0.1441510469 0.5551844239 0.8191401958
vn 0.1441509575 0.5551844835 0.8191401958
vn -0.1168720275 0.5561729670 0.8228077292
vn -0.1168722287 0.5561730266 0.8228077292
vn -0.3699326217 0.5192590952 0.7704023719
vn -0.3699329495 0.5192590356 0.7704023123
vn -0.5977835059 0.4469583631 0.6654945612
vn -0.5977836847 0.4469582736 0.6654944420
vn -0.7848953009 0.3441983163 0.5152349472
vn -0.7848950624 0.3441984057 0.5152350664
vn -0.9185175896 0.2179816365 0.3298628032
vn -0.9185175300 0.2179816961 0.3298629224
vn -0.9895445704 0.0769094601 0.1220107079
vn -0.9895444512 0.0769096762 0.1220110357
vn 0.1233477369 0.7132743597 -0.6899457574
vn 0.0745678470 0.6977957487 -0.7124048471
vn 0.0203906894 0.6898937225 -0.7236233950
vn -0.0354921483 0.6901052594 -0.7228381038
vn -0.0892692134 0.6984171867 -0.7101017833
vn -0.1372795552 0.7142608762 -0.6862839460
vn -0.1762505323 0.7365599871 -0.6530047059
vn -0.2035263777 0.7637922168 -0.6125345230
vn -0.2172472030 0.7941036224 -0.5676293373
vn -0.2164777070 0.8254277706 -0.5213506222
vn -0.2012718320 0.8556290269 -0.4768530130
vn -0.1726651788 0.8826499581 -0.4371679425
vn -0.1326067746 0.9046494365 -0.4049996734
vn -0.0838277414 0.9201283455 -0.3825400472
vn -0.0296512134 0.9280307293 -0.3713213503
vn 0.0262313336 0.9278197885 -0.3721055686
vn 0.0800094455 0.9195079803 -0.3848423064
vn 0.1280204952 0.9036635160 -0.4086598754
vn 0.1669914275 0.8813642263 -0.4419401288
vn 0.1942663193 0.8541316390 -0.4824104607
vn 0.2079871446 0.8238205314 -0.5273150206
vn 0.2072188854 0.7924968004 -0.5735931396
vn 0.1920123994 0.7622951865 -0.6180916429
vn 0.1634056419 0.7352735996 -0.6577776074
vn -0.3743498623 0.6756174564 -0.6351404190
vn -0.9290514588 -0.2085305452 -0.3055787981
vn -0.9931434393 -0.0669710040 -0.0958176032
vn -0.3998468518 0.7320343852 -0.5515869260
vn -0.3235890567 0.6249607801 -0.7104323506
vn -0.8016580343 -0.3357378840 -0.4945952892
vn -0.2511008680 0.5834912062 -0.7723252773
vn -0.6196421981 -0.4398829937 -0.6500357389
vn -0.1617851257 0.5540052652 -0.8166417480
vn -0.3953581154 -0.5139130950 -0.7613049746
vn -0.0617646538 0.5385574698 -0.8403219581
vn -0.1441689432 -0.5527140498 -0.8208060265
vn 0.0421923995 0.5381635427 -0.8417837024
vn 0.1168642044 -0.5537216067 -0.8244605064
vn 0.1429715753 0.5528560281 -0.8209198117
vn 0.3699181378 -0.5168088078 -0.7720553279
vn 0.2337144017 0.5816792846 -0.7791193724
vn 0.5977662802 -0.4445086420 -0.6671487689
vn 0.3082377017 0.6225885749 -0.7192864418
vn 0.7848639488 -0.3417521715 -0.5169081688
vn 0.3614429235 0.6728649735 -0.6454547048
vn 0.9184921384 -0.2155329138 -0.3315384388
vn 0.3897205293 0.7290124893 -0.5627243519
vn 0.9895224571 -0.0744275004 -0.1237170622
vn 0.3911722302 0.7872880697 -0.4766149521
vn 0.9931145906 0.0718669519 0.0925124511
vn 0.3656333685 0.8436909318 -0.3930620849
vn 0.9290174842 0.2134447694 0.3022712171
vn 0.3149168491 0.8943489194 -0.3177536130
vn 0.8016170263 0.3406531513 0.4912897050
vn 0.2424101084 0.9358249903 -0.2558693886
vn 0.6195846200 0.4448158741 0.6467253566
vn 0.1531006545 0.9653010368 -0.2115520984
vn 0.3953390419 0.5188213587 0.7579786777
vn 0.0530543774 0.9807559848 -0.1878908277
vn 0.1441375911 0.5576158762 0.8174893856
vn -0.0509026460 0.9811524153 -0.1864104420
vn -0.1168811321 0.5586289763 0.8211409450
vn -0.1516713798 0.9664515853 -0.2072851509
vn -0.3699472845 0.5217143893 0.7687347531
vn -0.2423864007 0.9376540780 -0.2491057664
vn -0.5978140831 0.4494132102 0.6638118029
vn -0.3169312477 0.8967224956 -0.3089390099
vn -0.7849017382 0.3466574550 0.5135736465
vn -0.3701481819 0.8464838862 -0.3826948404
vn -0.9185284376 0.2204490304 0.3281885684
vn -0.3984428942 0.7902497053 -0.4655627608
vn -0.9895534515 0.0793442875 0.1203681529
vn -0.3655399084 0.6809971929 -0.6345261335
vn -0.3904557526 0.7360388637 -0.5529837608
vn -0.3160110414 0.6315460205 -0.7080160379
vn -0.2452432662 0.5910540819 -0.7684469223
vn -0.1580625623 0.5622824430 -0.8116986156
vn -0.0604089014 0.5471906066 -0.8348252177
vn 0.0410678945 0.5468052030 -0.8362520337
vn 0.1394473761 0.5611547828 -0.8158798218
vn 0.2280261964 0.5892621279 -0.7750962973
vn 0.3007671237 0.6292100549 -0.7166824937
vn 0.3527135551 0.6782782674 -0.6446174979
vn 0.3803266585 0.7331209779 -0.5638130307
vn 0.3817220926 0.7900012732 -0.4797774851
vn 0.3568065464 0.8450428247 -0.3982357085
vn 0.3072785139 0.8944942355 -0.3247461021
vn 0.2365110517 0.9349868894 -0.2643139362
vn 0.1493294984 0.9637596011 -0.2210614383
vn 0.0516735427 0.9788521528 -0.1979353428
vn -0.0498028547 0.9792362452 -0.1965099126
vn -0.1481810063 0.9648855925 -0.2168830633
vn -0.2367587239 0.9367782474 -0.2576662600
vn -0.3094998002 0.8968293071 -0.3160808086
vn -0.3614461720 0.8477621675 -0.3881443739
vn -0.3890590966 0.7929199338 -0.4689466059
# 153 vertex normals

vt 0.5371846557 0.6792184711 0.0000000000
vt 0.5350598693 0.6810809374 0.0000000000
vt 0.5325254202 0.6823300123 0.0000000000
vt 0.5297540426 0.6828805208 0.0000000000
vt 0.5269345641 0.6826950312 0.0000000000
vt 0.5242590904 0.6817861795 0.0000000000
vt 0.5219101906 0.6802157760 0.0000000000
vt 0.5200476646 0.6780909896 0.0000000000
vt 0.5187985897 0.6755564213 0.0000000000
vt 0.5182480812 0.6727851033 0.0000000000
vt 0.5184334517 0.6699656248 0.0000000000
vt 0.5193424821 0.6672902703 0.0000000000
vt 0.5209128857 0.6649413109 0.0000000000
vt 0.5230377316 0.6630789042 0.0000000000
vt 0.5255721211 0.6618297696 0.0000000000
vt 0.5283434987 0.6612792015 0.0000000000
vt 0.5311629772 0.6614647508 0.0000000000
vt 0.5338383317 0.6623736024 0.0000000000
vt 0.5361873507 0.6639440060 0.0000000000
vt 0.5380498767 0.6660688519 0.0000000000
vt 0.5392989516 0.6686033010 0.0000000000
vt 0.5398494601 0.6713746786 0.0000000000
vt 0.5396639109 0.6741940975 0.0000000000
vt 0.5387550592 0.6768695116 0.0000000000
vt 0.4210189581 0.7535754442 0.0000000000
vt 0.4316160679 0.7505922318 0.0000000000
vt 0.4348863363 0.7631718516 0.0000000000
vt 0.4253876209 0.7688140273 0.0000000000
vt 0.4412744045 0.7745153904 0.0000000000
vt 0.4335516095 0.7824031115 0.0000000000
vt 0.4504206181 0.7837812901 0.0000000000
vt 0.4449543953 0.7934160233 0.0000000000
vt 0.4615828991 0.7905094624 0.0000000000
vt 0.4588192105 0.8011026382 0.0000000000
vt 0.4741286039 0.7941287756 0.0000000000
vt 0.4742004871 0.8049383759 0.0000000000
vt 0.4872020483 0.7943087816 0.0000000000
vt 0.4900510311 0.8046628833 0.0000000000
vt 0.4997538328 0.7908986807 0.0000000000
vt 0.5052897930 0.8002940416 0.0000000000
vt 0.5110329390 0.7844260931 0.0000000000
vt 0.5188787580 0.7921302319 0.0000000000
vt 0.5202893019 0.7752811313 0.0000000000
vt 0.5298917294 0.7807274461 0.0000000000
vt 0.5269258022 0.7640714645 0.0000000000
vt 0.5375780463 0.7668628693 0.0000000000
vt 0.5304058790 0.7515371442 0.0000000000
vt 0.5414143205 0.7514809966 0.0000000000
vt 0.5306301117 0.7385177016 0.0000000000
vt 0.5411385298 0.7356308103 0.0000000000
vt 0.5274614096 0.7258458138 0.0000000000
vt 0.5367697477 0.7203920484 0.0000000000
vt 0.5210381746 0.7144421935 0.0000000000
vt 0.5286059380 0.7068030834 0.0000000000
vt 0.5117827654 0.7052730322 0.0000000000
vt 0.5172030926 0.6957901120 0.0000000000
vt 0.5005524755 0.6987605691 0.0000000000
vt 0.5033384562 0.6881037354 0.0000000000
vt 0.4880325794 0.6953008771 0.0000000000
vt 0.4879565239 0.6842676401 0.0000000000
vt 0.4750216007 0.6951593161 0.0000000000
vt 0.4721062183 0.6845433712 0.0000000000
vt 0.4624330997 0.6984055638 0.0000000000
vt 0.4568674564 0.6889119744 0.0000000000
vt 0.4510455132 0.7047194839 0.0000000000
vt 0.4432786703 0.6970758438 0.0000000000
vt 0.4416413307 0.7137974501 0.0000000000
vt 0.4322657585 0.7084786892 0.0000000000
vt 0.4349884391 0.7250412107 0.0000000000
vt 0.4245793819 0.7223433852 0.0000000000
vt 0.4316681623 0.7376041412 0.0000000000
vt 0.4207432270 0.7377249599 0.0000000000
vt 0.4985035658 0.7680866718 0.0000000000
vt 0.4917253256 0.7718083262 0.0000000000
vt 0.4842147827 0.7736489177 0.0000000000
vt 0.4764838219 0.7734829187 0.0000000000
vt 0.4690591693 0.7713215351 0.0000000000
vt 0.4624470472 0.7673124075 0.0000000000
vt 0.4570976496 0.7617284060 0.0000000000
vt 0.4533759356 0.7549501657 0.0000000000
vt 0.4515355825 0.7474397421 0.0000000000
vt 0.4517014027 0.7397087812 0.0000000000
vt 0.4538627267 0.7322841287 0.0000000000
vt 0.4578720331 0.7256717682 0.0000000000
vt 0.4634560347 0.7203226686 0.0000000000
vt 0.4702342749 0.7166008949 0.0000000000
vt 0.4777446985 0.7147604823 0.0000000000
vt 0.4854756594 0.7149263024 0.0000000000
vt 0.4929002523 0.7170875669 0.0000000000
vt 0.4995125532 0.7210967541 0.0000000000
vt 0.5048617721 0.7266809940 0.0000000000
vt 0.5085835457 0.7334590554 0.0000000000
vt 0.5104241371 0.7409694791 0.0000000000
vt 0.5102580786 0.7487005591 0.0000000000
vt 0.5080968738 0.7561250925 0.0000000000
vt 0.5040875673 0.7627373934 0.0000000000
vt 0.4458945990 0.7578626275 0.0000000000
vt 0.4435552359 0.7483166456 0.0000000000
vt 0.4506250620 0.7664778829 0.0000000000
vt 0.4574241638 0.7735753655 0.0000000000
vt 0.4658284187 0.7786712050 0.0000000000
vt 0.4752653837 0.7814182043 0.0000000000
vt 0.4850915670 0.7816292048 0.0000000000
vt 0.4946376085 0.7792897224 0.0000000000
vt 0.5032529831 0.7745593190 0.0000000000
vt 0.5103503466 0.7677602172 0.0000000000
vt 0.5154463053 0.7593559623 0.0000000000
vt 0.5181932449 0.7499190569 0.0000000000
vt 0.5184042454 0.7400927544 0.0000000000
vt 0.5160648823 0.7305466533 0.0000000000
vt 0.5113344193 0.7219315171 0.0000000000
vt 0.5045354366 0.7148340940 0.0000000000
vt 0.4961310625 0.7097381949 0.0000000000
vt 0.4866942167 0.7069911957 0.0000000000
vt 0.4768677950 0.7067801356 0.0000000000
vt 0.4673218131 0.7091194987 0.0000000000
vt 0.4587065578 0.7138500214 0.0000000000
vt 0.4516091347 0.7206490040 0.0000000000
vt 0.4465132952 0.7290533781 0.0000000000
vt 0.4437662363 0.7384901643 0.0000000000
# 120 texture coords

o r_button_a
g r_button_a
usemtl oculusriftscontright
s 4
f 1/1/1 2/2/2 3/3/3 
f 3/3/3 4/4/4 5/5/1 
f 5/5/1 6/6/5 7/7/4 
f 3/3/3 5/5/1 7/7/4 
f 7/7/4 8/8/6 9/9/5 
f 9/9/5 10/10/4 11/11/4 
f 7/7/4 9/9/5 11/11/4 
f 3/3/3 7/7/4 11/11/4 
f 11/11/4 12/12/5 13/13/3 
f 13/13/3 14/14/4 15/15/3 
f 11/11/4 13/13/3 15/15/3 
f 15/15/3 16/16/5 17/17/7 
f 17/17/7 18/18/8 19/19/5 
f 15/15/3 17/17/7 19/19/5 
f 11/11/4 15/15/3 19/19/5 
f 3/3/3 11/11/4 19/19/5 
f 19/19/5 20/20/9 21/21/4 
f 21/21/4 22/22/4 23/23/4 
f 19/19/5 21/21/4 23/23/4 
f 3/3/3 19/19/5 23/23/4 
f 1/1/1 3/3/3 23/23/4 
f 1/1/1 23/23/4 24/24/4 
s 1
f 11/25/10 25/26/11 26/27/12 
f 26/27/12 12/28/13 11/25/10 
f 12/28/13 26/27/12 27/29/14 
f 27/29/14 13/30/15 12/28/13 
f 13/30/15 27/29/14 28/31/16 
f 28/31/16 14/32/17 13/30/15 
f 14/32/17 28/31/16 29/33/18 
f 29/33/18 15/34/19 14/32/17 
f 15/34/19 29/33/18 30/35/20 
f 30/35/20 16/36/21 15/34/19 
f 16/36/21 30/35/20 31/37/22 
f 31/37/22 17/38/23 16/36/21 
f 17/38/23 31/37/22 32/39/24 
f 32/39/24 18/40/25 17/38/23 
f 18/40/25 32/39/24 33/41/26 
f 33/41/26 19/42/27 18/40/25 
f 19/42/27 33/41/26 34/43/28 
f 34/43/28 20/44/29 19/42/27 
f 20/44/29 34/43/28 35/45/30 
f 35/45/30 21/46/31 20/44/29 
f 21/46/31 35/45/30 36/47/32 
f 36/47/32 22/48/33 21/46/31 
f 22/48/33 36/47/32 37/49/34 
f 37/49/34 23/50/35 22/48/33 
f 23/50/35 37/49/34 38/51/36 
f 38/51/36 24/52/37 23/50/35 
f 24/52/37 38/51/36 39/53/38 
f 39/53/38 1/54/39 24/52/37 
f 1/54/39 39/53/38 40/55/40 
f 40/55/40 2/56/41 1/54/39 
f 2/56/41 40/55/40 41/57/42 
f 41/57/42 3/58/43 2/56/41 
f 3/58/43 41/57/42 42/59/44 
f 42/59/44 4/60/45 3/58/43 
f 4/60/45 42/59/44 43/61/46 
f 43/61/46 5/62/47 4/60/45 
f 5/62/47 43/61/46 44/63/48 
f 44/63/48 6/64/49 5/62/47 
f 6/64/49 44/63/48 45/65/50 
f 45/65/50 7/66/51 6/64/49 
f 7/66/51 45/65/50 46/67/52 
f 46/67/52 8/68/53 7/66/51 
f 8/68/53 46/67/52 47/69/54 
f 47/69/54 9/70/55 8/68/53 
f 9/70/55 47/69/54 48/71/56 
f 48/71/56 10/72/57 9/70/55 
f 10/72/57 48/71/56 25/26/11 
f 25/26/11 11/25/10 10/72/57 
s 2
f 49/73/58 50/74/59 51/75/60 
f 51/75/60 52/76/61 53/77/62 
f 53/77/62 54/78/63 55/79/64 
f 51/75/60 53/77/62 55/79/64 
f 55/79/64 56/80/65 57/81/66 
f 57/81/66 58/82/67 59/83/68 
f 55/79/64 57/81/66 59/83/68 
f 51/75/60 55/79/64 59/83/68 
f 59/83/68 60/84/69 61/85/70 
f 61/85/70 62/86/71 63/87/72 
f 59/83/68 61/85/70 63/87/72 
f 63/87/72 64/88/73 65/89/74 
f 65/89/74 66/90/75 67/91/76 
f 63/87/72 65/89/74 67/91/76 
f 59/83/68 63/87/72 67/91/76 
f 51/75/60 59/83/68 67/91/76 
f 67/91/76 68/92/77 69/93/78 
f 69/93/78 70/94/79 71/95/80 
f 67/91/76 69/93/78 71/95/80 
f 51/75/60 67/91/76 71/95/80 
f 49/73/58 51/75/60 71/95/80 
f 49/73/58 71/95/80 72/96/81 
s 2147483648
f 73/97/82 26/27/83 25/26/84 
f 25/26/84 74/98/85 73/97/82 
f 75/99/86 27/29/87 26/27/83 
f 26/27/83 73/97/82 75/99/86 
f 76/100/88 28/31/89 27/29/87 
f 27/29/87 75/99/86 76/100/88 
f 77/101/90 29/33/91 28/31/89 
f 28/31/89 76/100/88 77/101/90 
f 78/102/92 30/35/93 29/33/91 
f 29/33/91 77/101/90 78/102/92 
f 79/103/94 31/37/95 30/35/93 
f 30/35/93 78/102/92 79/103/94 
f 80/104/96 32/39/97 31/37/95 
f 31/37/95 79/103/94 80/104/96 
f 81/105/98 33/41/99 32/39/97 
f 32/39/97 80/104/96 81/105/98 
f 82/106/100 34/43/101 33/41/99 
f 33/41/99 81/105/98 82/106/100 
f 83/107/102 35/45/103 34/43/101 
f 34/43/101 82/106/100 83/107/102 
f 84/108/104 36/47/105 35/45/103 
f 35/45/103 83/107/102 84/108/104 
f 85/109/106 37/49/107 36/47/105 
f 36/47/105 84/108/104 85/109/106 
f 86/110/108 38/51/109 37/49/107 
f 37/49/107 85/109/106 86/110/108 
f 87/111/110 39/53/111 38/51/109 
f 38/51/109 86/110/108 87/111/110 
f 88/112/112 40/55/113 39/53/111 
f 39/53/111 87/111/110 88/112/112 
f 89/113/114 41/57/115 40/55/113 
f 40/55/113 88/112/112 89/113/114 
f 90/114/116 42/59/117 41/57/115 
f 41/57/115 89/113/114 90/114/116 
f 91/115/118 43/61/119 42/59/117 
f 42/59/117 90/114/116 91/115/118 
f 92/116/120 44/63/121 43/61/119 
f 43/61/119 91/115/118 92/116/120 
f 93/117/122 45/65/123 44/63/121 
f 44/63/121 92/116/120 93/117/122 
f 94/118/124 46/67/125 45/65/123 
f 45/65/123 93/117/122 94/118/124 
f 95/119/126 47/69/127 46/67/125 
f 46/67/125 94/118/124 95/119/126 
f 96/120/128 48/71/129 47/69/127 
f 47/69/127 95/119/126 96/120/128 
f 74/98/85 25/26/84 48/71/129 
f 48/71/129 96/120/128 74/98/85 
s 2
f 56/80/65 73/97/130 74/98/131 
f 74/98/131 57/81/66 56/80/65 
f 55/79/64 75/99/132 73/97/130 
f 73/97/130 56/80/65 55/79/64 
f 54/78/63 76/100/133 75/99/132 
f 75/99/132 55/79/64 54/78/63 
f 53/77/62 77/101/134 76/100/133 
f 76/100/133 54/78/63 53/77/62 
f 52/76/61 78/102/135 77/101/134 
f 77/101/134 53/77/62 52/76/61 
f 51/75/60 79/103/136 78/102/135 
f 78/102/135 52/76/61 51/75/60 
f 50/74/59 80/104/137 79/103/136 
f 79/103/136 51/75/60 50/74/59 
f 49/73/58 81/105/138 80/104/137 
f 80/104/137 50/74/59 49/73/58 
f 72/96/81 82/106/139 81/105/138 
f 81/105/138 49/73/58 72/96/81 
f 71/95/80 83/107/140 82/106/139 
f 82/106/139 72/96/81 71/95/80 
f 70/94/79 84/108/141 83/107/140 
f 83/107/140 71/95/80 70/94/79 
f 69/93/78 85/109/142 84/108/141 
f 84/108/141 70/94/79 69/93/78 
f 68/92/77 86/110/143 85/109/142 
f 85/109/142 69/93/78 68/92/77 
f 67/91/76 87/111/144 86/110/143 
f 86/110/143 68/92/77 67/91/76 
f 66/90/75 88/112/145 87/111/144 
f 87/111/144 67/91/76 66/90/75 
f 65/89/74 89/113/146 88/112/145 
f 88/112/145 66/90/75 65/89/74 
f 64/88/73 90/114/147 89/113/146 
f 89/113/146 65/89/74 64/88/73 
f 63/87/72 91/115/148 90/114/147 
f 90/114/147 64/88/73 63/87/72 
f 62/86/71 92/116/149 91/115/148 
f 91/115/148 63/87/72 62/86/71 
f 61/85/70 93/117/150 92/116/149 
f 92/116/149 62/86/71 61/85/70 
f 60/84/69 94/118/151 93/117/150 
f 93/117/150 61/85/70 60/84/69 
f 59/83/68 95/119/152 94/118/151 
f 94/118/151 60/84/69 59/83/68 
f 58/82/67 96/120/153 95/119/152 
f 95/119/152 59/83/68 58/82/67 
f 57/81/66 74/98/131 96/120/153 
f 96/120/153 58/82/67 57/81/66 
# 188 faces

