
mtllib status_left.mtl

#
# object status
#

v  -0.006654473022 -0.008125275373 0.147230476141
v  -0.004956069868 -0.005749794189 0.148478135467
v  -0.006991908420 -0.006275427993 0.144961461425
v  -0.005058757495 -0.004023896996 0.146140128374
v  -0.002292566001 -0.004908673931 0.148898974061
v  -0.002372509101 -0.003191486467 0.146556407213
v  0.000439550116 -0.004409914371 0.149148136377
v  0.000377115473 -0.002678787336 0.146813243628
v  0.003204019042 -0.004356210120 0.149174064398
v  0.003180782776 -0.002622569678 0.146840095520
v  0.005953800399 -0.004452022258 0.149131596088
v  0.005973850843 -0.002718990436 0.146797761321
v  0.008711645380 -0.004670969211 0.149042844772
v  0.008750331588 -0.002959825331 0.146697059274
v  0.011429965496 -0.005422550719 0.148677632213
v  0.011496364139 -0.003645014483 0.146368265152
v  0.013257216662 -0.007968712598 0.147339999676
v  0.013596537523 -0.005953957327 0.145162880421
v  -0.007238406222 -0.004268904682 0.142777979374
v  -0.005115215201 -0.002403148450 0.143744483590
v  -0.002408837667 -0.001606899314 0.144141077995
v  0.000351468829 -0.001079482376 0.144406750798
v  0.003165330505 -0.000991656911 0.144450187683
v  0.005972767714 -0.001092258841 0.144406378269
v  0.008762925863 -0.001365309348 0.144287347794
v  0.011530130170 -0.001949425903 0.144013911486
v  0.013790694065 -0.003767883871 0.143078669906
v  -0.007422418799 -0.002417082665 0.140508860350
v  -0.005150831304 -0.000865489128 0.141304180026
v  -0.002438719152 -0.000053884043 0.141708061099
v  0.000331190269 0.000478650822 0.141976863146
v  0.003152906895 0.000599468360 0.142038241029
v  0.005972858053 0.000483431941 0.141986221075
v  0.008773991838 0.000199778442 0.141860902309
v  0.011551281437 -0.000383484730 0.141589134932
v  0.013925004750 -0.001831448521 0.140856340528
v  -0.007573444396 -0.000647061854 0.138195052743
v  -0.005186265800 0.000672751456 0.138863071799
v  -0.002468671650 0.001499021309 0.139275103807
v  0.000311034295 0.002036949154 0.139546737075
v  0.003140480490 0.002190679777 0.139626204967
v  0.005973089486 0.002040483989 0.139555469155
v  0.008784836158 0.001756551326 0.139430135489
v  0.011572188698 0.001182974782 0.139163658023
v  0.014049161226 0.000062447791 0.138611122966
v  -0.007679770701 0.001011737040 0.135820388794
v  -0.005211872514 0.002171699423 0.136400610209
v  -0.002487713005 0.002997945063 0.136812448502
v  0.000298724539 0.003537538461 0.137084931135
v  0.003133963561 0.003703907132 0.137171730399
v  0.005974353757 0.003535569413 0.137090653181
v  0.008792662062 0.003252507653 0.136965870857
v  0.011586608365 0.002682442777 0.136701568961
v  0.014119375497 0.001730837044 0.136241883039
v  -0.007704303134 0.002467693994 0.133335053921
v  -0.005202161614 0.003533501877 0.133862510324
v  -0.002479092684 0.004357646219 0.134274289012
v  0.000304696325 0.004902528599 0.134548962116
v  0.003140618559 0.005043329671 0.134622424841
v  0.005978350062 0.004875191487 0.134540781379
v  0.008794824593 0.004622973502 0.134433597326
v  0.011586798355 0.004042714834 0.134162589908
v  0.014159465209 0.003273215378 0.133804127574
v  -0.007710457314 0.003877561539 0.130823731422
v  -0.005191538017 0.004892356694 0.131322875619
v  -0.002470746636 0.005717596039 0.131735473871
v  0.000311124051 0.006266145036 0.132011786103
v  0.003147275653 0.006383279338 0.132072195411
v  0.005981710274 0.006230722181 0.131999060512
v  0.008797339164 0.005993647501 0.131900802255
v  0.011586726643 0.005401910748 0.131623238325
v  0.014199833386 0.004815715831 0.131365835667
v  -0.007693176623 0.005230094772 0.128280505538
v  -0.005177370738 0.006235786248 0.128774970770
v  -0.002457427094 0.007054419722 0.129183664918
v  0.000323063636 0.007588790730 0.129452168941
v  0.003155510407 0.007702282630 0.129510924220
v  0.005985529628 0.007565650623 0.129446238279
v  0.008798470721 0.007344685495 0.129356697202
v  0.011585559696 0.006745516788 0.129075303674
v  0.014202093706 0.006200495176 0.128840342164
v  -0.007627516519 0.006462521385 0.125671446323
v  -0.005125998985 0.007435084786 0.126147449017
v  -0.002410562942 0.008222757839 0.126539126039
v  0.000361459795 0.008715324104 0.126786038280
v  0.003182703396 0.008771865629 0.126812011003
v  0.005993721075 0.008643203415 0.126753076911
v  0.008791930042 0.008525362238 0.126718893647
v  0.011569245718 0.007942090742 0.126446217299
v  0.014161951840 0.007407880854 0.126217365265
v  -0.007625742350 0.007663897704 0.123045243323
v  -0.005087791942 0.008629163727 0.123518116772
v  -0.002377691446 0.009394593537 0.123896859586
v  0.000385616673 0.009842943400 0.124118834734
v  0.003210132709 0.009838360362 0.124111317098
v  0.006019572262 0.009770573117 0.124085634947
v  0.008801362477 0.009697185829 0.124076619744
v  0.011570704170 0.009134290740 0.123815715313
v  0.014203336090 0.008596493863 0.123584173620
# 99 vertices

vn -0.890701651573 0.278355777264 0.359400391579
vn -0.606868922710 0.611421763897 0.507812500000
vn -0.889390826225 0.288802176714 0.354368746281
vn -0.564833641052 0.653998494148 0.503238439560
vn -0.262521505356 0.773062884808 0.577456712723
vn -0.261081784964 0.788737773895 0.556533098221
vn -0.110426165164 0.797608613968 0.592981100082
vn -0.113163873553 0.812565147877 0.571779489517
vn 0.007918749936 0.802812457085 0.596179008484
vn 0.006097967271 0.815592765808 0.578594207764
vn 0.062087386847 0.802268981934 0.593725204468
vn 0.065824635327 0.814127266407 0.576943576336
vn 0.181399941444 0.788851261139 0.587203323841
vn 0.171896740794 0.804569602013 0.568435847759
vn 0.585063278675 0.613878846169 0.529956340790
vn 0.525340020657 0.666092395782 0.529470264912
vn 0.889952600002 0.257133036852 0.376652330160
vn 0.882451176643 0.285975575447 0.373494207859
vn -0.854191422462 0.359653919935 0.375507682562
vn -0.505509197712 0.710029244423 0.490223288536
vn -0.259517848492 0.809157252312 0.527176499367
vn -0.120347552001 0.830016434193 0.544600009918
vn 0.001067841076 0.831730604172 0.555178463459
vn 0.071842007339 0.830532193184 0.552317798138
vn 0.163292452693 0.824619293213 0.541607379913
vn 0.446846753359 0.729603171349 0.517694175243
vn 0.840370357037 0.370600014925 0.395516455173
vn -0.811397492886 0.435220301151 0.390150427818
vn -0.455201655626 0.742967903614 0.490703761578
vn -0.263234585524 0.811967551708 0.520976245403
vn -0.127582058311 0.833642005920 0.537367463112
vn -0.001539601828 0.836539506912 0.547904431820
vn 0.075859770179 0.837206900120 0.541599392891
vn 0.165433049202 0.828720450401 0.534653484821
vn 0.383543670177 0.764945685863 0.517447888851
vn 0.793432295322 0.446845650673 0.413272500038
vn -0.765509545803 0.501683235168 0.402876079082
vn -0.416342318058 0.765511989594 0.490561366081
vn -0.265797108412 0.816775083542 0.512084364891
vn -0.134727016091 0.838931083679 0.527298092842
vn -0.001144926297 0.843925654888 0.536458909512
vn 0.081624999642 0.844836890697 0.528760790825
vn 0.164156123996 0.836645126343 0.522568345070
vn 0.327981084585 0.794693887234 0.510774016380
vn 0.733620762825 0.527698099613 0.428176701069
vn -0.717260897160 0.574650168419 0.394098967314
vn -0.388924002647 0.796714365482 0.462584465742
vn -0.266364365816 0.836564958096 0.478757828474
vn -0.138860344887 0.858905851841 0.492948770523
vn 0.000921995146 0.868168234825 0.496269106865
vn 0.084570817649 0.866219758987 0.492454141378
vn 0.164332181215 0.855807721615 0.490497767925
vn 0.293372005224 0.824952185154 0.483101159334
vn 0.679567754269 0.599662542343 0.422602117062
vn -0.661820232868 0.641181528568 0.388433039188
vn -0.372921407223 0.817237198353 0.439377963543
vn -0.267443716526 0.849666774273 0.454466998577
vn -0.136849731207 0.873237490654 0.467684149742
vn 0.005312968511 0.884315431118 0.466859757900
vn 0.080323562026 0.880544602871 0.467107385397
vn 0.162262484431 0.868771374226 0.467875212431
vn 0.258489042521 0.846712410450 0.465039193630
vn 0.611724197865 0.658687651157 0.438091337681
vn -0.595266878605 0.696420311928 0.400819271803
vn -0.365225106478 0.822667896748 0.435692727566
vn -0.268224418163 0.851523816586 0.450513988733
vn -0.131961449981 0.877348482609 0.461352169514
vn 0.005957513582 0.886689662933 0.462326705456
vn 0.074933648109 0.881726861000 0.465771108866
vn 0.160587623715 0.870398640633 0.465422183275
vn 0.229961916804 0.858183801174 0.458953201771
vn 0.519073486328 0.726688444614 0.449985146523
vn -0.530710279942 0.754381537437 0.386335462332
vn -0.362246811390 0.837934434414 0.408219486475
vn -0.264151215553 0.869644939899 0.417063266039
vn -0.126311212778 0.897889971733 0.421709656715
vn 0.006504505407 0.909053325653 0.416628956795
vn 0.064573444426 0.904755353928 0.421008318663
vn 0.158028706908 0.887297451496 0.433278322220
vn 0.225354567170 0.874667167664 0.429153412580
vn 0.430662274361 0.799078345299 0.419528126717
vn -0.481222778559 0.794017434120 0.371430903673
vn -0.353244185448 0.853871881962 0.382258266211
vn -0.252549022436 0.886571347713 0.387569606304
vn -0.109345130622 0.916346311569 0.385166287422
vn 0.014163588174 0.927494883537 0.373567461967
vn 0.045079406351 0.923072695732 0.381974726915
vn 0.139168426394 0.906233549118 0.399215310812
vn 0.222720652819 0.888055086136 0.402186095715
vn 0.362564355135 0.842806220055 0.397774726152
vn -0.454642385244 0.810866773129 0.368504285812
vn -0.347255051136 0.856549620628 0.381754755974
vn -0.243599116802 0.889412105083 0.386788785458
vn -0.093821540475 0.919668853283 0.381322264671
vn 0.014214226045 0.929962456226 0.367379635572
vn 0.031653210521 0.922874927521 0.383796751499
vn 0.127056688070 0.908359646797 0.398421019316
vn 0.219626903534 0.889293074608 0.401150643826
vn 0.327280789614 0.859474062920 0.392672330141
# 99 vertex normals

vt 0.174961030483 0.019601106644 -0.018832206726
vt 0.230649858713 0.022272348404 0.490986824036
vt 0.163126200438 0.115082502365 0.076058387756
vt 0.226662278175 0.117779493332 0.559449195862
vt 0.318940699100 0.024157285690 0.672966003418
vt 0.315712332726 0.119659185410 0.739607810974
vt 0.409626752138 0.025471925735 0.782737731934
vt 0.406975984573 0.120980978012 0.852415084839
vt 0.501536369324 0.026038885117 0.798540115356
vt 0.500188231468 0.121567964554 0.868782997131
vt 0.593007206917 0.026159524918 0.783342361450
vt 0.593098700047 0.121681451797 0.853569030762
vt 0.684787034988 0.025626420975 0.743575096130
vt 0.685505509377 0.121141672134 0.809117317200
vt 0.775429368019 0.024452924728 0.590360641479
vt 0.777047336102 0.119995355606 0.670263290405
vt 0.837036490440 0.022187948227 0.049884796143
vt 0.847651243210 0.117792844772 0.181575775146
vt 0.154263317585 0.210644006729 0.204839706421
vt 0.224246919155 0.213258028030 0.605321884155
vt 0.313978314400 0.215123891830 0.777731895447
vt 0.405592292547 0.216430425644 0.893799781799
vt 0.499133050442 0.217051267624 0.916929244995
vt 0.592522740364 0.217142343521 0.900913238525
vt 0.685395002365 0.216613054276 0.849478721619
vt 0.777607321739 0.215506792068 0.732440948486
vt 0.853381931782 0.213463068008 0.349864959717
vt 0.147529631853 0.306185483932 0.300299644470
vt 0.222552150488 0.308685541153 0.633399009705
vt 0.312469184399 0.310590028763 0.809024810791
vt 0.404400765896 0.311890363693 0.926242828369
vt 0.498191773891 0.312527894974 0.956483840942
vt 0.592002689838 0.312608480453 0.937183380127
vt 0.685243546963 0.312091112137 0.883438110352
vt 0.777790904045 0.310951948166 0.766711235046
vt 0.857205390930 0.309073209763 0.464125633240
vt 0.141920030117 0.401699304581 0.378195762634
vt 0.220863252878 0.404145002365 0.661499977112
vt 0.310957700014 0.406052350998 0.840306282043
vt 0.403213262558 0.407359361649 0.958691596985
vt 0.497250378132 0.408008813858 0.996043205261
vt 0.591493546963 0.408079624176 0.969401359558
vt 0.685087442398 0.407560110092 0.915625572205
vt 0.777966201305 0.406426191330 0.801001548767
vt 0.860705375671 0.404655218124 0.569238662720
vt 0.137833744287 0.497179031372 0.432199478149
vt 0.219514220953 0.499587774277 0.681162834167
vt 0.309826970100 0.501501560211 0.859957695007
vt 0.402305841446 0.502811908722 0.978707313538
vt 0.496531367302 0.503454923630 1.018830299377
vt 0.591039299965 0.503531932831 0.988255500793
vt 0.684851050377 0.503011465073 0.934683799744
vt 0.777947962284 0.501872539520 0.820853233337
vt 0.862486481667 0.500161886215 0.625617027283
vt 0.136534661055 0.592586994171 0.442661285400
vt 0.219385087490 0.595001697540 0.671278953552
vt 0.309662282467 0.596883058548 0.849720001221
vt 0.402051329613 0.598215818405 0.969538688660
vt 0.496308088303 0.598829984665 1.004215240479
vt 0.590727567673 0.598926305771 0.973614692688
vt 0.684468090534 0.598396062851 0.926754951477
vt 0.777502775192 0.597285747528 0.810618400574
vt 0.863307595253 0.595604181290 0.654833793640
vt 0.135862052441 0.688002586365 0.443151473999
vt 0.219287306070 0.690412282944 0.660769462585
vt 0.309488415718 0.692287206650 0.839463233948
vt 0.401812434196 0.693631649017 0.960034370422
vt 0.496084690094 0.694240331650 0.989602088928
vt 0.590389370918 0.694342613220 0.962351799011
vt 0.684096693993 0.693799018860 0.918812751770
vt 0.777049183846 0.692692279816 0.800172805786
vt 0.864137947559 0.691063642502 0.684020996094
vt 0.135987728834 0.783416032791 0.431277275085
vt 0.219312489033 0.785813093185 0.646956443787
vt 0.309487581253 0.787693977356 0.824197769165
vt 0.401770442724 0.789033889771 0.941708564758
vt 0.495920687914 0.789630651474 0.970517158508
vt 0.590073227882 0.789746046066 0.946665763855
vt 0.683685898781 0.789211034775 0.906582832336
vt 0.776564419270 0.788094043732 0.786361694336
vt 0.863753437996 0.786484241486 0.679078102112
vt 0.137762069702 0.878795385361 0.393594741821
vt 0.220622688532 0.881187438965 0.602080345154
vt 0.310658186674 0.883057832718 0.772637367249
vt 0.402673304081 0.884344339371 0.881243705750
vt 0.496469914913 0.884964704514 0.897612571716
vt 0.589987993240 0.885039567947 0.875576972961
vt 0.683076500893 0.884571552277 0.857591629028
vt 0.775624752045 0.883458852768 0.740778923035
vt 0.862017869949 0.881843566895 0.635805130005
vt 0.137422263622 0.974157571793 0.349100112915
vt 0.221496820450 0.976527452469 0.556153297424
vt 0.311362296343 0.978411197662 0.721837997437
vt 0.403102308512 0.979700803757 0.820835113525
vt 0.497028052807 0.980300188065 0.824034690857
vt 0.590473413467 0.980398893356 0.815108299255
vt 0.683001220226 0.979921102524 0.806751251221
vt 0.775277495384 0.978796243668 0.694375991821
vt 0.862999498844 0.977207183838 0.588625907898
# 99 texture coords

g status
usemtl status
s 1
f 1/1/1 2/2/2 3/3/3 
f 3/3/3 2/2/2 4/4/4 
f 2/2/2 5/5/5 4/4/4 
f 4/4/4 5/5/5 6/6/6 
f 5/5/5 7/7/7 6/6/6 
f 6/6/6 7/7/7 8/8/8 
f 7/7/7 9/9/9 8/8/8 
f 8/8/8 9/9/9 10/10/10 
f 11/11/11 12/12/12 9/9/9 
f 9/9/9 12/12/12 10/10/10 
f 13/13/13 14/14/14 11/11/11 
f 11/11/11 14/14/14 12/12/12 
f 15/15/15 16/16/16 13/13/13 
f 13/13/13 16/16/16 14/14/14 
f 17/17/17 18/18/18 15/15/15 
f 15/15/15 18/18/18 16/16/16 
f 3/3/3 4/4/4 19/19/19 
f 19/19/19 4/4/4 20/20/20 
f 4/4/4 6/6/6 20/20/20 
f 20/20/20 6/6/6 21/21/21 
f 6/6/6 8/8/8 21/21/21 
f 21/21/21 8/8/8 22/22/22 
f 8/8/8 10/10/10 22/22/22 
f 22/22/22 10/10/10 23/23/23 
f 12/12/12 24/24/24 10/10/10 
f 10/10/10 24/24/24 23/23/23 
f 14/14/14 25/25/25 12/12/12 
f 12/12/12 25/25/25 24/24/24 
f 16/16/16 26/26/26 14/14/14 
f 14/14/14 26/26/26 25/25/25 
f 18/18/18 27/27/27 16/16/16 
f 16/16/16 27/27/27 26/26/26 
f 19/19/19 20/20/20 28/28/28 
f 28/28/28 20/20/20 29/29/29 
f 20/20/20 21/21/21 29/29/29 
f 29/29/29 21/21/21 30/30/30 
f 21/21/21 22/22/22 30/30/30 
f 30/30/30 22/22/22 31/31/31 
f 22/22/22 23/23/23 31/31/31 
f 31/31/31 23/23/23 32/32/32 
f 24/24/24 33/33/33 23/23/23 
f 23/23/23 33/33/33 32/32/32 
f 25/25/25 34/34/34 24/24/24 
f 24/24/24 34/34/34 33/33/33 
f 26/26/26 35/35/35 25/25/25 
f 25/25/25 35/35/35 34/34/34 
f 27/27/27 36/36/36 26/26/26 
f 26/26/26 36/36/36 35/35/35 
f 28/28/28 29/29/29 37/37/37 
f 37/37/37 29/29/29 38/38/38 
f 29/29/29 30/30/30 38/38/38 
f 38/38/38 30/30/30 39/39/39 
f 30/30/30 31/31/31 39/39/39 
f 39/39/39 31/31/31 40/40/40 
f 31/31/31 32/32/32 40/40/40 
f 40/40/40 32/32/32 41/41/41 
f 33/33/33 42/42/42 32/32/32 
f 32/32/32 42/42/42 41/41/41 
f 34/34/34 43/43/43 33/33/33 
f 33/33/33 43/43/43 42/42/42 
f 35/35/35 44/44/44 34/34/34 
f 34/34/34 44/44/44 43/43/43 
f 36/36/36 45/45/45 35/35/35 
f 35/35/35 45/45/45 44/44/44 
f 37/37/37 38/38/38 46/46/46 
f 46/46/46 38/38/38 47/47/47 
f 38/38/38 39/39/39 47/47/47 
f 47/47/47 39/39/39 48/48/48 
f 39/39/39 40/40/40 48/48/48 
f 48/48/48 40/40/40 49/49/49 
f 40/40/40 41/41/41 49/49/49 
f 49/49/49 41/41/41 50/50/50 
f 42/42/42 51/51/51 41/41/41 
f 41/41/41 51/51/51 50/50/50 
f 43/43/43 52/52/52 42/42/42 
f 42/42/42 52/52/52 51/51/51 
f 44/44/44 53/53/53 43/43/43 
f 43/43/43 53/53/53 52/52/52 
f 45/45/45 54/54/54 44/44/44 
f 44/44/44 54/54/54 53/53/53 
f 46/46/46 47/47/47 55/55/55 
f 55/55/55 47/47/47 56/56/56 
f 47/47/47 48/48/48 56/56/56 
f 56/56/56 48/48/48 57/57/57 
f 48/48/48 49/49/49 57/57/57 
f 57/57/57 49/49/49 58/58/58 
f 49/49/49 50/50/50 58/58/58 
f 58/58/58 50/50/50 59/59/59 
f 51/51/51 60/60/60 50/50/50 
f 50/50/50 60/60/60 59/59/59 
f 52/52/52 61/61/61 51/51/51 
f 51/51/51 61/61/61 60/60/60 
f 53/53/53 62/62/62 52/52/52 
f 52/52/52 62/62/62 61/61/61 
f 54/54/54 63/63/63 53/53/53 
f 53/53/53 63/63/63 62/62/62 
f 55/55/55 56/56/56 64/64/64 
f 64/64/64 56/56/56 65/65/65 
f 56/56/56 57/57/57 65/65/65 
f 65/65/65 57/57/57 66/66/66 
f 57/57/57 58/58/58 66/66/66 
f 66/66/66 58/58/58 67/67/67 
f 58/58/58 59/59/59 67/67/67 
f 67/67/67 59/59/59 68/68/68 
f 60/60/60 69/69/69 59/59/59 
f 59/59/59 69/69/69 68/68/68 
f 61/61/61 70/70/70 60/60/60 
f 60/60/60 70/70/70 69/69/69 
f 62/62/62 71/71/71 61/61/61 
f 61/61/61 71/71/71 70/70/70 
f 63/63/63 72/72/72 62/62/62 
f 62/62/62 72/72/72 71/71/71 
f 64/64/64 65/65/65 73/73/73 
f 73/73/73 65/65/65 74/74/74 
f 65/65/65 66/66/66 74/74/74 
f 74/74/74 66/66/66 75/75/75 
f 66/66/66 67/67/67 75/75/75 
f 75/75/75 67/67/67 76/76/76 
f 67/67/67 68/68/68 76/76/76 
f 76/76/76 68/68/68 77/77/77 
f 69/69/69 78/78/78 68/68/68 
f 68/68/68 78/78/78 77/77/77 
f 70/70/70 79/79/79 69/69/69 
f 69/69/69 79/79/79 78/78/78 
f 71/71/71 80/80/80 70/70/70 
f 70/70/70 80/80/80 79/79/79 
f 72/72/72 81/81/81 71/71/71 
f 71/71/71 81/81/81 80/80/80 
f 73/73/73 74/74/74 82/82/82 
f 82/82/82 74/74/74 83/83/83 
f 74/74/74 75/75/75 83/83/83 
f 83/83/83 75/75/75 84/84/84 
f 75/75/75 76/76/76 84/84/84 
f 84/84/84 76/76/76 85/85/85 
f 76/76/76 77/77/77 85/85/85 
f 85/85/85 77/77/77 86/86/86 
f 78/78/78 87/87/87 77/77/77 
f 77/77/77 87/87/87 86/86/86 
f 79/79/79 88/88/88 78/78/78 
f 78/78/78 88/88/88 87/87/87 
f 80/80/80 89/89/89 79/79/79 
f 79/79/79 89/89/89 88/88/88 
f 81/81/81 90/90/90 80/80/80 
f 80/80/80 90/90/90 89/89/89 
f 82/82/82 83/83/83 91/91/91 
f 91/91/91 83/83/83 92/92/92 
f 83/83/83 84/84/84 92/92/92 
f 92/92/92 84/84/84 93/93/93 
f 84/84/84 85/85/85 93/93/93 
f 93/93/93 85/85/85 94/94/94 
f 85/85/85 86/86/86 94/94/94 
f 94/94/94 86/86/86 95/95/95 
f 87/87/87 96/96/96 86/86/86 
f 86/86/86 96/96/96 95/95/95 
f 88/88/88 97/97/97 87/87/87 
f 87/87/87 97/97/97 96/96/96 
f 89/89/89 98/98/98 88/88/88 
f 88/88/88 98/98/98 97/97/97 
f 90/90/90 99/99/99 89/89/89 
f 89/89/89 99/99/99 98/98/98 
# 0 polygons - 160 triangles

