
mtllib led_right.mtl

#
# object led
#

v  -0.003771636169 0.009871917777 0.121010370553
v  -0.003960071597 0.009779917076 0.121241152287
v  -0.003975326661 0.010568064637 0.121541924775
v  -0.003786918707 0.010664928705 0.121313534677
v  -0.003483485430 0.009918774478 0.120899282396
v  -0.003498833859 0.010717673227 0.121205098927
v  -0.003173792968 0.009910656139 0.120939187706
v  -0.003189076670 0.010703668930 0.121242344379
v  -0.002926478628 0.009846892208 0.121118076146
v  -0.002941732528 0.010635036975 0.121418841183
v  -0.002805328462 0.009746016003 0.121387459338
v  -0.002820649184 0.010536213405 0.121688783169
v  -0.002846301300 0.009635651484 0.121676430106
v  -0.002861520974 0.010422781110 0.121976926923
v  -0.003034738591 0.009543653578 0.121907196939
v  -0.003050161526 0.010336933658 0.122209340334
v  -0.003322991543 0.009496035054 0.122017003596
v  -0.003338447772 0.010294178501 0.122321523726
v  -0.003632580861 0.009504916146 0.121978387237
v  -0.003648004727 0.010298195295 0.122280530632
v  -0.003879894502 0.009568678215 0.121799506247
v  -0.003895115107 0.010355806910 0.122100003064
v  -0.004001013935 0.009668535553 0.121529839933
v  -0.004016333725 0.010458734818 0.121831156313
v  -0.003744358197 0.010717577301 0.121393561363
v  -0.003910931759 0.010631840676 0.121595293283
v  -0.003420092631 0.010577396490 0.121790021658
v  -0.003490744857 0.010763546452 0.121297992766
v  -0.003218089230 0.010751678608 0.121330894530
v  -0.002999432618 0.010690905154 0.121486768126
v  -0.002893550089 0.010603292845 0.121725171804
v  -0.002928747330 0.010503731668 0.121978528798
v  -0.003095520195 0.010427984409 0.122184015810
v  -0.003349300474 0.010390976444 0.122283056378
v  -0.003621791024 0.010393881239 0.122246690094
v  -0.003840245539 0.010444664396 0.122087053955
v  -0.003946091048 0.010535086505 0.121850498021
# 37 vertices

vn -0.611846327782 0.272295564413 -0.742629885674
vn -0.924658536911 0.120175458491 -0.361337035894
vn -0.875483930111 0.432036131620 -0.216500893235
vn -0.584067881107 0.577040076256 -0.570867300034
vn -0.133260428905 0.351915687323 -0.926497161388
vn -0.131252363324 0.657455801964 -0.741973519325
vn 0.381448686123 0.336335599422 -0.861031532288
vn 0.356276750565 0.637937963009 -0.682716667652
vn 0.791556417942 0.231164798141 -0.565686583519
vn 0.738477766514 0.536905169487 -0.407901287079
vn 0.990932762623 0.064180277288 -0.118038758636
vn 0.922055721283 0.386817038059 0.013633400202
vn 0.924596190453 -0.119925118983 0.361579626799
vn 0.862987220287 0.207269832492 0.460751891136
vn 0.610988736153 -0.271583527327 0.743596076965
vn 0.571770608425 0.069982983172 0.817423224449
vn 0.132942765951 -0.350849926472 0.926946878433
vn 0.118033520877 -0.002911715535 0.993005335331
vn -0.380166083574 -0.335865020752 0.861782133579
vn -0.368453264236 0.009272038937 0.929600059986
vn -0.791518926620 -0.231230765581 0.565712034702
vn -0.750612974167 0.103304728866 0.652616441250
vn -0.990937054157 -0.064181253314 0.118001960218
vn -0.934739828110 0.265988320112 0.235609143972
vn -0.037356942892 0.932148933411 0.360142827034
vn -0.037754371762 0.933644711971 0.356205224991
vn -0.018042221665 0.934011042118 0.356788247824
vn -0.018139034510 0.934281945229 0.356073290110
vn 0.001598483999 0.934675276279 0.355499088764
vn 0.000864490750 0.936149299145 0.351601630449
vn -0.002112524817 0.934480667114 0.356007665396
vn 0.002669864101 0.933743357658 0.357933223248
vn 0.003801228246 0.936052560806 0.351839691401
vn -0.018168143928 0.934349656105 0.355894088745
vn -0.040516659617 0.933181822300 0.357113480568
vn -0.037709344178 0.931126594543 0.362741380930
vn -0.033639095724 0.932436347008 0.359765052795
vn 0.710892021656 0.685368537903 0.157805204391
vn 0.668751299381 0.546283423901 0.504327356815
vn 0.573639810085 0.800942122936 -0.171549141407
vn 0.276091456413 0.880095422268 -0.386271387339
vn -0.110108733177 0.894785821438 -0.432705938816
vn -0.468066394329 0.831834673882 -0.298269778490
vn -0.693727731705 0.719923496246 -0.021259354427
vn -0.734953522682 0.590963423252 0.332574158907
vn -0.597146868706 0.463966310024 0.654332399368
vn -0.300727605820 0.389691472054 0.870461642742
vn 0.084624566138 0.376649826765 0.922482311726
vn 0.444135218859 0.438625961542 0.781249761581
# 49 vertex normals

vt 0.030488068238 0.033652763814 0.000000000000
vt 0.034517105669 0.029634812847 0.000000000000
vt 0.031001025811 0.027604795992 0.000000000000
vt 0.028459006920 0.030138829723 0.000000000000
vt 0.024989062920 0.035113792866 0.000000000000
vt 0.024993116036 0.031062701717 0.000000000000
vt 0.019501024857 0.033652763814 0.000000000000
vt 0.021527105942 0.030138829723 0.000000000000
vt 0.015476042405 0.029637793079 0.000000000000
vt 0.018985087052 0.027604795992 0.000000000000
vt 0.014000112191 0.024132825434 0.000000000000
vt 0.018058115616 0.024135686457 0.000000000000
vt 0.015472108498 0.018635846674 0.000000000000
vt 0.018985087052 0.020667769015 0.000000000000
vt 0.019487077370 0.014623739757 0.000000000000
vt 0.021527105942 0.018133737147 0.000000000000
vt 0.024991089478 0.013155796565 0.000000000000
vt 0.024993116036 0.017209745944 0.000000000000
vt 0.030497008935 0.014622786082 0.000000000000
vt 0.028458053246 0.018133737147 0.000000000000
vt 0.034513052553 0.018641807139 0.000000000000
vt 0.031000072137 0.020667769015 0.000000000000
vt 0.035984091461 0.024137832224 0.000000000000
vt 0.031928118318 0.024135686457 0.000000000000
vt 0.027936035767 0.029214717448 0.000000000000
vt 0.030091101304 0.027060844004 0.000000000000
vt 0.024993116036 0.024117805064 0.000000000000
vt 0.024993116036 0.030003765598 0.000000000000
vt 0.022050077096 0.029214717448 0.000000000000
vt 0.019895011559 0.027060844004 0.000000000000
vt 0.019106084481 0.024117805064 0.000000000000
vt 0.019895011559 0.021173812449 0.000000000000
vt 0.022050077096 0.019019700587 0.000000000000
vt 0.024993116036 0.018230773509 0.000000000000
vt 0.027936035767 0.019019700587 0.000000000000
vt 0.030091101304 0.021173812449 0.000000000000
vt 0.030880028382 0.024117805064 0.000000000000
# 37 texture coords

g led
usemtl lambert4SG
s 1
f 1/1/1 2/2/2 3/3/3 4/4/4
f 5/5/5 1/1/1 4/4/4 6/6/6
f 7/7/7 5/5/5 6/6/6 8/8/8
f 9/9/9 7/7/7 8/8/8 10/10/10
f 11/11/11 9/9/9 10/10/10 12/12/12
f 13/13/13 11/11/11 12/12/12 14/14/14
f 15/15/15 13/13/13 14/14/14 16/16/16
f 17/17/17 15/15/15 16/16/16 18/18/18
f 19/19/19 17/17/17 18/18/18 20/20/20
f 21/21/21 19/19/19 20/20/20 22/22/22
f 23/23/23 21/21/21 22/22/22 24/24/24
f 2/2/2 23/23/23 24/24/24 3/3/3
s 2
f 25/25/25 26/26/26 27/27/27
f 28/28/28 25/25/25 27/27/27
f 29/29/29 28/28/28 27/27/27
f 30/30/30 29/29/29 27/27/27
f 31/31/31 30/30/30 27/27/27
f 32/32/32 31/31/31 27/27/27
f 33/33/33 32/32/32 27/27/27
f 34/34/34 33/33/33 27/27/27
f 35/35/35 34/34/34 27/27/27
f 36/36/36 35/35/35 27/27/27
f 37/37/37 36/36/36 27/27/27
f 26/26/26 37/37/37 27/27/27
s 1
f 14/14/14 12/12/12 31/31/38 32/32/39
f 12/12/12 10/10/10 30/30/40 31/31/38
f 10/10/10 8/8/8 29/29/41 30/30/40
f 8/8/8 6/6/6 28/28/42 29/29/41
f 6/6/6 4/4/4 25/25/43 28/28/42
f 4/4/4 3/3/3 26/26/44 25/25/43
f 3/3/3 24/24/24 37/37/45 26/26/44
f 24/24/24 22/22/22 36/36/46 37/37/45
f 22/22/22 20/20/20 35/35/47 36/36/46
f 20/20/20 18/18/18 34/34/48 35/35/47
f 18/18/18 16/16/16 33/33/49 34/34/48
f 16/16/16 14/14/14 32/32/39 33/33/49
# 24 polygons - 12 triangles

