mtllib led_left.mtl

#
# object l_led
#

v  0.00970925 -0.00719858 0.03185851
v  0.00941481 -0.00720684 0.03184315
v  0.00939999 -0.00727182 0.03195198
v  0.00972007 -0.00726283 0.03196868
v  0.00999211 -0.00724203 0.03178565
v  0.01002755 -0.00731007 0.03188947
v  0.01022928 -0.00733196 0.03163334
v  0.01028538 -0.00740782 0.03172392
v  0.01039214 -0.00745751 0.03141999
v  0.01046242 -0.00754431 0.03149199
v  0.01046107 -0.00760355 0.03117131
v  0.01053735 -0.00770307 0.03122165
v  0.01042773 -0.00775246 0.03091729
v  0.01050112 -0.00786494 0.03094552
v  0.01029616 -0.00788628 0.03068859
v  0.01035808 -0.00801041 0.03069689
v  0.01008222 -0.00798887 0.03051276
v  0.01012551 -0.00812195 0.03050575
v  0.00981171 -0.00804787 0.03041103
v  0.00983145 -0.00818606 0.03039518
v  0.00951728 -0.00805613 0.03039568
v  0.00951137 -0.00819505 0.03037848
v  0.00923441 -0.00801268 0.03046854
v  0.00920388 -0.00814781 0.03045769
v  0.00899724 -0.00792275 0.03062084
v  0.00894606 -0.00805006 0.03062324
v  0.00883437 -0.00779719 0.03083420
v  0.00876901 -0.00791357 0.03085518
v  0.00876545 -0.00765115 0.03108288
v  0.00869409 -0.00775482 0.03112551
v  0.00879879 -0.00750225 0.03133689
v  0.00873033 -0.00759294 0.03140164
v  0.00893036 -0.00736842 0.03156561
v  0.00887335 -0.00744747 0.03165027
v  0.00914430 -0.00726583 0.03174143
v  0.00910593 -0.00733594 0.03184140
# 36 vertices

vn 0.09866422 0.86380208 0.49407622
vn -0.20135760 0.85286063 0.48175085
vn -0.20136352 0.85286146 0.48174688
vn 0.10430275 0.86353898 0.49337745
vn 0.38353676 0.82700408 0.41105205
vn 0.39285427 0.82489014 0.40647477
vn 0.61608595 0.74850130 0.24532409
vn 0.62535405 0.74389172 0.23570597
vn 0.76856768 0.63943505 0.02065352
vn 0.77420467 0.63289356 0.00727783
vn 0.82515967 0.51438701 -0.23349015
vn 0.82536423 0.50740045 -0.24762660
vn 0.78270787 0.38867769 -0.48610529
vn 0.77824706 0.38285866 -0.49774593
vn 0.64935642 0.27657318 -0.70840925
vn 0.64305812 0.27295420 -0.71552259
vn 0.44225594 0.19005188 -0.87652159
vn 0.43770117 0.18868715 -0.87909901
vn 0.18518163 0.13805830 -0.97295833
vn 0.18518651 0.13806045 -0.97295707
vn -0.09356365 0.12625614 -0.98757541
vn -0.08819686 0.12609997 -0.98808914
vn -0.36371544 0.15593746 -0.91836524
vn -0.35450140 0.15416607 -0.92225903
vn -0.59508091 0.22466707 -0.77162397
vn -0.58521014 0.22054353 -0.78031385
vn -0.76026011 0.32569665 -0.56207323
vn -0.75332630 0.31950462 -0.57481861
vn -0.83761972 0.44824058 -0.31220761
vn -0.83592618 0.44123018 -0.32641011
vn -0.81429315 0.57820106 -0.05109245
vn -0.81776088 0.57206047 -0.06335707
vn -0.68947941 0.69930285 0.18866284
vn -0.69553161 0.69535029 0.18089734
vn -0.47628236 0.79534817 0.37493527
vn -0.48097017 0.79386139 0.37209117
vn 0.00216774 0.86256343 -0.50594443
vn 0.00213407 0.86256814 -0.50593650
vn 0.00216802 0.86256474 -0.50594217
vn 0.00214266 0.86258751 -0.50590342
vn 0.00216936 0.86256886 -0.50593507
vn 0.00217634 0.86259013 -0.50589883
vn 0.00217400 0.86256611 -0.50593978
vn 0.00219787 0.86257452 -0.50592530
vn 0.00217903 0.86256534 -0.50594109
vn 0.00218720 0.86256498 -0.50594169
vn 0.00217711 0.86256224 -0.50594628
vn 0.00223735 0.86253899 -0.50598580
vn 0.00217618 0.86256123 -0.50594819
vn 0.00217844 0.86254919 -0.50596863
vn 0.00217025 0.86256129 -0.50594801
vn 0.00214424 0.86253601 -0.50599122
vn 0.00216920 0.86256248 -0.50594604
vn 0.00214453 0.86255842 -0.50595284
# 54 vertex normals

vt 0.97648787 0.97180897 0.98685431
vt 0.97699469 0.96889049 1.00000012
vt 0.97900540 0.96889049 0.74459064
vt 0.97837728 0.97250730 0.73030031
vt 0.97502869 0.97437543 0.94900286
vt 0.97656888 0.97568780 0.68915284
vt 0.97279298 0.97628033 0.89101100
vt 0.97379833 0.97804850 0.62611139
vt 0.97005045 0.97729391 0.81987333
vt 0.97039968 0.97930461 0.54877949
vt 0.96713197 0.97729391 0.74417031
vt 0.96678275 0.97930461 0.46648467
vt 0.96438944 0.97628033 0.67303276
vt 0.96338421 0.97804850 0.38915271
vt 0.96215379 0.97437543 0.61504078
vt 0.96061355 0.97568780 0.32611120
vt 0.96069461 0.97180897 0.57718933
vt 0.95880514 0.97250730 0.28496379
vt 0.96018773 0.96889049 0.56404364
vt 0.95817703 0.96889049 0.27067345
vt 0.96069461 0.96597201 0.57718933
vt 0.95880514 0.96527368 0.28496379
vt 0.96215379 0.96340549 0.61504078
vt 0.96061355 0.96209317 0.32611120
vt 0.96438944 0.96150064 0.67303276
vt 0.96338421 0.95973247 0.38915271
vt 0.96713197 0.96048707 0.74417031
vt 0.96678275 0.95847636 0.46648455
vt 0.97005045 0.96048701 0.81987321
vt 0.97039956 0.95847636 0.54877937
vt 0.97279292 0.96150064 0.89101088
vt 0.97379833 0.95973247 0.62611139
vt 0.97502869 0.96340549 0.94900274
vt 0.97656888 0.96209317 0.68915284
vt 0.97648787 0.96597201 0.98685431
vt 0.97837728 0.96527368 0.73030031
# 36 texture coords

o l_led
g l_led
usemtl knuckles_left
s 8
f 1/1/1 2/2/2 3/3/3 
f 3/3/3 4/4/4 1/1/1 
f 5/5/5 1/1/1 4/4/4 
f 4/4/4 6/6/6 5/5/5 
f 7/7/7 5/5/5 6/6/6 
f 6/6/6 8/8/8 7/7/7 
f 9/9/9 7/7/7 8/8/8 
f 8/8/8 10/10/10 9/9/9 
f 11/11/11 9/9/9 10/10/10 
f 10/10/10 12/12/12 11/11/11 
f 13/13/13 11/11/11 12/12/12 
f 12/12/12 14/14/14 13/13/13 
f 15/15/15 13/13/13 14/14/14 
f 14/14/14 16/16/16 15/15/15 
f 17/17/17 15/15/15 16/16/16 
f 16/16/16 18/18/18 17/17/17 
f 19/19/19 17/17/17 18/18/18 
f 18/18/18 20/20/20 19/19/19 
f 21/21/21 19/19/19 20/20/20 
f 20/20/20 22/22/22 21/21/21 
f 23/23/23 21/21/21 22/22/22 
f 22/22/22 24/24/24 23/23/23 
f 25/25/25 23/23/23 24/24/24 
f 24/24/24 26/26/26 25/25/25 
f 27/27/27 25/25/25 26/26/26 
f 26/26/26 28/28/28 27/27/27 
f 29/29/29 27/27/27 28/28/28 
f 28/28/28 30/30/30 29/29/29 
f 31/31/31 29/29/29 30/30/30 
f 30/30/30 32/32/32 31/31/31 
f 33/33/33 31/31/31 32/32/32 
f 32/32/32 34/34/34 33/33/33 
f 35/35/35 33/33/33 34/34/34 
f 34/34/34 36/36/36 35/35/35 
f 2/2/2 35/35/35 36/36/36 
f 36/36/36 3/3/3 2/2/2 
s 1
f 29/29/37 31/31/38 33/33/39 
f 33/33/39 35/35/40 2/2/41 
f 2/2/41 1/1/42 5/5/43 
f 33/33/39 2/2/41 5/5/43 
f 29/29/37 33/33/39 5/5/43 
f 5/5/43 7/7/44 9/9/45 
f 9/9/45 11/11/46 13/13/47 
f 5/5/43 9/9/45 13/13/47 
f 29/29/37 5/5/43 13/13/47 
f 13/13/47 15/15/48 17/17/49 
f 17/17/49 19/19/50 21/21/51 
f 13/13/47 17/17/49 21/21/51 
f 29/29/37 13/13/47 21/21/51 
f 21/21/51 23/23/52 25/25/53 
f 29/29/37 21/21/51 25/25/53 
f 29/29/37 25/25/53 27/27/54 
# 52 faces

