mtllib status_left.mtl

#
# object l_status
#

v  0.00904084 -0.00397914 0.14715414
v  0.00903086 -0.00081273 0.13911468
v  0.00604555 0.00048549 0.13968527
v  0.00617376 -0.00258162 0.14767231
v  0.00899191 -0.00703038 0.15455835
v  0.00624056 -0.00572890 0.15518296
v  0.00627534 -0.00872164 0.16181235
v  0.00893818 -0.00979383 0.16124041
v  0.00292986 -0.00192998 0.14796859
v  0.00257420 0.00127897 0.14007348
v  0.00327764 -0.00515752 0.15560853
v  0.00353042 -0.00829118 0.16221179
v  -0.00037464 -0.00175466 0.14804383
v  -0.00105404 0.00127911 0.14033261
v  0.00033390 -0.00525028 0.15580444
v  0.00084633 -0.00835937 0.16240095
v  -0.00334473 -0.00242176 0.14796817
v  -0.00414728 0.00057855 0.14035922
v  -0.00241504 -0.00583552 0.15571472
v  -0.00161626 -0.00893966 0.16243155
v  -0.00608716 -0.00372516 0.14774688
v  -0.00711748 -0.00064669 0.14015810
v  -0.00502756 -0.00687690 0.15547627
v  -0.00400973 -0.00986213 0.16233589
v  0.01146283 -0.00263002 0.13843302
v  0.01152019 -0.00589551 0.14638582
v  -0.01005211 -0.00259374 0.13974026
v  -0.00890251 -0.00567989 0.14731631
v  -0.00775855 -0.00870597 0.15500182
v  -0.01197835 -0.00482468 0.13927233
v  -0.01088154 -0.00770468 0.14666948
v  -0.00972840 -0.01079401 0.15441892
v  0.01136663 -0.00894382 0.15375383
v  0.01125482 -0.01164519 0.16047198
v  -0.00667552 -0.01166125 0.16201061
v  -0.00862262 -0.01379460 0.16143769
# 36 vertices

vn 0.55093908 0.77399218 0.31209344
vn 0.52992207 0.78927541 0.31020483
vn 0.33974206 0.87623405 0.34174442
vn 0.34181082 0.87385774 0.34574279
vn 0.56093889 0.76151776 0.32471269
vn 0.34711802 0.86002183 0.37399405
vn 0.31208813 0.87005496 0.38158259
vn 0.53800356 0.77773017 0.32509682
vn 0.13558555 0.91676033 0.37572220
vn 0.14062816 0.92111439 0.36300439
vn 0.11343714 0.90808403 0.40313202
vn 0.10425477 0.90249902 0.41788337
vn -0.07893720 0.91533893 0.39487165
vn -0.08979151 0.92350888 0.37291929
vn -0.09769087 0.90239298 0.41969448
vn -0.09940768 0.89704317 0.43061799
vn -0.31498399 0.86471105 0.39122882
vn -0.29489318 0.87486827 0.38424426
vn -0.28673622 0.85968751 0.42275268
vn -0.27591363 0.86159539 0.42605782
vn -0.49284557 0.78251767 0.38048589
vn -0.46647277 0.79424322 0.38933402
vn -0.46770924 0.78597939 0.40433246
vn -0.44834375 0.79440540 0.40976596
vn 0.62741888 0.72415251 0.28626680
vn 0.64210725 0.70859480 0.29256046
vn -0.64916915 0.66719818 0.36527544
vn -0.64811146 0.66894114 0.36396348
vn -0.64687681 0.66604203 0.37140077
vn -0.74687374 0.57470846 0.33449957
vn -0.72618884 0.59352064 0.34696293
vn -0.72850043 0.58820301 0.35114753
vn 0.65762669 0.69282597 0.29583654
vn 0.65432161 0.69778824 0.29146999
vn -0.64524627 0.66214657 0.38107663
vn -0.73502195 0.57386887 0.36113364
# 36 vertex normals

vt 0.86142683 0.63552189 0.42500544
vt 0.88292253 0.98024130 0.37118530
vt 0.77051276 0.98772240 0.66466236
vt 0.75424367 0.64617109 0.72814322
vt 0.83864915 0.31607294 0.45475388
vt 0.73549807 0.32099771 0.74813843
vt 0.71692067 0.03066587 0.73302984
vt 0.81766438 0.02765226 0.48025894
vt 0.62855351 0.65423870 0.90781260
vt 0.63643593 0.99525833 0.87660408
vt 0.62045872 0.32230806 0.91903925
vt 0.60984826 0.03013468 0.87641954
vt 0.49824852 0.66308641 0.99999809
vt 0.49227113 0.99547219 0.96001625
vt 0.50303948 0.32154751 0.97138834
vt 0.50285959 0.02931261 0.92739630
vt 0.37712270 0.66332436 0.94567728
vt 0.36601415 0.99176311 0.90967417
vt 0.39110807 0.32299662 0.92475557
vt 0.40222436 0.02565908 0.88446665
vt 0.26196477 0.65828896 0.77900791
vt 0.24219340 0.98782682 0.76058674
vt 0.28242573 0.32236290 0.79507732
vt 0.30271938 0.02107143 0.77884388
vt 0.97086906 0.97015238 -0.00000095
vt 0.95082450 0.62692666 0.03178406
vt 0.11634514 0.98039341 0.48461151
vt 0.14082083 0.65088224 0.49881983
vt 0.16528985 0.31831503 0.52981758
vt 0.02913085 0.96763134 0.14305544
vt 0.05267617 0.64806604 0.17799520
vt 0.07714543 0.31213474 0.20337105
vt 0.92393690 0.30913186 0.06143761
vt 0.90093023 0.02051926 0.10003471
vt 0.18820688 0.01184845 0.52711535
vt 0.10073140 0.00452805 0.19392729
# 36 texture coords

o l_status
g l_status
usemtl status
s 1
f 1/1/1 2/2/2 3/3/3 
f 3/3/3 4/4/4 1/1/1 
f 5/5/5 1/1/1 4/4/4 
f 4/4/4 6/6/6 5/5/5 
f 7/7/7 8/8/8 5/5/5 
f 5/5/5 6/6/6 7/7/7 
f 9/9/9 4/4/4 3/3/3 
f 3/3/3 10/10/10 9/9/9 
f 11/11/11 6/6/6 4/4/4 
f 4/4/4 9/9/9 11/11/11 
f 6/6/6 11/11/11 12/12/12 
f 12/12/12 7/7/7 6/6/6 
f 13/13/13 9/9/9 10/10/10 
f 10/10/10 14/14/14 13/13/13 
f 15/15/15 11/11/11 9/9/9 
f 9/9/9 13/13/13 15/15/15 
f 15/15/15 16/16/16 12/12/12 
f 12/12/12 11/11/11 15/15/15 
f 17/17/17 13/13/13 14/14/14 
f 14/14/14 18/18/18 17/17/17 
f 19/19/19 15/15/15 13/13/13 
f 13/13/13 17/17/17 19/19/19 
f 19/19/19 20/20/20 16/16/16 
f 16/16/16 15/15/15 19/19/19 
f 21/21/21 17/17/17 18/18/18 
f 18/18/18 22/22/22 21/21/21 
f 23/23/23 19/19/19 17/17/17 
f 17/17/17 21/21/21 23/23/23 
f 23/23/23 24/24/24 20/20/20 
f 20/20/20 19/19/19 23/23/23 
f 25/25/25 2/2/2 1/1/1 
f 1/1/1 26/26/26 25/25/25 
f 22/22/22 27/27/27 28/28/28 
f 28/28/28 21/21/21 22/22/22 
f 21/21/21 28/28/28 29/29/29 
f 29/29/29 23/23/23 21/21/21 
f 27/27/27 30/30/30 31/31/31 
f 31/31/31 28/28/28 27/27/27 
f 28/28/28 31/31/31 32/32/32 
f 32/32/32 29/29/29 28/28/28 
f 26/26/26 1/1/1 5/5/5 
f 5/5/5 33/33/33 26/26/26 
f 33/33/33 5/5/5 8/8/8 
f 8/8/8 34/34/34 33/33/33 
f 24/24/24 23/23/23 29/29/29 
f 29/29/29 35/35/35 24/24/24 
f 35/35/35 29/29/29 32/32/32 
f 32/32/32 36/36/36 35/35/35 
# 48 faces

