mtllib button_a.mtl

#
# object r_button_a
#

v  -0.019249 0.010176 0.058997
v  -0.017411 0.010049 0.058641
v  -0.019283 0.009974 0.058553
v  -0.019191 0.009772 0.058117
v  -0.018977 0.009585 0.057719
v  -0.018656 0.009424 0.057385
v  -0.018251 0.009302 0.057140
v  -0.017789 0.009226 0.056998
v  -0.017301 0.009202 0.056971
v  -0.016820 0.009231 0.057060
v  -0.016380 0.009312 0.057258
v  -0.016011 0.009438 0.057553
v  -0.015736 0.009601 0.057924
v  -0.015576 0.009790 0.058346
v  -0.015542 0.009993 0.058790
v  -0.015634 0.010195 0.059226
v  -0.015848 0.010382 0.059624
v  -0.016169 0.010543 0.059958
v  -0.016574 0.010665 0.060203
v  -0.017036 0.010741 0.060345
v  -0.017524 0.010765 0.060372
v  -0.018005 0.010736 0.060283
v  -0.018445 0.010655 0.060085
v  -0.018814 0.010529 0.059790
v  -0.019089 0.010366 0.059419
v  -0.021163 0.009582 0.058610
v  -0.021094 0.009987 0.059498
v  -0.020978 0.009178 0.057737
v  -0.020550 0.008803 0.056941
v  -0.019909 0.008482 0.056274
v  -0.019099 0.008238 0.055783
v  -0.018174 0.008086 0.055500
v  -0.017198 0.008038 0.055446
v  -0.016237 0.008096 0.055623
v  -0.015357 0.008257 0.056020
v  -0.014618 0.008509 0.056610
v  -0.014069 0.008836 0.057352
v  -0.013749 0.009215 0.058196
v  -0.013680 0.009620 0.059084
v  -0.013865 0.010023 0.059956
v  -0.014293 0.010398 0.060753
v  -0.014934 0.010719 0.061419
v  -0.015744 0.010963 0.061911
v  -0.016669 0.011115 0.062193
v  -0.017645 0.011163 0.062248
v  -0.018606 0.011105 0.062070
v  -0.019486 0.010944 0.061673
v  -0.020226 0.010692 0.061084
v  -0.020774 0.010365 0.060342
v  -0.021667 0.009391 0.058664
v  -0.021588 0.009850 0.059671
v  -0.021456 0.008933 0.057676
v  -0.020972 0.008508 0.056773
v  -0.020245 0.008145 0.056018
v  -0.019327 0.007868 0.055461
v  -0.018279 0.007697 0.055141
v  -0.017173 0.007642 0.055079
v  -0.016084 0.007708 0.055280
v  -0.015087 0.007890 0.055730
v  -0.014249 0.008176 0.056398
v  -0.013627 0.008546 0.057239
v  -0.013265 0.008975 0.058195
v  -0.013186 0.009434 0.059202
v  -0.013396 0.009892 0.060190
v  -0.013881 0.010317 0.061093
v  -0.014607 0.010680 0.061848
v  -0.015525 0.010957 0.062405
v  -0.016573 0.011128 0.062725
v  -0.017680 0.011183 0.062787
v  -0.018768 0.011117 0.062586
v  -0.019766 0.010935 0.062136
v  -0.020604 0.010649 0.061468
v  -0.021225 0.010279 0.060627
v  -0.021884 0.008936 0.058859
v  -0.021801 0.009417 0.059915
v  -0.021664 0.008456 0.057822
v  -0.021155 0.008010 0.056876
v  -0.020394 0.007629 0.056083
v  -0.019430 0.007339 0.055500
v  -0.018331 0.007159 0.055164
v  -0.017171 0.007102 0.055099
v  -0.016029 0.007171 0.055310
v  -0.014983 0.007362 0.055782
v  -0.014105 0.007661 0.056482
v  -0.013453 0.008050 0.057364
v  -0.013073 0.008500 0.058367
v  -0.012990 0.008981 0.059423
v  -0.013210 0.009461 0.060459
v  -0.013719 0.009907 0.061406
v  -0.014481 0.010288 0.062198
v  -0.015444 0.010578 0.062782
v  -0.016543 0.010758 0.063118
v  -0.017703 0.010815 0.063183
v  -0.018845 0.010746 0.062972
v  -0.019891 0.010555 0.062500
v  -0.020769 0.010255 0.061799
v  -0.021421 0.009867 0.060918
v  -0.021992 0.004434 0.060920
v  -0.021909 0.004915 0.061976
v  -0.021771 0.003954 0.059884
v  -0.021263 0.003509 0.058937
v  -0.020501 0.003128 0.058145
v  -0.019538 0.002837 0.057561
v  -0.018439 0.002657 0.057225
v  -0.017279 0.002600 0.057160
v  -0.016137 0.002669 0.057371
v  -0.015091 0.002860 0.057843
v  -0.014212 0.003160 0.058543
v  -0.013561 0.003548 0.059425
v  -0.013181 0.003998 0.060428
v  -0.013098 0.004479 0.061484
v  -0.013318 0.004959 0.062520
v  -0.013827 0.005405 0.063467
v  -0.014588 0.005786 0.064259
v  -0.015551 0.006076 0.064843
v  -0.016650 0.006256 0.065179
v  -0.017810 0.006314 0.065244
v  -0.018952 0.006244 0.065033
v  -0.019998 0.006053 0.064561
v  -0.020877 0.005754 0.063861
v  -0.021529 0.005365 0.062979
# 121 vertices

vn -0.112508 0.914548 -0.388514
vn 0.021750 0.909014 -0.416198
vn -0.115050 0.899764 -0.420938
vn -0.108281 0.885024 -0.452779
vn -0.092664 0.871335 -0.481860
vn -0.069271 0.859634 -0.506192
vn -0.039685 0.850714 -0.524129
vn -0.005924 0.845184 -0.534442
vn 0.029704 0.843419 -0.536435
vn 0.064783 0.845545 -0.529959
vn 0.096917 0.851413 -0.515464
vn 0.123904 0.860619 -0.493946
vn 0.143919 0.872545 -0.466854
vn 0.155598 0.886370 -0.436048
vn 0.158139 0.901156 -0.403621
vn 0.151376 0.915892 -0.371789
vn 0.135757 0.929582 -0.342707
vn 0.112359 0.941285 -0.318367
vn 0.082774 0.950205 -0.300432
vn 0.049012 0.955734 -0.290120
vn 0.013386 0.957497 -0.288131
vn -0.021695 0.955374 -0.294603
vn -0.053820 0.949507 -0.309095
vn -0.080812 0.940299 -0.330617
vn -0.100829 0.928375 -0.357706
vn -0.287197 0.863102 -0.415419
vn -0.281472 0.896430 -0.342325
vn -0.271951 0.829879 -0.487179
vn -0.236754 0.799026 -0.552724
vn -0.184008 0.772653 -0.607576
vn -0.117325 0.752542 -0.648009
vn -0.041224 0.740078 -0.671256
vn 0.039087 0.736104 -0.675739
vn 0.118150 0.740891 -0.661152
vn 0.190570 0.754113 -0.628487
vn 0.251409 0.774869 -0.579976
vn 0.296527 0.801751 -0.518909
vn 0.322851 0.832914 -0.449468
vn 0.328573 0.866247 -0.376373
vn 0.313328 0.899465 -0.304613
vn 0.278129 0.930317 -0.239070
vn 0.225386 0.956695 -0.184217
vn 0.158698 0.976801 -0.143791
vn 0.082605 0.989266 -0.120539
vn 0.002294 0.993241 -0.116051
vn -0.076770 0.988453 -0.130642
vn -0.149188 0.975230 -0.163306
vn -0.210036 0.954473 -0.211818
vn -0.255156 0.927595 -0.272879
vn -0.705854 0.624929 -0.333517
vn -0.692432 0.702972 -0.162384
vn -0.670141 0.547142 -0.501544
vn -0.587737 0.474907 -0.655002
vn -0.464236 0.413159 -0.783444
vn -0.308096 0.366073 -0.878104
vn -0.129926 0.336892 -0.932536
vn 0.058120 0.327590 -0.943031
vn 0.243229 0.338800 -0.908875
vn 0.412791 0.369755 -0.832397
vn 0.555247 0.418348 -0.718808
vn 0.660892 0.481280 -0.575839
vn 0.722520 0.554249 -0.413248
vn 0.735929 0.632291 -0.242108
vn 0.700217 0.710077 -0.074082
vn 0.617814 0.782308 0.079376
vn 0.494328 0.844069 0.207816
vn 0.338179 0.891146 0.302478
vn 0.160006 0.920333 0.356909
vn -0.028036 0.929638 0.367406
vn -0.213149 0.918428 0.333253
vn -0.382712 0.887470 0.256766
vn -0.525169 0.838866 0.143181
vn -0.630810 0.775937 0.000218
vn -0.975228 0.169578 -0.142033
vn -0.957002 0.275609 0.090476
vn -0.926709 0.063898 -0.370306
vn -0.814755 -0.034236 -0.578794
vn -0.646981 -0.118140 -0.753299
vn -0.434834 -0.182101 -0.881906
vn -0.192777 -0.221750 -0.955858
vn 0.062702 -0.234391 -0.970118
vn 0.314197 -0.219159 -0.923715
vn 0.544566 -0.177100 -0.819807
vn 0.738104 -0.111076 -0.665481
vn 0.881631 -0.025582 -0.471245
vn 0.965358 0.073555 -0.250347
vn 0.983583 0.179574 -0.017840
vn 0.935061 0.285262 0.210445
vn 0.823105 0.383395 0.418935
vn 0.655338 0.467303 0.593431
vn 0.443196 0.531257 0.722042
vn 0.201134 0.570912 0.795993
vn -0.054349 0.583557 0.810251
vn -0.305841 0.568330 0.763847
vn -0.536215 0.526267 0.659937
vn -0.729753 0.460236 0.505612
vn -0.873273 0.374744 0.311385
vn -0.997983 -0.005092 -0.063275
vn -0.979412 0.102940 0.173650
vn -0.948542 -0.112776 -0.295887
vn -0.834460 -0.212776 -0.508333
vn -0.663513 -0.298277 -0.686135
vn -0.447344 -0.363448 -0.817183
vn -0.200688 -0.403851 -0.892540
vn 0.059636 -0.416734 -0.907070
vn 0.315901 -0.401216 -0.859786
vn 0.550640 -0.358356 -0.753908
vn 0.747851 -0.291075 -0.596653
vn 0.894096 -0.203959 -0.398740
vn 0.979413 -0.102940 -0.173650
vn 0.997983 0.005093 0.063274
vn 0.948542 0.112778 0.295886
vn 0.834461 0.212778 0.508331
vn 0.663511 0.298278 0.686137
vn 0.447344 0.363450 0.817183
vn 0.200691 0.403853 0.892539
vn -0.059634 0.416735 0.907070
vn -0.315901 0.401218 0.859786
vn -0.550639 0.358357 0.753908
vn -0.747852 0.291075 0.596651
vn -0.894098 0.203958 0.398736
# 121 vertex normals

vt 0.051408 0.814108 0.948072
vt 0.060806 0.814108 1.000000
vt 0.051728 0.816541 0.948072
vt 0.052667 0.818807 0.948072
vt 0.054160 0.820754 0.948072
vt 0.056107 0.822247 0.948072
vt 0.058373 0.823186 0.948072
vt 0.060806 0.823506 0.948072
vt 0.063238 0.823186 0.948072
vt 0.065505 0.822247 0.948072
vt 0.067451 0.820754 0.948072
vt 0.068945 0.818807 0.948072
vt 0.069884 0.816541 0.948072
vt 0.070204 0.814108 0.948072
vt 0.069884 0.811676 0.948072
vt 0.068945 0.809409 0.948072
vt 0.067451 0.807463 0.948072
vt 0.065505 0.805969 0.948072
vt 0.063238 0.805030 0.948072
vt 0.060806 0.804710 0.948072
vt 0.058373 0.805030 0.948072
vt 0.056107 0.805969 0.948072
vt 0.054160 0.807463 0.948072
vt 0.052667 0.809409 0.948072
vt 0.051728 0.811676 0.948072
vt 0.042650 0.818973 0.948072
vt 0.042010 0.814108 0.948072
vt 0.044528 0.823506 0.948072
vt 0.047515 0.827399 0.948072
vt 0.051408 0.830386 0.948072
vt 0.055941 0.832264 0.948072
vt 0.060806 0.832904 0.948072
vt 0.065671 0.832264 0.948072
vt 0.070204 0.830386 0.948072
vt 0.074097 0.827399 0.948072
vt 0.077084 0.823506 0.948072
vt 0.078961 0.818973 0.948072
vt 0.079602 0.814108 0.948072
vt 0.078961 0.809243 0.948072
vt 0.077084 0.804710 0.948072
vt 0.074097 0.800817 0.948072
vt 0.070204 0.797830 0.948072
vt 0.065671 0.795953 0.948072
vt 0.060806 0.795312 0.948072
vt 0.055941 0.795953 0.948072
vt 0.051408 0.797830 0.948072
vt 0.047515 0.800817 0.948072
vt 0.044528 0.804710 0.948072
vt 0.042650 0.809243 0.948072
vt 0.040231 0.819621 0.913406
vt 0.039505 0.814108 0.913406
vt 0.042359 0.824758 0.913406
vt 0.045744 0.829170 0.913406
vt 0.050156 0.832555 0.913406
vt 0.055293 0.834683 0.913406
vt 0.060806 0.835409 0.913406
vt 0.066319 0.834683 0.913406
vt 0.071456 0.832555 0.913406
vt 0.075867 0.829170 0.913406
vt 0.079252 0.824758 0.913406
vt 0.081380 0.819621 0.913406
vt 0.082106 0.814108 0.913406
vt 0.081380 0.808595 0.913406
vt 0.079252 0.803458 0.913406
vt 0.075867 0.799047 0.913406
vt 0.071456 0.795662 0.913406
vt 0.066319 0.793534 0.913406
vt 0.060806 0.792808 0.913406
vt 0.055293 0.793534 0.913406
vt 0.050156 0.795662 0.913406
vt 0.045744 0.799047 0.913406
vt 0.042359 0.803458 0.913406
vt 0.040231 0.808595 0.913406
vt 0.039229 0.819890 0.829715
vt 0.038468 0.814108 0.829715
vt 0.041461 0.825277 0.829715
vt 0.045011 0.829903 0.829715
vt 0.049637 0.833453 0.829715
vt 0.055024 0.835685 0.829715
vt 0.060806 0.836446 0.829715
vt 0.066587 0.835685 0.829715
vt 0.071975 0.833453 0.829715
vt 0.076601 0.829903 0.829715
vt 0.080151 0.825277 0.829715
vt 0.082382 0.819890 0.829715
vt 0.083143 0.814108 0.829715
vt 0.082382 0.808327 0.829715
vt 0.080151 0.802939 0.829715
vt 0.076601 0.798313 0.829715
vt 0.071975 0.794763 0.829715
vt 0.066587 0.792532 0.829715
vt 0.060806 0.791771 0.829715
vt 0.055024 0.792532 0.829715
vt 0.049637 0.794763 0.829715
vt 0.045011 0.798313 0.829715
vt 0.041461 0.802939 0.829715
vt 0.039229 0.808327 0.829715
vt 0.027900 0.822976 0.000000
vt 0.026736 0.814108 0.000000
vt 0.031314 0.831240 0.000000
vt 0.036743 0.838337 0.000000
vt 0.043820 0.843782 0.000000
vt 0.052060 0.847205 0.000000
vt 0.060903 0.848372 0.000000
vt 0.069746 0.847205 0.000000
vt 0.077986 0.843782 0.000000
vt 0.085063 0.838337 0.000000
vt 0.090492 0.831240 0.000000
vt 0.093906 0.822976 0.000000
vt 0.095070 0.814108 0.000000
vt 0.093906 0.805240 0.000000
vt 0.090492 0.796976 0.000000
vt 0.085063 0.789880 0.000000
vt 0.077986 0.784435 0.000000
vt 0.069746 0.781012 0.000000
vt 0.060903 0.779844 0.000000
vt 0.052060 0.781012 0.000000
vt 0.043820 0.784435 0.000000
vt 0.036743 0.789880 0.000000
vt 0.031314 0.796976 0.000000
vt 0.027900 0.805240 0.000000
# 121 texture coords

o r_button_a
g r_button_a
usemtl knuckles_right
s 4
f 1/1/1 2/2/2 3/3/3 
f 3/3/3 2/2/2 4/4/4 
f 4/4/4 2/2/2 5/5/5 
f 5/5/5 2/2/2 6/6/6 
f 6/6/6 2/2/2 7/7/7 
f 7/7/7 2/2/2 8/8/8 
f 8/8/8 2/2/2 9/9/9 
f 9/9/9 2/2/2 10/10/10 
f 10/10/10 2/2/2 11/11/11 
f 11/11/11 2/2/2 12/12/12 
f 12/12/12 2/2/2 13/13/13 
f 13/13/13 2/2/2 14/14/14 
f 14/14/14 2/2/2 15/15/15 
f 15/15/15 2/2/2 16/16/16 
f 16/16/16 2/2/2 17/17/17 
f 17/17/17 2/2/2 18/18/18 
f 18/18/18 2/2/2 19/19/19 
f 19/19/19 2/2/2 20/20/20 
f 20/20/20 2/2/2 21/21/21 
f 21/21/21 2/2/2 22/22/22 
f 22/22/22 2/2/2 23/23/23 
f 23/23/23 2/2/2 24/24/24 
f 24/24/24 2/2/2 25/25/25 
f 25/25/25 2/2/2 1/1/1 
f 1/1/1 3/3/3 26/26/26 
f 26/26/26 27/27/27 1/1/1 
f 3/3/3 4/4/4 28/28/28 
f 28/28/28 26/26/26 3/3/3 
f 4/4/4 5/5/5 29/29/29 
f 29/29/29 28/28/28 4/4/4 
f 5/5/5 6/6/6 30/30/30 
f 30/30/30 29/29/29 5/5/5 
f 6/6/6 7/7/7 31/31/31 
f 31/31/31 30/30/30 6/6/6 
f 7/7/7 8/8/8 32/32/32 
f 32/32/32 31/31/31 7/7/7 
f 8/8/8 9/9/9 33/33/33 
f 33/33/33 32/32/32 8/8/8 
f 9/9/9 10/10/10 34/34/34 
f 34/34/34 33/33/33 9/9/9 
f 10/10/10 11/11/11 35/35/35 
f 35/35/35 34/34/34 10/10/10 
f 11/11/11 12/12/12 36/36/36 
f 36/36/36 35/35/35 11/11/11 
f 12/12/12 13/13/13 37/37/37 
f 37/37/37 36/36/36 12/12/12 
f 13/13/13 14/14/14 38/38/38 
f 38/38/38 37/37/37 13/13/13 
f 14/14/14 15/15/15 39/39/39 
f 39/39/39 38/38/38 14/14/14 
f 15/15/15 16/16/16 40/40/40 
f 40/40/40 39/39/39 15/15/15 
f 16/16/16 17/17/17 41/41/41 
f 41/41/41 40/40/40 16/16/16 
f 17/17/17 18/18/18 42/42/42 
f 42/42/42 41/41/41 17/17/17 
f 18/18/18 19/19/19 43/43/43 
f 43/43/43 42/42/42 18/18/18 
f 19/19/19 20/20/20 44/44/44 
f 44/44/44 43/43/43 19/19/19 
f 20/20/20 21/21/21 45/45/45 
f 45/45/45 44/44/44 20/20/20 
f 21/21/21 22/22/22 46/46/46 
f 46/46/46 45/45/45 21/21/21 
f 22/22/22 23/23/23 47/47/47 
f 47/47/47 46/46/46 22/22/22 
f 23/23/23 24/24/24 48/48/48 
f 48/48/48 47/47/47 23/23/23 
f 24/24/24 25/25/25 49/49/49 
f 49/49/49 48/48/48 24/24/24 
f 25/25/25 1/1/1 27/27/27 
f 27/27/27 49/49/49 25/25/25 
f 27/27/27 26/26/26 50/50/50 
f 50/50/50 51/51/51 27/27/27 
f 26/26/26 28/28/28 52/52/52 
f 52/52/52 50/50/50 26/26/26 
f 28/28/28 29/29/29 53/53/53 
f 53/53/53 52/52/52 28/28/28 
f 29/29/29 30/30/30 54/54/54 
f 54/54/54 53/53/53 29/29/29 
f 30/30/30 31/31/31 55/55/55 
f 55/55/55 54/54/54 30/30/30 
f 31/31/31 32/32/32 56/56/56 
f 56/56/56 55/55/55 31/31/31 
f 32/32/32 33/33/33 57/57/57 
f 57/57/57 56/56/56 32/32/32 
f 33/33/33 34/34/34 58/58/58 
f 58/58/58 57/57/57 33/33/33 
f 34/34/34 35/35/35 59/59/59 
f 59/59/59 58/58/58 34/34/34 
f 35/35/35 36/36/36 60/60/60 
f 60/60/60 59/59/59 35/35/35 
f 36/36/36 37/37/37 61/61/61 
f 61/61/61 60/60/60 36/36/36 
f 37/37/37 38/38/38 62/62/62 
f 62/62/62 61/61/61 37/37/37 
f 38/38/38 39/39/39 63/63/63 
f 63/63/63 62/62/62 38/38/38 
f 39/39/39 40/40/40 64/64/64 
f 64/64/64 63/63/63 39/39/39 
f 40/40/40 41/41/41 65/65/65 
f 65/65/65 64/64/64 40/40/40 
f 41/41/41 42/42/42 66/66/66 
f 66/66/66 65/65/65 41/41/41 
f 42/42/42 43/43/43 67/67/67 
f 67/67/67 66/66/66 42/42/42 
f 43/43/43 44/44/44 68/68/68 
f 68/68/68 67/67/67 43/43/43 
f 44/44/44 45/45/45 69/69/69 
f 69/69/69 68/68/68 44/44/44 
f 45/45/45 46/46/46 70/70/70 
f 70/70/70 69/69/69 45/45/45 
f 46/46/46 47/47/47 71/71/71 
f 71/71/71 70/70/70 46/46/46 
f 47/47/47 48/48/48 72/72/72 
f 72/72/72 71/71/71 47/47/47 
f 48/48/48 49/49/49 73/73/73 
f 73/73/73 72/72/72 48/48/48 
f 49/49/49 27/27/27 51/51/51 
f 51/51/51 73/73/73 49/49/49 
s 2147483652
f 51/51/51 50/50/50 74/74/74 
f 74/74/74 75/75/75 51/51/51 
f 50/50/50 52/52/52 76/76/76 
f 76/76/76 74/74/74 50/50/50 
f 52/52/52 53/53/53 77/77/77 
f 77/77/77 76/76/76 52/52/52 
f 53/53/53 54/54/54 78/78/78 
f 78/78/78 77/77/77 53/53/53 
f 54/54/54 55/55/55 79/79/79 
f 79/79/79 78/78/78 54/54/54 
f 55/55/55 56/56/56 80/80/80 
f 80/80/80 79/79/79 55/55/55 
f 56/56/56 57/57/57 81/81/81 
f 81/81/81 80/80/80 56/56/56 
f 57/57/57 58/58/58 82/82/82 
f 82/82/82 81/81/81 57/57/57 
f 58/58/58 59/59/59 83/83/83 
f 83/83/83 82/82/82 58/58/58 
f 59/59/59 60/60/60 84/84/84 
f 84/84/84 83/83/83 59/59/59 
f 60/60/60 61/61/61 85/85/85 
f 85/85/85 84/84/84 60/60/60 
f 61/61/61 62/62/62 86/86/86 
f 86/86/86 85/85/85 61/61/61 
f 62/62/62 63/63/63 87/87/87 
f 87/87/87 86/86/86 62/62/62 
f 63/63/63 64/64/64 88/88/88 
f 88/88/88 87/87/87 63/63/63 
f 64/64/64 65/65/65 89/89/89 
f 89/89/89 88/88/88 64/64/64 
f 65/65/65 66/66/66 90/90/90 
f 90/90/90 89/89/89 65/65/65 
f 66/66/66 67/67/67 91/91/91 
f 91/91/91 90/90/90 66/66/66 
f 67/67/67 68/68/68 92/92/92 
f 92/92/92 91/91/91 67/67/67 
f 68/68/68 69/69/69 93/93/93 
f 93/93/93 92/92/92 68/68/68 
f 69/69/69 70/70/70 94/94/94 
f 94/94/94 93/93/93 69/69/69 
f 70/70/70 71/71/71 95/95/95 
f 95/95/95 94/94/94 70/70/70 
f 71/71/71 72/72/72 96/96/96 
f 96/96/96 95/95/95 71/71/71 
f 72/72/72 73/73/73 97/97/97 
f 97/97/97 96/96/96 72/72/72 
f 73/73/73 51/51/51 75/75/75 
f 75/75/75 97/97/97 73/73/73 
s 4
f 75/75/75 74/74/74 98/98/98 
f 98/98/98 99/99/99 75/75/75 
f 74/74/74 76/76/76 100/100/100 
f 100/100/100 98/98/98 74/74/74 
f 76/76/76 77/77/77 101/101/101 
f 101/101/101 100/100/100 76/76/76 
f 77/77/77 78/78/78 102/102/102 
f 102/102/102 101/101/101 77/77/77 
f 78/78/78 79/79/79 103/103/103 
f 103/103/103 102/102/102 78/78/78 
f 79/79/79 80/80/80 104/104/104 
f 104/104/104 103/103/103 79/79/79 
f 80/80/80 81/81/81 105/105/105 
f 105/105/105 104/104/104 80/80/80 
f 81/81/81 82/82/82 106/106/106 
f 106/106/106 105/105/105 81/81/81 
f 82/82/82 83/83/83 107/107/107 
f 107/107/107 106/106/106 82/82/82 
f 83/83/83 84/84/84 108/108/108 
f 108/108/108 107/107/107 83/83/83 
f 84/84/84 85/85/85 109/109/109 
f 109/109/109 108/108/108 84/84/84 
f 85/85/85 86/86/86 110/110/110 
f 110/110/110 109/109/109 85/85/85 
f 86/86/86 87/87/87 111/111/111 
f 111/111/111 110/110/110 86/86/86 
f 87/87/87 88/88/88 112/112/112 
f 112/112/112 111/111/111 87/87/87 
f 88/88/88 89/89/89 113/113/113 
f 113/113/113 112/112/112 88/88/88 
f 89/89/89 90/90/90 114/114/114 
f 114/114/114 113/113/113 89/89/89 
f 90/90/90 91/91/91 115/115/115 
f 115/115/115 114/114/114 90/90/90 
f 91/91/91 92/92/92 116/116/116 
f 116/116/116 115/115/115 91/91/91 
f 92/92/92 93/93/93 117/117/117 
f 117/117/117 116/116/116 92/92/92 
f 93/93/93 94/94/94 118/118/118 
f 118/118/118 117/117/117 93/93/93 
f 94/94/94 95/95/95 119/119/119 
f 119/119/119 118/118/118 94/94/94 
f 95/95/95 96/96/96 120/120/120 
f 120/120/120 119/119/119 95/95/95 
f 96/96/96 97/97/97 121/121/121 
f 121/121/121 120/120/120 96/96/96 
f 97/97/97 75/75/75 99/99/99 
f 99/99/99 121/121/121 97/97/97 
# 216 faces

