mtllib button_b.mtl

#
# object r_button_b
#

v  -0.021851 0.005369 0.047169
v  -0.020013 0.005242 0.046813
v  -0.021886 0.005167 0.046725
v  -0.021793 0.004965 0.046289
v  -0.021579 0.004777 0.045890
v  -0.021259 0.004617 0.045557
v  -0.020854 0.004495 0.045311
v  -0.020391 0.004419 0.045170
v  -0.019903 0.004395 0.045143
v  -0.019423 0.004424 0.045231
v  -0.018983 0.004505 0.045430
v  -0.018613 0.004631 0.045725
v  -0.018339 0.004794 0.046096
v  -0.018179 0.004983 0.046518
v  -0.018144 0.005186 0.046962
v  -0.018237 0.005388 0.047398
v  -0.018451 0.005575 0.047796
v  -0.018771 0.005736 0.048130
v  -0.019176 0.005858 0.048375
v  -0.019639 0.005933 0.048516
v  -0.020127 0.005958 0.048544
v  -0.020607 0.005928 0.048455
v  -0.021047 0.005848 0.048257
v  -0.021417 0.005722 0.047962
v  -0.021691 0.005559 0.047591
v  -0.023766 0.004774 0.046781
v  -0.023696 0.005179 0.047670
v  -0.023580 0.004371 0.045909
v  -0.023153 0.003996 0.045113
v  -0.022512 0.003675 0.044446
v  -0.021701 0.003431 0.043955
v  -0.020777 0.003279 0.043672
v  -0.019800 0.003231 0.043618
v  -0.018840 0.003289 0.043795
v  -0.017959 0.003450 0.044192
v  -0.017220 0.003702 0.044781
v  -0.016672 0.004029 0.045524
v  -0.016352 0.004408 0.046367
v  -0.016282 0.004813 0.047256
v  -0.016468 0.005216 0.048128
v  -0.016895 0.005591 0.048924
v  -0.017536 0.005912 0.049591
v  -0.018347 0.006156 0.050082
v  -0.019272 0.006308 0.050365
v  -0.020248 0.006356 0.050419
v  -0.021208 0.006298 0.050242
v  -0.022089 0.006137 0.049845
v  -0.022828 0.005885 0.049256
v  -0.023376 0.005558 0.048514
v  -0.024269 0.004584 0.046836
v  -0.024190 0.005043 0.047842
v  -0.024059 0.004126 0.045847
v  -0.023574 0.003701 0.044945
v  -0.022848 0.003338 0.044189
v  -0.021929 0.003061 0.043633
v  -0.020881 0.002889 0.043312
v  -0.019775 0.002835 0.043251
v  -0.018686 0.002901 0.043451
v  -0.017689 0.003083 0.043901
v  -0.016851 0.003369 0.044570
v  -0.016230 0.003739 0.045410
v  -0.015867 0.004168 0.046367
v  -0.015788 0.004627 0.047373
v  -0.015998 0.005085 0.048362
v  -0.016483 0.005509 0.049264
v  -0.017209 0.005873 0.050020
v  -0.018128 0.006150 0.050577
v  -0.019176 0.006321 0.050897
v  -0.020282 0.006376 0.050959
v  -0.021371 0.006310 0.050758
v  -0.022368 0.006128 0.050308
v  -0.023206 0.005842 0.049640
v  -0.023827 0.005472 0.048799
v  -0.024486 0.004129 0.047031
v  -0.024403 0.004610 0.048086
v  -0.024266 0.003649 0.045994
v  -0.023758 0.003203 0.045048
v  -0.022996 0.002822 0.044255
v  -0.022033 0.002532 0.043671
v  -0.020934 0.002352 0.043336
v  -0.019774 0.002294 0.043271
v  -0.018632 0.002364 0.043481
v  -0.017586 0.002555 0.043953
v  -0.016707 0.002854 0.044654
v  -0.016055 0.003243 0.045536
v  -0.015675 0.003693 0.046539
v  -0.015593 0.004174 0.047594
v  -0.015813 0.004654 0.048631
v  -0.016321 0.005099 0.049578
v  -0.017083 0.005480 0.050370
v  -0.018046 0.005771 0.050954
v  -0.019145 0.005951 0.051290
v  -0.020305 0.006008 0.051354
v  -0.021447 0.005939 0.051144
v  -0.022493 0.005748 0.050672
v  -0.023372 0.005448 0.049971
v  -0.024023 0.005060 0.049089
v  -0.024594 -0.000373 0.049092
v  -0.024511 0.000108 0.050147
v  -0.024374 -0.000853 0.048055
v  -0.023865 -0.001299 0.047109
v  -0.023104 -0.001680 0.046316
v  -0.022140 -0.001970 0.045732
v  -0.021041 -0.002150 0.045397
v  -0.019881 -0.002207 0.045332
v  -0.018740 -0.002138 0.045543
v  -0.017694 -0.001947 0.046014
v  -0.016815 -0.001647 0.046715
v  -0.016163 -0.001259 0.047597
v  -0.015783 -0.000809 0.048600
v  -0.015700 -0.000328 0.049656
v  -0.015921 0.000152 0.050692
v  -0.016429 0.000598 0.051639
v  -0.017191 0.000979 0.052431
v  -0.018154 0.001269 0.053015
v  -0.019253 0.001449 0.053351
v  -0.020413 0.001506 0.053415
v  -0.021555 0.001437 0.053205
v  -0.022601 0.001246 0.052733
v  -0.023479 0.000946 0.052032
v  -0.024131 0.000558 0.051150
# 121 vertices

vn -0.112507 0.914549 -0.388513
vn 0.021749 0.909014 -0.416198
vn -0.115051 0.899762 -0.420941
vn -0.108282 0.885023 -0.452780
vn -0.092667 0.871336 -0.481857
vn -0.069270 0.859633 -0.506194
vn -0.039690 0.850715 -0.524127
vn -0.005926 0.845183 -0.534444
vn 0.029713 0.843421 -0.536432
vn 0.064777 0.845544 -0.529962
vn 0.096917 0.851412 -0.515466
vn 0.123907 0.860621 -0.493942
vn 0.143920 0.872543 -0.466858
vn 0.155596 0.886370 -0.436048
vn 0.158138 0.901157 -0.403620
vn 0.151375 0.915892 -0.371790
vn 0.135765 0.929578 -0.342712
vn 0.112359 0.941285 -0.318367
vn 0.082767 0.950205 -0.300433
vn 0.049012 0.955735 -0.290119
vn 0.013379 0.957496 -0.288135
vn -0.021693 0.955374 -0.294602
vn -0.053819 0.949507 -0.309094
vn -0.080814 0.940297 -0.330621
vn -0.100831 0.928375 -0.357704
vn -0.287206 0.863100 -0.415416
vn -0.281473 0.896430 -0.342324
vn -0.271953 0.829877 -0.487182
vn -0.236758 0.799025 -0.552724
vn -0.184014 0.772648 -0.607580
vn -0.117324 0.752544 -0.648007
vn -0.041230 0.740077 -0.671257
vn 0.039090 0.736105 -0.675737
vn 0.118148 0.740891 -0.661151
vn 0.190568 0.754116 -0.628485
vn 0.251413 0.774871 -0.579971
vn 0.296531 0.801747 -0.518914
vn 0.322858 0.832908 -0.449474
vn 0.328584 0.866242 -0.376373
vn 0.313328 0.899466 -0.304608
vn 0.278135 0.930316 -0.239065
vn 0.225389 0.956695 -0.184214
vn 0.158701 0.976801 -0.143784
vn 0.082608 0.989266 -0.120534
vn 0.002290 0.993241 -0.116049
vn -0.076772 0.988453 -0.130642
vn -0.149188 0.975231 -0.163301
vn -0.210034 0.954472 -0.211823
vn -0.255150 0.927595 -0.272883
vn -0.705843 0.624939 -0.333522
vn -0.692429 0.702975 -0.162384
vn -0.670122 0.547157 -0.501553
vn -0.587738 0.474903 -0.655005
vn -0.464243 0.413155 -0.783442
vn -0.308096 0.366080 -0.878102
vn -0.129932 0.336887 -0.932537
vn 0.058122 0.327587 -0.943032
vn 0.243230 0.338795 -0.908877
vn 0.412790 0.369762 -0.832394
vn 0.555245 0.418360 -0.718803
vn 0.660882 0.481297 -0.575837
vn 0.722517 0.554249 -0.413253
vn 0.735925 0.632295 -0.242110
vn 0.700223 0.710070 -0.074080
vn 0.617810 0.782311 0.079378
vn 0.494325 0.844071 0.207812
vn 0.338181 0.891145 0.302479
vn 0.160005 0.920339 0.356896
vn -0.028032 0.929634 0.367417
vn -0.213150 0.918430 0.333247
vn -0.382710 0.887469 0.256773
vn -0.525168 0.838868 0.143176
vn -0.630809 0.775938 0.000211
vn -0.975226 0.169594 -0.142030
vn -0.957002 0.275611 0.090481
vn -0.926699 0.063919 -0.370328
vn -0.814749 -0.034239 -0.578801
vn -0.646986 -0.118138 -0.753294
vn -0.434837 -0.182094 -0.881906
vn -0.192781 -0.221754 -0.955856
vn 0.062700 -0.234395 -0.970117
vn 0.314196 -0.219166 -0.923714
vn 0.544563 -0.177100 -0.819809
vn 0.738103 -0.111071 -0.665482
vn 0.881629 -0.025565 -0.471250
vn 0.965356 0.073563 -0.250352
vn 0.983579 0.179592 -0.017839
vn 0.935062 0.285258 0.210444
vn 0.823103 0.383402 0.418931
vn 0.655338 0.467306 0.593429
vn 0.443198 0.531261 0.722037
vn 0.201130 0.570925 0.795984
vn -0.054347 0.583556 0.810252
vn -0.305842 0.568331 0.763846
vn -0.536209 0.526268 0.659941
vn -0.729752 0.460237 0.505612
vn -0.873277 0.374739 0.311381
vn -0.997984 -0.005091 -0.063269
vn -0.979413 0.102940 0.173647
vn -0.948542 -0.112779 -0.295886
vn -0.834457 -0.212778 -0.508337
vn -0.663517 -0.298273 -0.686133
vn -0.447345 -0.363448 -0.817183
vn -0.200688 -0.403852 -0.892540
vn 0.059637 -0.416734 -0.907070
vn 0.315902 -0.401216 -0.859786
vn 0.550638 -0.358357 -0.753909
vn 0.747851 -0.291075 -0.596652
vn 0.894098 -0.203958 -0.398736
vn 0.979413 -0.102941 -0.173648
vn 0.997983 0.005090 0.063273
vn 0.948542 0.112778 0.295885
vn 0.834461 0.212778 0.508330
vn 0.663511 0.298278 0.686137
vn 0.447345 0.363450 0.817182
vn 0.200692 0.403853 0.892539
vn -0.059637 0.416735 0.907070
vn -0.315905 0.401217 0.859784
vn -0.550641 0.358356 0.753907
vn -0.747848 0.291075 0.596656
vn -0.894097 0.203957 0.398738
# 121 vertex normals

vt 0.051236 0.903095 0.948072
vt 0.060584 0.903095 1.000000
vt 0.051554 0.905514 0.948072
vt 0.052488 0.907769 0.948072
vt 0.053974 0.909705 0.948072
vt 0.055910 0.911191 0.948072
vt 0.058165 0.912125 0.948072
vt 0.060584 0.912443 0.948072
vt 0.063004 0.912125 0.948072
vt 0.065258 0.911191 0.948072
vt 0.067194 0.909705 0.948072
vt 0.068680 0.907769 0.948072
vt 0.069614 0.905514 0.948072
vt 0.069932 0.903095 0.948072
vt 0.069614 0.900675 0.948072
vt 0.068680 0.898421 0.948072
vt 0.067194 0.896485 0.948072
vt 0.065258 0.894999 0.948072
vt 0.063004 0.894065 0.948072
vt 0.060584 0.893747 0.948072
vt 0.058165 0.894065 0.948072
vt 0.055910 0.894999 0.948072
vt 0.053974 0.896485 0.948072
vt 0.052488 0.898421 0.948072
vt 0.051554 0.900675 0.948072
vt 0.042525 0.907934 0.948072
vt 0.041888 0.903095 0.948072
vt 0.044392 0.912443 0.948072
vt 0.047364 0.916315 0.948072
vt 0.051236 0.919287 0.948072
vt 0.055745 0.921154 0.948072
vt 0.060584 0.921791 0.948072
vt 0.065423 0.921154 0.948072
vt 0.069932 0.919287 0.948072
vt 0.073804 0.916315 0.948072
vt 0.076776 0.912443 0.948072
vt 0.078644 0.907934 0.948072
vt 0.079281 0.903095 0.948072
vt 0.078644 0.898256 0.948072
vt 0.076776 0.893747 0.948072
vt 0.073805 0.889875 0.948072
vt 0.069932 0.886903 0.948072
vt 0.065423 0.885035 0.948072
vt 0.060584 0.884398 0.948072
vt 0.055745 0.885035 0.948072
vt 0.051236 0.886903 0.948072
vt 0.047364 0.889874 0.948072
vt 0.044392 0.893747 0.948072
vt 0.042525 0.898256 0.948072
vt 0.040119 0.908579 0.913406
vt 0.039397 0.903095 0.913406
vt 0.042235 0.913689 0.913406
vt 0.045602 0.918077 0.913406
vt 0.049990 0.921444 0.913406
vt 0.055100 0.923561 0.913406
vt 0.060584 0.924282 0.913406
vt 0.066068 0.923561 0.913406
vt 0.071178 0.921444 0.913406
vt 0.075566 0.918077 0.913406
vt 0.078933 0.913689 0.913406
vt 0.081050 0.908579 0.913406
vt 0.081772 0.903095 0.913406
vt 0.081050 0.897611 0.913406
vt 0.078933 0.892501 0.913406
vt 0.075566 0.888113 0.913406
vt 0.071178 0.884746 0.913406
vt 0.066068 0.882629 0.913406
vt 0.060584 0.881907 0.913406
vt 0.055100 0.882629 0.913406
vt 0.049990 0.884746 0.913406
vt 0.045602 0.888113 0.913406
vt 0.042235 0.892501 0.913406
vt 0.040119 0.897611 0.913406
vt 0.039122 0.908846 0.829715
vt 0.038365 0.903095 0.829715
vt 0.041342 0.914205 0.829715
vt 0.044873 0.918806 0.829715
vt 0.049474 0.922337 0.829715
vt 0.054833 0.924557 0.829715
vt 0.060584 0.925314 0.829715
vt 0.066335 0.924557 0.829715
vt 0.071694 0.922337 0.829715
vt 0.076296 0.918806 0.829715
vt 0.079827 0.914205 0.829715
vt 0.082046 0.908846 0.829715
vt 0.082803 0.903095 0.829715
vt 0.082046 0.897344 0.829715
vt 0.079827 0.891985 0.829715
vt 0.076296 0.887384 0.829715
vt 0.071694 0.883852 0.829715
vt 0.066335 0.881633 0.829715
vt 0.060584 0.880876 0.829715
vt 0.054833 0.881633 0.829715
vt 0.049474 0.883852 0.829715
vt 0.044873 0.887383 0.829715
vt 0.041342 0.891985 0.829715
vt 0.039122 0.897344 0.829715
vt 0.028372 0.911807 0.000000
vt 0.027229 0.902998 0.000000
vt 0.031724 0.920015 0.000000
vt 0.037055 0.927064 0.000000
vt 0.044004 0.932473 0.000000
vt 0.052095 0.935873 0.000000
vt 0.060778 0.937033 0.000000
vt 0.069462 0.935873 0.000000
vt 0.077553 0.932473 0.000000
vt 0.084501 0.927064 0.000000
vt 0.089833 0.920015 0.000000
vt 0.093185 0.911807 0.000000
vt 0.094328 0.902998 0.000000
vt 0.093185 0.894189 0.000000
vt 0.089833 0.885980 0.000000
vt 0.084501 0.878931 0.000000
vt 0.077553 0.873522 0.000000
vt 0.069462 0.870122 0.000000
vt 0.060778 0.868962 0.000000
vt 0.052095 0.870122 0.000000
vt 0.044004 0.873522 0.000000
vt 0.037055 0.878931 0.000000
vt 0.031724 0.885980 0.000000
vt 0.028372 0.894189 0.000000
# 121 texture coords

o r_button_b
g r_button_b
usemtl knuckles_right
s 2147483652
f 1/1/1 2/2/2 3/3/3 
f 3/3/3 2/2/2 4/4/4 
f 4/4/4 2/2/2 5/5/5 
f 5/5/5 2/2/2 6/6/6 
f 6/6/6 2/2/2 7/7/7 
f 7/7/7 2/2/2 8/8/8 
f 8/8/8 2/2/2 9/9/9 
f 9/9/9 2/2/2 10/10/10 
f 10/10/10 2/2/2 11/11/11 
f 11/11/11 2/2/2 12/12/12 
f 12/12/12 2/2/2 13/13/13 
f 13/13/13 2/2/2 14/14/14 
f 14/14/14 2/2/2 15/15/15 
f 15/15/15 2/2/2 16/16/16 
f 16/16/16 2/2/2 17/17/17 
f 17/17/17 2/2/2 18/18/18 
f 18/18/18 2/2/2 19/19/19 
f 19/19/19 2/2/2 20/20/20 
f 20/20/20 2/2/2 21/21/21 
f 21/21/21 2/2/2 22/22/22 
f 22/22/22 2/2/2 23/23/23 
f 23/23/23 2/2/2 24/24/24 
f 24/24/24 2/2/2 25/25/25 
f 25/25/25 2/2/2 1/1/1 
f 1/1/1 3/3/3 26/26/26 
f 26/26/26 27/27/27 1/1/1 
f 3/3/3 4/4/4 28/28/28 
f 28/28/28 26/26/26 3/3/3 
f 4/4/4 5/5/5 29/29/29 
f 29/29/29 28/28/28 4/4/4 
f 5/5/5 6/6/6 30/30/30 
f 30/30/30 29/29/29 5/5/5 
f 6/6/6 7/7/7 31/31/31 
f 31/31/31 30/30/30 6/6/6 
f 7/7/7 8/8/8 32/32/32 
f 32/32/32 31/31/31 7/7/7 
f 8/8/8 9/9/9 33/33/33 
f 33/33/33 32/32/32 8/8/8 
f 9/9/9 10/10/10 34/34/34 
f 34/34/34 33/33/33 9/9/9 
f 10/10/10 11/11/11 35/35/35 
f 35/35/35 34/34/34 10/10/10 
f 11/11/11 12/12/12 36/36/36 
f 36/36/36 35/35/35 11/11/11 
f 12/12/12 13/13/13 37/37/37 
f 37/37/37 36/36/36 12/12/12 
f 13/13/13 14/14/14 38/38/38 
f 38/38/38 37/37/37 13/13/13 
f 14/14/14 15/15/15 39/39/39 
f 39/39/39 38/38/38 14/14/14 
f 15/15/15 16/16/16 40/40/40 
f 40/40/40 39/39/39 15/15/15 
f 16/16/16 17/17/17 41/41/41 
f 41/41/41 40/40/40 16/16/16 
f 17/17/17 18/18/18 42/42/42 
f 42/42/42 41/41/41 17/17/17 
f 18/18/18 19/19/19 43/43/43 
f 43/43/43 42/42/42 18/18/18 
f 19/19/19 20/20/20 44/44/44 
f 44/44/44 43/43/43 19/19/19 
f 20/20/20 21/21/21 45/45/45 
f 45/45/45 44/44/44 20/20/20 
f 21/21/21 22/22/22 46/46/46 
f 46/46/46 45/45/45 21/21/21 
f 22/22/22 23/23/23 47/47/47 
f 47/47/47 46/46/46 22/22/22 
f 23/23/23 24/24/24 48/48/48 
f 48/48/48 47/47/47 23/23/23 
f 24/24/24 25/25/25 49/49/49 
f 49/49/49 48/48/48 24/24/24 
f 25/25/25 1/1/1 27/27/27 
f 27/27/27 49/49/49 25/25/25 
f 27/27/27 26/26/26 50/50/50 
f 50/50/50 51/51/51 27/27/27 
f 26/26/26 28/28/28 52/52/52 
f 52/52/52 50/50/50 26/26/26 
f 28/28/28 29/29/29 53/53/53 
f 53/53/53 52/52/52 28/28/28 
f 29/29/29 30/30/30 54/54/54 
f 54/54/54 53/53/53 29/29/29 
f 30/30/30 31/31/31 55/55/55 
f 55/55/55 54/54/54 30/30/30 
f 31/31/31 32/32/32 56/56/56 
f 56/56/56 55/55/55 31/31/31 
f 32/32/32 33/33/33 57/57/57 
f 57/57/57 56/56/56 32/32/32 
f 33/33/33 34/34/34 58/58/58 
f 58/58/58 57/57/57 33/33/33 
f 34/34/34 35/35/35 59/59/59 
f 59/59/59 58/58/58 34/34/34 
f 35/35/35 36/36/36 60/60/60 
f 60/60/60 59/59/59 35/35/35 
f 36/36/36 37/37/37 61/61/61 
f 61/61/61 60/60/60 36/36/36 
f 37/37/37 38/38/38 62/62/62 
f 62/62/62 61/61/61 37/37/37 
f 38/38/38 39/39/39 63/63/63 
f 63/63/63 62/62/62 38/38/38 
f 39/39/39 40/40/40 64/64/64 
f 64/64/64 63/63/63 39/39/39 
f 40/40/40 41/41/41 65/65/65 
f 65/65/65 64/64/64 40/40/40 
f 41/41/41 42/42/42 66/66/66 
f 66/66/66 65/65/65 41/41/41 
f 42/42/42 43/43/43 67/67/67 
f 67/67/67 66/66/66 42/42/42 
f 43/43/43 44/44/44 68/68/68 
f 68/68/68 67/67/67 43/43/43 
f 44/44/44 45/45/45 69/69/69 
f 69/69/69 68/68/68 44/44/44 
f 45/45/45 46/46/46 70/70/70 
f 70/70/70 69/69/69 45/45/45 
f 46/46/46 47/47/47 71/71/71 
f 71/71/71 70/70/70 46/46/46 
f 47/47/47 48/48/48 72/72/72 
f 72/72/72 71/71/71 47/47/47 
f 48/48/48 49/49/49 73/73/73 
f 73/73/73 72/72/72 48/48/48 
f 49/49/49 27/27/27 51/51/51 
f 51/51/51 73/73/73 49/49/49 
f 51/51/51 50/50/50 74/74/74 
f 74/74/74 75/75/75 51/51/51 
f 50/50/50 52/52/52 76/76/76 
f 76/76/76 74/74/74 50/50/50 
f 52/52/52 53/53/53 77/77/77 
f 77/77/77 76/76/76 52/52/52 
f 53/53/53 54/54/54 78/78/78 
f 78/78/78 77/77/77 53/53/53 
f 54/54/54 55/55/55 79/79/79 
f 79/79/79 78/78/78 54/54/54 
f 55/55/55 56/56/56 80/80/80 
f 80/80/80 79/79/79 55/55/55 
f 56/56/56 57/57/57 81/81/81 
f 81/81/81 80/80/80 56/56/56 
f 57/57/57 58/58/58 82/82/82 
f 82/82/82 81/81/81 57/57/57 
f 58/58/58 59/59/59 83/83/83 
f 83/83/83 82/82/82 58/58/58 
f 59/59/59 60/60/60 84/84/84 
f 84/84/84 83/83/83 59/59/59 
f 60/60/60 61/61/61 85/85/85 
f 85/85/85 84/84/84 60/60/60 
f 61/61/61 62/62/62 86/86/86 
f 86/86/86 85/85/85 61/61/61 
f 62/62/62 63/63/63 87/87/87 
f 87/87/87 86/86/86 62/62/62 
f 63/63/63 64/64/64 88/88/88 
f 88/88/88 87/87/87 63/63/63 
f 64/64/64 65/65/65 89/89/89 
f 89/89/89 88/88/88 64/64/64 
f 65/65/65 66/66/66 90/90/90 
f 90/90/90 89/89/89 65/65/65 
f 66/66/66 67/67/67 91/91/91 
f 91/91/91 90/90/90 66/66/66 
f 67/67/67 68/68/68 92/92/92 
f 92/92/92 91/91/91 67/67/67 
f 68/68/68 69/69/69 93/93/93 
f 93/93/93 92/92/92 68/68/68 
f 69/69/69 70/70/70 94/94/94 
f 94/94/94 93/93/93 69/69/69 
f 70/70/70 71/71/71 95/95/95 
f 95/95/95 94/94/94 70/70/70 
f 71/71/71 72/72/72 96/96/96 
f 96/96/96 95/95/95 71/71/71 
f 72/72/72 73/73/73 97/97/97 
f 97/97/97 96/96/96 72/72/72 
f 73/73/73 51/51/51 75/75/75 
f 75/75/75 97/97/97 73/73/73 
f 75/75/75 74/74/74 98/98/98 
f 98/98/98 99/99/99 75/75/75 
f 74/74/74 76/76/76 100/100/100 
f 100/100/100 98/98/98 74/74/74 
f 76/76/76 77/77/77 101/101/101 
f 101/101/101 100/100/100 76/76/76 
f 77/77/77 78/78/78 102/102/102 
f 102/102/102 101/101/101 77/77/77 
f 78/78/78 79/79/79 103/103/103 
f 103/103/103 102/102/102 78/78/78 
f 79/79/79 80/80/80 104/104/104 
f 104/104/104 103/103/103 79/79/79 
f 80/80/80 81/81/81 105/105/105 
f 105/105/105 104/104/104 80/80/80 
f 81/81/81 82/82/82 106/106/106 
f 106/106/106 105/105/105 81/81/81 
f 82/82/82 83/83/83 107/107/107 
f 107/107/107 106/106/106 82/82/82 
f 83/83/83 84/84/84 108/108/108 
f 108/108/108 107/107/107 83/83/83 
f 84/84/84 85/85/85 109/109/109 
f 109/109/109 108/108/108 84/84/84 
f 85/85/85 86/86/86 110/110/110 
f 110/110/110 109/109/109 85/85/85 
f 86/86/86 87/87/87 111/111/111 
f 111/111/111 110/110/110 86/86/86 
f 87/87/87 88/88/88 112/112/112 
f 112/112/112 111/111/111 87/87/87 
f 88/88/88 89/89/89 113/113/113 
f 113/113/113 112/112/112 88/88/88 
f 89/89/89 90/90/90 114/114/114 
f 114/114/114 113/113/113 89/89/89 
f 90/90/90 91/91/91 115/115/115 
f 115/115/115 114/114/114 90/90/90 
f 91/91/91 92/92/92 116/116/116 
f 116/116/116 115/115/115 91/91/91 
f 92/92/92 93/93/93 117/117/117 
f 117/117/117 116/116/116 92/92/92 
f 93/93/93 94/94/94 118/118/118 
f 118/118/118 117/117/117 93/93/93 
f 94/94/94 95/95/95 119/119/119 
f 119/119/119 118/118/118 94/94/94 
f 95/95/95 96/96/96 120/120/120 
f 120/120/120 119/119/119 95/95/95 
f 96/96/96 97/97/97 121/121/121 
f 121/121/121 120/120/120 96/96/96 
f 97/97/97 75/75/75 99/99/99 
f 99/99/99 121/121/121 97/97/97 
# 216 faces

