mtllib button_b.mtl

#
# object r_button_b
#

v  -0.02349624 0.00366098 0.04754980
v  -0.02165871 0.00353316 0.04719367
v  -0.02353126 0.00345857 0.04710561
v  -0.02343875 0.00325675 0.04666948
v  -0.02322504 0.00306929 0.04627110
v  -0.02290472 0.00290895 0.04593767
v  -0.02249959 0.00278667 0.04569189
v  -0.02203725 0.00271077 0.04555046
v  -0.02154923 0.00268644 0.04552312
v  -0.02106876 0.00271533 0.04561165
v  -0.02062863 0.00279546 0.04581004
v  -0.02025881 0.00292137 0.04610479
v  -0.01998449 0.00308450 0.04647578
v  -0.01982436 0.00327372 0.04689777
v  -0.01978936 0.00347613 0.04734195
v  -0.01988186 0.00367794 0.04777808
v  -0.02009555 0.00386543 0.04817647
v  -0.02041589 0.00402576 0.04850991
v  -0.02082103 0.00414804 0.04875569
v  -0.02128337 0.00422393 0.04889709
v  -0.02177139 0.00424826 0.04892444
v  -0.02225183 0.00421938 0.04883593
v  -0.02269197 0.00413926 0.04863754
v  -0.02306179 0.00401333 0.04834278
v  -0.02333613 0.00385021 0.04797179
v  -0.02541144 0.00306693 0.04716265
v  -0.02534144 0.00347175 0.04805103
v  -0.02522645 0.00266329 0.04629036
v  -0.02479905 0.00228836 0.04549363
v  -0.02415839 0.00196769 0.04482676
v  -0.02334812 0.00172312 0.04433516
v  -0.02242346 0.00157133 0.04405236
v  -0.02144742 0.00152266 0.04399764
v  -0.02048651 0.00158042 0.04417471
v  -0.01960623 0.00174069 0.04457150
v  -0.01886657 0.00199253 0.04516099
v  -0.01831793 0.00231878 0.04590299
v  -0.01799769 0.00269722 0.04674693
v  -0.01792769 0.00310206 0.04763532
v  -0.01811269 0.00350569 0.04850761
v  -0.01854008 0.00388062 0.04930434
v  -0.01918075 0.00420128 0.04997122
v  -0.01999103 0.00444586 0.05046281
v  -0.02091568 0.00459764 0.05074560
v  -0.02189173 0.00464633 0.05080034
v  -0.02285262 0.00458855 0.05062327
v  -0.02373290 0.00442830 0.05022647
v  -0.02447257 0.00417645 0.04963700
v  -0.02502120 0.00385020 0.04889499
v  -0.02591454 0.00287647 0.04721723
v  -0.02583521 0.00333524 0.04822399
v  -0.02570488 0.00241907 0.04622875
v  -0.02522054 0.00199418 0.04532585
v  -0.02449453 0.00163079 0.04457013
v  -0.02357630 0.00135363 0.04401304
v  -0.02252845 0.00118162 0.04369257
v  -0.02142236 0.00112647 0.04363054
v  -0.02033345 0.00119192 0.04383120
v  -0.01933589 0.00137354 0.04428086
v  -0.01849767 0.00165893 0.04494889
v  -0.01787594 0.00202866 0.04578976
v  -0.01751304 0.00245751 0.04674613
v  -0.01743371 0.00291628 0.04775288
v  -0.01764335 0.00337369 0.04874138
v  -0.01812770 0.00379857 0.04964425
v  -0.01885372 0.00416198 0.05040000
v  -0.01977194 0.00443913 0.05095709
v  -0.02081980 0.00461114 0.05127754
v  -0.02192588 0.00466630 0.05133959
v  -0.02301480 0.00460084 0.05113893
v  -0.02401236 0.00441922 0.05068927
v  -0.02485057 0.00413383 0.05002125
v  -0.02547231 0.00376411 0.04918039
v  -0.02613204 0.00242137 0.04741200
v  -0.02604884 0.00290248 0.04846777
v  -0.02591219 0.00194169 0.04637537
v  -0.02540424 0.00149612 0.04542853
v  -0.02464288 0.00111502 0.04463599
v  -0.02367993 0.00082438 0.04405176
v  -0.02258105 0.00064399 0.04371569
v  -0.02142111 0.00058614 0.04365064
v  -0.02027915 0.00065479 0.04386108
v  -0.01923301 0.00084525 0.04433263
v  -0.01835398 0.00114454 0.04503319
v  -0.01770195 0.00153227 0.04591499
v  -0.01732139 0.00198202 0.04691796
v  -0.01723819 0.00246312 0.04797373
v  -0.01745806 0.00294280 0.04901036
v  -0.01796598 0.00338838 0.04995721
v  -0.01872736 0.00376948 0.05074976
v  -0.01969030 0.00406013 0.05133397
v  -0.02078919 0.00424052 0.05167006
v  -0.02194914 0.00429836 0.05173509
v  -0.02309109 0.00422972 0.05152467
v  -0.02413722 0.00403926 0.05105311
v  -0.02501625 0.00373996 0.05035257
v  -0.02566827 0.00335223 0.04947076
v  -0.02624102 -0.00208084 0.04947222
v  -0.02615783 -0.00159974 0.05052798
v  -0.02602118 -0.00256053 0.04843558
v  -0.02551324 -0.00300610 0.04748873
v  -0.02475186 -0.00338720 0.04669619
v  -0.02378893 -0.00367784 0.04611196
v  -0.02269003 -0.00385824 0.04577589
v  -0.02153009 -0.00391608 0.04571085
v  -0.02038814 -0.00384743 0.04592128
v  -0.01934200 -0.00365698 0.04639284
v  -0.01846297 -0.00335768 0.04709340
v  -0.01781095 -0.00296995 0.04797520
v  -0.01743038 -0.00252020 0.04897818
v  -0.01734718 -0.00203910 0.05003394
v  -0.01756704 -0.00155941 0.05107058
v  -0.01807496 -0.00111385 0.05201744
v  -0.01883635 -0.00073275 0.05280997
v  -0.01979929 -0.00044210 0.05339419
v  -0.02089818 -0.00026171 0.05373027
v  -0.02205813 -0.00020387 0.05379531
v  -0.02320008 -0.00027251 0.05358488
v  -0.02424621 -0.00046298 0.05311332
v  -0.02512523 -0.00076226 0.05241277
v  -0.02577726 -0.00114999 0.05153095
# 121 vertices

vn -0.11224030 0.91467953 -0.38828257
vn 0.02200670 0.90909737 -0.41600186
vn -0.11479823 0.89990109 -0.42071289
vn -0.10804264 0.88516581 -0.45255747
vn -0.09244079 0.87147957 -0.48164091
vn -0.06905393 0.85977298 -0.50598609
vn -0.03948221 0.85084695 -0.52392793
vn -0.00572217 0.84530413 -0.53425461
vn 0.02991535 0.84352791 -0.53625143
vn 0.06498221 0.84563601 -0.52978951
vn 0.09712797 0.85148799 -0.51530015
vn 0.12412614 0.86068177 -0.49378091
vn 0.14415070 0.87258947 -0.46669912
vn 0.15583977 0.88640553 -0.43588889
vn 0.15839556 0.90118378 -0.40345827
vn 0.15164559 0.91591448 -0.37162372
vn 0.13604851 0.92960095 -0.34253865
vn 0.11265245 0.94131142 -0.31818557
vn 0.08306874 0.95023888 -0.30024236
vn 0.04931883 0.95577961 -0.28991872
vn 0.01368632 0.95755476 -0.28792605
vn -0.02138757 0.95544779 -0.29438403
vn -0.05352001 0.94959700 -0.30887049
vn -0.08052360 0.94040227 -0.33039278
vn -0.10055135 0.92849457 -0.35747331
vn -0.28696665 0.86330581 -0.41515437
vn -0.28120250 0.89661723 -0.34205636
vn -0.27174419 0.83009195 -0.48693153
vn -0.23657724 0.79924124 -0.55248940
vn -0.18385674 0.77285570 -0.60736370
vn -0.11718434 0.75273401 -0.64781111
vn -0.04110141 0.74024206 -0.67108285
vn 0.03921638 0.73624003 -0.67558324
vn 0.11827998 0.74099171 -0.66101527
vn 0.19071305 0.75418013 -0.62836355
vn 0.25157771 0.77490044 -0.57986027
vn 0.29672107 0.80174494 -0.51880783
vn 0.32307741 0.83288056 -0.44936714
vn 0.32883450 0.86619633 -0.37626016
vn 0.31360900 0.89940995 -0.30448478
vn 0.27844405 0.93025964 -0.23892635
vn 0.22572149 0.95664680 -0.18405589
vn 0.15905181 0.97677010 -0.14360556
vn 0.08296893 0.98926020 -0.12033451
vn 0.00265329 0.99326563 -0.11582902
vn -0.07641405 0.98851186 -0.13040373
vn -0.14884308 0.97532606 -0.16304830
vn -0.20970890 0.95460165 -0.21156025
vn -0.25485069 0.92775631 -0.27261537
vn -0.70567721 0.62529147 -0.33321199
vn -0.69219071 0.70328414 -0.16205984
vn -0.67002791 0.54753268 -0.50126892
vn -0.58770984 0.47528043 -0.65475619
vn -0.46427077 0.41351223 -0.78323704
vn -0.30816481 0.36639604 -0.87794554
vn -0.13002557 0.33714554 -0.93243033
vn 0.05802243 0.32777351 -0.94297290
vn 0.24314301 0.33890086 -0.90886056
vn 0.41273338 0.36978430 -0.83241260
vn 0.55523539 0.41830057 -0.71884507
vn 0.66093147 0.48116463 -0.57589078
vn 0.72263527 0.55405533 -0.41330501
vn 0.73611593 0.63205808 -0.24214852
vn 0.70048493 0.70981061 -0.07409248
vn 0.61813766 0.78204930 0.07940167
vn 0.49470872 0.84383011 0.20787966
vn 0.33860636 0.89094454 0.30259451
vn 0.16045439 0.92019618 0.35706192
vn -0.02757625 0.92956322 0.36762986
vn -0.21270728 0.91843969 0.33350268
vn -0.38229728 0.88756245 0.25706342
vn -0.52480268 0.83904278 0.14349011
vn -0.63050264 0.77618694 0.00053707
vn -0.97519332 0.17001036 -0.14175549
vn -0.95687085 0.27596790 0.09077444
vn -0.92676383 0.06436674 -0.37008873
vn -0.81490344 -0.03378865 -0.57861102
vn -0.64721572 -0.11771585 -0.75316316
vn -0.43512300 -0.18172678 -0.88184094
vn -0.19310026 -0.22146602 -0.95585829
vn 0.06237239 -0.23420435 -0.97018450
vn 0.31388557 -0.21908516 -0.92383850
vn 0.54429394 -0.17713234 -0.81998062
vn 0.73789775 -0.11121392 -0.66568637
vn 0.88150436 -0.02580793 -0.47147021
vn 0.96532428 0.07323746 -0.25057012
vn 0.98364580 0.17920835 -0.01803852
vn 0.93522555 0.28484270 0.21028018
vn 0.82335639 0.38298434 0.41881651
vn 0.65566593 0.46691549 0.59337354
vn 0.44358328 0.53092527 0.72204733
vn 0.20154800 0.57066917 0.79606223
vn -0.05392053 0.58339727 0.81039512
vn -0.30543280 0.56828141 0.76404655
vn -0.53584087 0.52633244 0.66018844
vn -0.72944784 0.46041238 0.50589168
vn -0.87305355 0.37501416 0.31167606
vn -0.99800086 -0.00468336 -0.06302790
vn -0.97933024 0.10328765 0.17390820
vn -0.94865865 -0.11233910 -0.29568017
vn -0.83466440 -0.21233624 -0.50818175
vn -0.66380131 -0.29785928 -0.68603766
vn -0.44768715 -0.36308980 -0.81715482
vn -0.20106420 -0.40357405 -0.89258116
vn 0.05925205 -0.41655552 -0.90717733
vn 0.31553501 -0.40114963 -0.85995156
vn 0.55031347 -0.35840634 -0.75412208
vn 0.74759156 -0.29123732 -0.59689850
vn 0.89392060 -0.20422195 -0.39899808
vn 0.97932994 -0.10328905 -0.17390928
vn 0.99800062 0.00468271 0.06303173
vn 0.94865882 0.11233793 0.29568008
vn 0.83466882 0.21233629 0.50817448
vn 0.66379499 0.29786429 0.68604159
vn 0.44768658 0.36309227 0.81715399
vn 0.20106833 0.40357587 0.89257944
vn -0.05925210 0.41655731 0.90717649
vn -0.31553802 0.40115100 0.85994983
vn -0.55031681 0.35840541 0.75412005
vn -0.74758875 0.29123691 0.59690225
vn -0.89391989 0.20422062 0.39900026
# 121 vertex normals

vt 0.05123580 0.90309489 0.94807237
vt 0.06058413 0.90309489 1.00000000
vt 0.05155432 0.90551448 0.94807237
vt 0.05248821 0.90776908 0.94807237
vt 0.05397385 0.90970516 0.94807237
vt 0.05590993 0.91119075 0.94807237
vt 0.05816454 0.91212469 0.94807237
vt 0.06058413 0.91244322 0.94807237
vt 0.06300360 0.91212469 0.94807237
vt 0.06525820 0.91119075 0.94807237
vt 0.06719428 0.90970516 0.94807237
vt 0.06867993 0.90776908 0.94807237
vt 0.06961387 0.90551448 0.94807237
vt 0.06993234 0.90309489 0.94807237
vt 0.06961387 0.90067548 0.94807237
vt 0.06867993 0.89842081 0.94807237
vt 0.06719434 0.89648467 0.94807237
vt 0.06525820 0.89499909 0.94807237
vt 0.06300360 0.89406520 0.94807237
vt 0.06058413 0.89374667 0.94807237
vt 0.05816454 0.89406520 0.94807237
vt 0.05590999 0.89499909 0.94807237
vt 0.05397385 0.89648467 0.94807237
vt 0.05248821 0.89842081 0.94807237
vt 0.05155432 0.90067542 0.94807237
vt 0.04252458 0.90793395 0.94807237
vt 0.04188752 0.90309489 0.94807237
vt 0.04439241 0.91244322 0.94807237
vt 0.04736364 0.91631544 0.94807237
vt 0.05123580 0.91928661 0.94807249
vt 0.05574507 0.92115438 0.94807249
vt 0.06058413 0.92179149 0.94807249
vt 0.06542313 0.92115438 0.94807249
vt 0.06993234 0.91928661 0.94807249
vt 0.07380450 0.91631544 0.94807237
vt 0.07677579 0.91244322 0.94807237
vt 0.07864356 0.90793395 0.94807237
vt 0.07928061 0.90309495 0.94807237
vt 0.07864356 0.89825594 0.94807237
vt 0.07677579 0.89374667 0.94807237
vt 0.07380456 0.88987452 0.94807237
vt 0.06993240 0.88690323 0.94807225
vt 0.06542313 0.88503546 0.94807225
vt 0.06058413 0.88439840 0.94807225
vt 0.05574507 0.88503546 0.94807225
vt 0.05123580 0.88690323 0.94807225
vt 0.04736364 0.88987440 0.94807237
vt 0.04439241 0.89374661 0.94807237
vt 0.04252458 0.89825588 0.94807237
vt 0.04011852 0.90857869 0.91340619
vt 0.03939652 0.90309489 0.91340619
vt 0.04223514 0.91368866 0.91340619
vt 0.04560226 0.91807681 0.91340631
vt 0.04999030 0.92144388 0.91340631
vt 0.05510032 0.92356050 0.91340631
vt 0.06058413 0.92428249 0.91340631
vt 0.06606781 0.92356050 0.91340631
vt 0.07117784 0.92144388 0.91340631
vt 0.07556593 0.91807681 0.91340631
vt 0.07893306 0.91368872 0.91340619
vt 0.08104962 0.90857869 0.91340619
vt 0.08177167 0.90309495 0.91340619
vt 0.08104968 0.89761120 0.91340619
vt 0.07893306 0.89250118 0.91340619
vt 0.07556593 0.88811308 0.91340619
vt 0.07117790 0.88474596 0.91340619
vt 0.06606787 0.88262933 0.91340619
vt 0.06058413 0.88190740 0.91340619
vt 0.05510038 0.88262933 0.91340619
vt 0.04999030 0.88474596 0.91340619
vt 0.04560226 0.88811302 0.91340619
vt 0.04223514 0.89250118 0.91340619
vt 0.04011852 0.89761114 0.91340619
vt 0.03912181 0.90884572 0.82971489
vt 0.03836471 0.90309489 0.82971489
vt 0.04134160 0.91420460 0.82971489
vt 0.04487264 0.91880631 0.82971489
vt 0.04947442 0.92233747 0.82971489
vt 0.05483329 0.92455715 0.82971495
vt 0.06058413 0.92531425 0.82971495
vt 0.06633484 0.92455715 0.82971495
vt 0.07169372 0.92233747 0.82971489
vt 0.07629555 0.91880637 0.82971489
vt 0.07982659 0.91420460 0.82971489
vt 0.08204627 0.90884572 0.82971489
vt 0.08280343 0.90309495 0.82971489
vt 0.08204633 0.89734417 0.82971489
vt 0.07982659 0.89198524 0.82971489
vt 0.07629555 0.88738352 0.82971489
vt 0.07169378 0.88385242 0.82971489
vt 0.06633490 0.88163269 0.82971483
vt 0.06058413 0.88087559 0.82971483
vt 0.05483329 0.88163269 0.82971483
vt 0.04947442 0.88385242 0.82971489
vt 0.04487264 0.88738346 0.82971489
vt 0.04134160 0.89198524 0.82971489
vt 0.03912187 0.89734417 0.82971489
vt 0.02837211 0.91180670 0.00000000
vt 0.02722889 0.90299767 0.00000000
vt 0.03172380 0.92001528 0.00000000
vt 0.03705543 0.92706424 0.00000000
vt 0.04400367 0.93247312 0.00000000
vt 0.05209512 0.93587321 0.00000000
vt 0.06077844 0.93703300 0.00000000
vt 0.06946158 0.93587321 0.00000000
vt 0.07755303 0.93247312 0.00000000
vt 0.08450145 0.92706430 0.00000000
vt 0.08983302 0.92001534 0.00000000
vt 0.09318459 0.91180670 0.00000000
vt 0.09432781 0.90299773 0.00000000
vt 0.09318465 0.89418876 0.00000000
vt 0.08983302 0.88598007 0.00000000
vt 0.08450145 0.87893116 0.00000000
vt 0.07755309 0.87352234 0.00000000
vt 0.06946164 0.87012219 0.00000000
vt 0.06077844 0.86896247 0.00000000
vt 0.05209512 0.87012219 0.00000000
vt 0.04400367 0.87352234 0.00000000
vt 0.03705543 0.87893111 0.00000000
vt 0.03172380 0.88598007 0.00000000
vt 0.02837211 0.89418876 0.00000000
# 121 texture coords

o r_button_b
g r_button_b
usemtl knuckles_right
s 2147483652
f 1/1/1 2/2/2 3/3/3 
f 3/3/3 2/2/2 4/4/4 
f 4/4/4 2/2/2 5/5/5 
f 5/5/5 2/2/2 6/6/6 
f 6/6/6 2/2/2 7/7/7 
f 7/7/7 2/2/2 8/8/8 
f 8/8/8 2/2/2 9/9/9 
f 9/9/9 2/2/2 10/10/10 
f 10/10/10 2/2/2 11/11/11 
f 11/11/11 2/2/2 12/12/12 
f 12/12/12 2/2/2 13/13/13 
f 13/13/13 2/2/2 14/14/14 
f 14/14/14 2/2/2 15/15/15 
f 15/15/15 2/2/2 16/16/16 
f 16/16/16 2/2/2 17/17/17 
f 17/17/17 2/2/2 18/18/18 
f 18/18/18 2/2/2 19/19/19 
f 19/19/19 2/2/2 20/20/20 
f 20/20/20 2/2/2 21/21/21 
f 21/21/21 2/2/2 22/22/22 
f 22/22/22 2/2/2 23/23/23 
f 23/23/23 2/2/2 24/24/24 
f 24/24/24 2/2/2 25/25/25 
f 25/25/25 2/2/2 1/1/1 
f 1/1/1 3/3/3 26/26/26 
f 26/26/26 27/27/27 1/1/1 
f 3/3/3 4/4/4 28/28/28 
f 28/28/28 26/26/26 3/3/3 
f 4/4/4 5/5/5 29/29/29 
f 29/29/29 28/28/28 4/4/4 
f 5/5/5 6/6/6 30/30/30 
f 30/30/30 29/29/29 5/5/5 
f 6/6/6 7/7/7 31/31/31 
f 31/31/31 30/30/30 6/6/6 
f 7/7/7 8/8/8 32/32/32 
f 32/32/32 31/31/31 7/7/7 
f 8/8/8 9/9/9 33/33/33 
f 33/33/33 32/32/32 8/8/8 
f 9/9/9 10/10/10 34/34/34 
f 34/34/34 33/33/33 9/9/9 
f 10/10/10 11/11/11 35/35/35 
f 35/35/35 34/34/34 10/10/10 
f 11/11/11 12/12/12 36/36/36 
f 36/36/36 35/35/35 11/11/11 
f 12/12/12 13/13/13 37/37/37 
f 37/37/37 36/36/36 12/12/12 
f 13/13/13 14/14/14 38/38/38 
f 38/38/38 37/37/37 13/13/13 
f 14/14/14 15/15/15 39/39/39 
f 39/39/39 38/38/38 14/14/14 
f 15/15/15 16/16/16 40/40/40 
f 40/40/40 39/39/39 15/15/15 
f 16/16/16 17/17/17 41/41/41 
f 41/41/41 40/40/40 16/16/16 
f 17/17/17 18/18/18 42/42/42 
f 42/42/42 41/41/41 17/17/17 
f 18/18/18 19/19/19 43/43/43 
f 43/43/43 42/42/42 18/18/18 
f 19/19/19 20/20/20 44/44/44 
f 44/44/44 43/43/43 19/19/19 
f 20/20/20 21/21/21 45/45/45 
f 45/45/45 44/44/44 20/20/20 
f 21/21/21 22/22/22 46/46/46 
f 46/46/46 45/45/45 21/21/21 
f 22/22/22 23/23/23 47/47/47 
f 47/47/47 46/46/46 22/22/22 
f 23/23/23 24/24/24 48/48/48 
f 48/48/48 47/47/47 23/23/23 
f 24/24/24 25/25/25 49/49/49 
f 49/49/49 48/48/48 24/24/24 
f 25/25/25 1/1/1 27/27/27 
f 27/27/27 49/49/49 25/25/25 
f 27/27/27 26/26/26 50/50/50 
f 50/50/50 51/51/51 27/27/27 
f 26/26/26 28/28/28 52/52/52 
f 52/52/52 50/50/50 26/26/26 
f 28/28/28 29/29/29 53/53/53 
f 53/53/53 52/52/52 28/28/28 
f 29/29/29 30/30/30 54/54/54 
f 54/54/54 53/53/53 29/29/29 
f 30/30/30 31/31/31 55/55/55 
f 55/55/55 54/54/54 30/30/30 
f 31/31/31 32/32/32 56/56/56 
f 56/56/56 55/55/55 31/31/31 
f 32/32/32 33/33/33 57/57/57 
f 57/57/57 56/56/56 32/32/32 
f 33/33/33 34/34/34 58/58/58 
f 58/58/58 57/57/57 33/33/33 
f 34/34/34 35/35/35 59/59/59 
f 59/59/59 58/58/58 34/34/34 
f 35/35/35 36/36/36 60/60/60 
f 60/60/60 59/59/59 35/35/35 
f 36/36/36 37/37/37 61/61/61 
f 61/61/61 60/60/60 36/36/36 
f 37/37/37 38/38/38 62/62/62 
f 62/62/62 61/61/61 37/37/37 
f 38/38/38 39/39/39 63/63/63 
f 63/63/63 62/62/62 38/38/38 
f 39/39/39 40/40/40 64/64/64 
f 64/64/64 63/63/63 39/39/39 
f 40/40/40 41/41/41 65/65/65 
f 65/65/65 64/64/64 40/40/40 
f 41/41/41 42/42/42 66/66/66 
f 66/66/66 65/65/65 41/41/41 
f 42/42/42 43/43/43 67/67/67 
f 67/67/67 66/66/66 42/42/42 
f 43/43/43 44/44/44 68/68/68 
f 68/68/68 67/67/67 43/43/43 
f 44/44/44 45/45/45 69/69/69 
f 69/69/69 68/68/68 44/44/44 
f 45/45/45 46/46/46 70/70/70 
f 70/70/70 69/69/69 45/45/45 
f 46/46/46 47/47/47 71/71/71 
f 71/71/71 70/70/70 46/46/46 
f 47/47/47 48/48/48 72/72/72 
f 72/72/72 71/71/71 47/47/47 
f 48/48/48 49/49/49 73/73/73 
f 73/73/73 72/72/72 48/48/48 
f 49/49/49 27/27/27 51/51/51 
f 51/51/51 73/73/73 49/49/49 
f 51/51/51 50/50/50 74/74/74 
f 74/74/74 75/75/75 51/51/51 
f 50/50/50 52/52/52 76/76/76 
f 76/76/76 74/74/74 50/50/50 
f 52/52/52 53/53/53 77/77/77 
f 77/77/77 76/76/76 52/52/52 
f 53/53/53 54/54/54 78/78/78 
f 78/78/78 77/77/77 53/53/53 
f 54/54/54 55/55/55 79/79/79 
f 79/79/79 78/78/78 54/54/54 
f 55/55/55 56/56/56 80/80/80 
f 80/80/80 79/79/79 55/55/55 
f 56/56/56 57/57/57 81/81/81 
f 81/81/81 80/80/80 56/56/56 
f 57/57/57 58/58/58 82/82/82 
f 82/82/82 81/81/81 57/57/57 
f 58/58/58 59/59/59 83/83/83 
f 83/83/83 82/82/82 58/58/58 
f 59/59/59 60/60/60 84/84/84 
f 84/84/84 83/83/83 59/59/59 
f 60/60/60 61/61/61 85/85/85 
f 85/85/85 84/84/84 60/60/60 
f 61/61/61 62/62/62 86/86/86 
f 86/86/86 85/85/85 61/61/61 
f 62/62/62 63/63/63 87/87/87 
f 87/87/87 86/86/86 62/62/62 
f 63/63/63 64/64/64 88/88/88 
f 88/88/88 87/87/87 63/63/63 
f 64/64/64 65/65/65 89/89/89 
f 89/89/89 88/88/88 64/64/64 
f 65/65/65 66/66/66 90/90/90 
f 90/90/90 89/89/89 65/65/65 
f 66/66/66 67/67/67 91/91/91 
f 91/91/91 90/90/90 66/66/66 
f 67/67/67 68/68/68 92/92/92 
f 92/92/92 91/91/91 67/67/67 
f 68/68/68 69/69/69 93/93/93 
f 93/93/93 92/92/92 68/68/68 
f 69/69/69 70/70/70 94/94/94 
f 94/94/94 93/93/93 69/69/69 
f 70/70/70 71/71/71 95/95/95 
f 95/95/95 94/94/94 70/70/70 
f 71/71/71 72/72/72 96/96/96 
f 96/96/96 95/95/95 71/71/71 
f 72/72/72 73/73/73 97/97/97 
f 97/97/97 96/96/96 72/72/72 
f 73/73/73 51/51/51 75/75/75 
f 75/75/75 97/97/97 73/73/73 
f 75/75/75 74/74/74 98/98/98 
f 98/98/98 99/99/99 75/75/75 
f 74/74/74 76/76/76 100/100/100 
f 100/100/100 98/98/98 74/74/74 
f 76/76/76 77/77/77 101/101/101 
f 101/101/101 100/100/100 76/76/76 
f 77/77/77 78/78/78 102/102/102 
f 102/102/102 101/101/101 77/77/77 
f 78/78/78 79/79/79 103/103/103 
f 103/103/103 102/102/102 78/78/78 
f 79/79/79 80/80/80 104/104/104 
f 104/104/104 103/103/103 79/79/79 
f 80/80/80 81/81/81 105/105/105 
f 105/105/105 104/104/104 80/80/80 
f 81/81/81 82/82/82 106/106/106 
f 106/106/106 105/105/105 81/81/81 
f 82/82/82 83/83/83 107/107/107 
f 107/107/107 106/106/106 82/82/82 
f 83/83/83 84/84/84 108/108/108 
f 108/108/108 107/107/107 83/83/83 
f 84/84/84 85/85/85 109/109/109 
f 109/109/109 108/108/108 84/84/84 
f 85/85/85 86/86/86 110/110/110 
f 110/110/110 109/109/109 85/85/85 
f 86/86/86 87/87/87 111/111/111 
f 111/111/111 110/110/110 86/86/86 
f 87/87/87 88/88/88 112/112/112 
f 112/112/112 111/111/111 87/87/87 
f 88/88/88 89/89/89 113/113/113 
f 113/113/113 112/112/112 88/88/88 
f 89/89/89 90/90/90 114/114/114 
f 114/114/114 113/113/113 89/89/89 
f 90/90/90 91/91/91 115/115/115 
f 115/115/115 114/114/114 90/90/90 
f 91/91/91 92/92/92 116/116/116 
f 116/116/116 115/115/115 91/91/91 
f 92/92/92 93/93/93 117/117/117 
f 117/117/117 116/116/116 92/92/92 
f 93/93/93 94/94/94 118/118/118 
f 118/118/118 117/117/117 93/93/93 
f 94/94/94 95/95/95 119/119/119 
f 119/119/119 118/118/118 94/94/94 
f 95/95/95 96/96/96 120/120/120 
f 120/120/120 119/119/119 95/95/95 
f 96/96/96 97/97/97 121/121/121 
f 121/121/121 120/120/120 96/96/96 
f 97/97/97 75/75/75 99/99/99 
f 99/99/99 121/121/121 97/97/97 
# 216 faces

