mtllib led_right.mtl

#
# object r_led
#

v  -0.00966512 -0.00729420 0.03174616
v  -0.00995956 -0.00728594 0.03176152
v  -0.00965030 -0.00735918 0.03185499
v  -0.00997038 -0.00735019 0.03187168
v  -0.01024243 -0.00732938 0.03168866
v  -0.01027787 -0.00739742 0.03179248
v  -0.01047960 -0.00741932 0.03153635
v  -0.01053569 -0.00749518 0.03162693
v  -0.01064246 -0.00754487 0.03132300
v  -0.01071274 -0.00763167 0.03139500
v  -0.01071139 -0.00769091 0.03107432
v  -0.01078766 -0.00779042 0.03112466
v  -0.01067805 -0.00783982 0.03082030
v  -0.01075143 -0.00795230 0.03084853
v  -0.01054647 -0.00797364 0.03059160
v  -0.01060840 -0.00809777 0.03059990
v  -0.01033254 -0.00807623 0.03041577
v  -0.01037583 -0.00820930 0.03040876
v  -0.01006203 -0.00813522 0.03031404
v  -0.01008177 -0.00827342 0.03029819
v  -0.00976759 -0.00814348 0.03029869
v  -0.00976169 -0.00828241 0.03028149
v  -0.00948473 -0.00810004 0.03037155
v  -0.00945419 -0.00823517 0.03036070
v  -0.00924756 -0.00801011 0.03052385
v  -0.00919638 -0.00813742 0.03052625
v  -0.00908469 -0.00788455 0.03073720
v  -0.00901932 -0.00800093 0.03075818
v  -0.00901577 -0.00773851 0.03098588
v  -0.00894441 -0.00784217 0.03102851
v  -0.00904910 -0.00758960 0.03123990
v  -0.00898064 -0.00768030 0.03130465
v  -0.00918067 -0.00745578 0.03146861
v  -0.00912367 -0.00753482 0.03155328
v  -0.00939462 -0.00735319 0.03164443
v  -0.00935624 -0.00742330 0.03174441
# 36 vertices

vn 0.20135759 0.85286087 0.48175037
vn -0.09866416 0.86380225 0.49407580
vn 0.20136352 0.85286170 0.48174641
vn -0.10430276 0.86353922 0.49337703
vn -0.38353676 0.82700419 0.41105181
vn -0.39285421 0.82489038 0.40647447
vn -0.61608595 0.74850142 0.24532394
vn -0.62535405 0.74389184 0.23570585
vn -0.76856774 0.63943505 0.02065344
vn -0.77420467 0.63289344 0.00727779
vn -0.82515967 0.51438689 -0.23349014
vn -0.82536423 0.50740021 -0.24762656
vn -0.78270793 0.38867733 -0.48610514
vn -0.77824718 0.38285837 -0.49774578
vn -0.64935660 0.27657270 -0.70840919
vn -0.64305836 0.27295375 -0.71552247
vn -0.44225615 0.19005135 -0.87652153
vn -0.43770134 0.18868658 -0.87909889
vn -0.18518181 0.13805780 -0.97295827
vn -0.18518670 0.13805988 -0.97295702
vn 0.09356343 0.12625560 -0.98757553
vn 0.08819664 0.12609947 -0.98808920
vn 0.36371523 0.15593690 -0.91836536
vn 0.35450119 0.15416551 -0.92225909
vn 0.59508067 0.22466663 -0.77162427
vn 0.58520997 0.22054309 -0.78031409
vn 0.76026005 0.32569635 -0.56207353
vn 0.75332600 0.31950438 -0.57481897
vn 0.83761966 0.44824046 -0.31220806
vn 0.83592600 0.44122994 -0.32641059
vn 0.81429303 0.57820106 -0.05109295
vn 0.81776077 0.57206047 -0.06335761
vn 0.68947941 0.69930291 0.18866225
vn 0.69553155 0.69535047 0.18089680
vn 0.47628233 0.79534829 0.37493479
vn 0.48097014 0.79386151 0.37209064
vn -0.00213424 0.86256778 -0.50593686
vn -0.00216793 0.86256307 -0.50594485
vn -0.00216820 0.86256438 -0.50594252
vn -0.00214285 0.86258715 -0.50590384
vn -0.00216955 0.86256850 -0.50593549
vn -0.00217654 0.86258978 -0.50589925
vn -0.00217418 0.86256576 -0.50594014
vn -0.00219806 0.86257416 -0.50592571
vn -0.00217922 0.86256498 -0.50594151
vn -0.00218742 0.86256462 -0.50594205
vn -0.00217730 0.86256188 -0.50594670
vn -0.00223752 0.86253864 -0.50598615
vn -0.00217637 0.86256087 -0.50594860
vn -0.00217863 0.86254883 -0.50596899
vn -0.00217044 0.86256093 -0.50594842
vn -0.00214442 0.86253566 -0.50599158
vn -0.00216939 0.86256212 -0.50594646
vn -0.00214471 0.86255813 -0.50595325
# 54 vertex normals

vt 0.02300531 0.96889049 1.00000012
vt 0.02351213 0.97180897 0.98685431
vt 0.02099460 0.96889049 0.74459064
vt 0.02162272 0.97250730 0.73030031
vt 0.02497131 0.97437543 0.94900286
vt 0.02343112 0.97568780 0.68915284
vt 0.02720702 0.97628033 0.89101100
vt 0.02620167 0.97804850 0.62611139
vt 0.02994955 0.97729391 0.81987333
vt 0.02960032 0.97930461 0.54877949
vt 0.03286803 0.97729391 0.74417031
vt 0.03321725 0.97930461 0.46648467
vt 0.03561056 0.97628033 0.67303276
vt 0.03661579 0.97804850 0.38915271
vt 0.03784621 0.97437543 0.61504078
vt 0.03938645 0.97568780 0.32611120
vt 0.03930539 0.97180897 0.57718933
vt 0.04119486 0.97250730 0.28496379
vt 0.03981227 0.96889049 0.56404364
vt 0.04182297 0.96889049 0.27067345
vt 0.03930539 0.96597201 0.57718933
vt 0.04119486 0.96527368 0.28496379
vt 0.03784621 0.96340549 0.61504078
vt 0.03938645 0.96209317 0.32611120
vt 0.03561056 0.96150064 0.67303276
vt 0.03661579 0.95973247 0.38915271
vt 0.03286803 0.96048707 0.74417031
vt 0.03321725 0.95847636 0.46648455
vt 0.02994955 0.96048701 0.81987321
vt 0.02960044 0.95847636 0.54877937
vt 0.02720708 0.96150064 0.89101088
vt 0.02620167 0.95973247 0.62611139
vt 0.02497131 0.96340549 0.94900274
vt 0.02343112 0.96209317 0.68915284
vt 0.02351213 0.96597201 0.98685431
vt 0.02162272 0.96527368 0.73030031
# 36 texture coords

o r_led
g r_led
usemtl knuckles_right
s 8
f 1/1/1 2/2/2 3/3/3 
f 4/4/4 3/3/3 2/2/2 
f 2/2/2 5/5/5 4/4/4 
f 6/6/6 4/4/4 5/5/5 
f 5/5/5 7/7/7 6/6/6 
f 8/8/8 6/6/6 7/7/7 
f 7/7/7 9/9/9 8/8/8 
f 10/10/10 8/8/8 9/9/9 
f 9/9/9 11/11/11 10/10/10 
f 12/12/12 10/10/10 11/11/11 
f 11/11/11 13/13/13 12/12/12 
f 14/14/14 12/12/12 13/13/13 
f 13/13/13 15/15/15 14/14/14 
f 16/16/16 14/14/14 15/15/15 
f 15/15/15 17/17/17 16/16/16 
f 18/18/18 16/16/16 17/17/17 
f 17/17/17 19/19/19 18/18/18 
f 20/20/20 18/18/18 19/19/19 
f 19/19/19 21/21/21 20/20/20 
f 22/22/22 20/20/20 21/21/21 
f 21/21/21 23/23/23 22/22/22 
f 24/24/24 22/22/22 23/23/23 
f 23/23/23 25/25/25 24/24/24 
f 26/26/26 24/24/24 25/25/25 
f 25/25/25 27/27/27 26/26/26 
f 28/28/28 26/26/26 27/27/27 
f 27/27/27 29/29/29 28/28/28 
f 30/30/30 28/28/28 29/29/29 
f 29/29/29 31/31/31 30/30/30 
f 32/32/32 30/30/30 31/31/31 
f 31/31/31 33/33/33 32/32/32 
f 34/34/34 32/32/32 33/33/33 
f 33/33/33 35/35/35 34/34/34 
f 36/36/36 34/34/34 35/35/35 
f 35/35/35 1/1/1 36/36/36 
f 3/3/3 36/36/36 1/1/1 
s 1
f 31/31/37 29/29/38 33/33/39 
f 35/35/40 33/33/39 1/1/41 
f 2/2/42 1/1/41 5/5/43 
f 1/1/41 33/33/39 5/5/43 
f 33/33/39 29/29/38 5/5/43 
f 7/7/44 5/5/43 9/9/45 
f 11/11/46 9/9/45 13/13/47 
f 9/9/45 5/5/43 13/13/47 
f 5/5/43 29/29/38 13/13/47 
f 15/15/48 13/13/47 17/17/49 
f 19/19/50 17/17/49 21/21/51 
f 17/17/49 13/13/47 21/21/51 
f 13/13/47 29/29/38 21/21/51 
f 23/23/52 21/21/51 25/25/53 
f 21/21/51 29/29/38 25/25/53 
f 25/25/53 29/29/38 27/27/54 
# 52 faces

