mtllib status_right.mtl

#
# object r_status
#

v  -0.00902700 -0.00064725 0.14060499
v  -0.00903698 -0.00381366 0.14864445
v  -0.00604169 0.00065097 0.14117558
v  -0.00616990 -0.00241613 0.14916262
v  -0.00898805 -0.00686490 0.15604866
v  -0.00623670 -0.00556342 0.15667325
v  -0.00893432 -0.00962834 0.16273072
v  -0.00627147 -0.00855615 0.16330267
v  -0.00292600 -0.00176449 0.14945890
v  -0.00257035 0.00144445 0.14156379
v  -0.00327378 -0.00499203 0.15709884
v  -0.00352656 -0.00812568 0.16370212
v  0.00037850 -0.00158918 0.14953414
v  0.00105790 0.00144458 0.14182292
v  -0.00033004 -0.00508479 0.15729475
v  -0.00084247 -0.00819387 0.16389126
v  0.00334858 -0.00225627 0.14945848
v  0.00415114 0.00074403 0.14184953
v  0.00241890 -0.00567003 0.15720503
v  0.00162012 -0.00877416 0.16392186
v  0.00609101 -0.00355967 0.14923717
v  0.00712133 -0.00048121 0.14164840
v  0.00503142 -0.00671140 0.15696658
v  0.00401358 -0.00969663 0.16382620
v  -0.01145897 -0.00246454 0.13992333
v  -0.01151634 -0.00573002 0.14787614
v  0.01005596 -0.00242826 0.14123055
v  0.00890636 -0.00551441 0.14880660
v  0.00776240 -0.00854048 0.15649213
v  0.01198220 -0.00465920 0.14076263
v  0.01088539 -0.00753920 0.14815979
v  0.00973225 -0.01062853 0.15590924
v  -0.01136277 -0.00877834 0.15524414
v  -0.01125096 -0.01147970 0.16196229
v  0.00667937 -0.01149576 0.16350092
v  0.00862647 -0.01362910 0.16292800
# 36 vertices

vn -0.52992213 0.78927541 0.31020457
vn -0.55093914 0.77399218 0.31209320
vn -0.33974209 0.87623411 0.34174407
vn -0.34181085 0.87385780 0.34574243
vn -0.56093889 0.76151788 0.32471234
vn -0.34711811 0.86002195 0.37399378
vn -0.53800368 0.77773023 0.32509655
vn -0.31208816 0.87005514 0.38158217
vn -0.13558555 0.91676039 0.37572178
vn -0.14062820 0.92111444 0.36300388
vn -0.11343720 0.90808415 0.40313148
vn -0.10425480 0.90249920 0.41788289
vn 0.07893717 0.91533911 0.39487103
vn 0.08979149 0.92350906 0.37291878
vn 0.09769082 0.90239322 0.41969383
vn 0.09940764 0.89704329 0.43061739
vn 0.31498393 0.86471128 0.39122829
vn 0.29489315 0.87486839 0.38424367
vn 0.28673622 0.85968763 0.42275217
vn 0.27591357 0.86159551 0.42605719
vn 0.49284548 0.78251779 0.38048527
vn 0.46647274 0.79424334 0.38933340
vn 0.46770915 0.78597951 0.40433186
vn 0.44834372 0.79440564 0.40976536
vn -0.62741888 0.72415257 0.28626657
vn -0.64210725 0.70859492 0.29256028
vn 0.64916921 0.66719836 0.36527479
vn 0.64811158 0.66894126 0.36396289
vn 0.64687687 0.66604233 0.37140018
vn 0.74687374 0.57470870 0.33449894
vn 0.72618890 0.59352076 0.34696233
vn 0.72850043 0.58820319 0.35114694
vn -0.65762675 0.69282615 0.29583633
vn -0.65432167 0.69778830 0.29146981
vn 0.64524627 0.66214675 0.38107598
vn 0.73502195 0.57386911 0.36113301
# 36 vertex normals

vt 0.11707747 0.98024130 0.37118530
vt 0.13857317 0.63552189 0.42500544
vt 0.22948724 0.98772240 0.66466236
vt 0.24575633 0.64617109 0.72814322
vt 0.16135085 0.31607294 0.45475388
vt 0.26450193 0.32099771 0.74813843
vt 0.18233562 0.02765226 0.48025894
vt 0.28307933 0.03066587 0.73302984
vt 0.37144649 0.65423870 0.90781260
vt 0.36356407 0.99525833 0.87660408
vt 0.37954128 0.32230806 0.91903925
vt 0.39015174 0.03013468 0.87641954
vt 0.50175148 0.66308641 0.99999809
vt 0.50772887 0.99547219 0.96001625
vt 0.49696052 0.32154751 0.97138834
vt 0.49714041 0.02931261 0.92739630
vt 0.62287730 0.66332436 0.94567728
vt 0.63398588 0.99176311 0.90967417
vt 0.60889196 0.32299662 0.92475557
vt 0.59777564 0.02565908 0.88446665
vt 0.73803520 0.65828896 0.77900791
vt 0.75780660 0.98782682 0.76058674
vt 0.71757424 0.32236290 0.79507732
vt 0.69728065 0.02107143 0.77884388
vt 0.02913094 0.97015238 -0.00000095
vt 0.04917550 0.62692666 0.03178406
vt 0.88365483 0.98039341 0.48461151
vt 0.85917914 0.65088224 0.49881983
vt 0.83471012 0.31831503 0.52981758
vt 0.97086918 0.96763134 0.14305544
vt 0.94732380 0.64806604 0.17799520
vt 0.92285454 0.31213474 0.20337105
vt 0.07606310 0.30913186 0.06143761
vt 0.09906977 0.02051926 0.10003471
vt 0.81179309 0.01184845 0.52711535
vt 0.89926863 0.00452805 0.19392729
# 36 texture coords

o r_status
g r_status
usemtl status
s 1
f 1/1/1 2/2/2 3/3/3 
f 4/4/4 3/3/3 2/2/2 
f 2/2/2 5/5/5 4/4/4 
f 6/6/6 4/4/4 5/5/5 
f 7/7/7 8/8/8 5/5/5 
f 6/6/6 5/5/5 8/8/8 
f 4/4/4 9/9/9 3/3/3 
f 10/10/10 3/3/3 9/9/9 
f 6/6/6 11/11/11 4/4/4 
f 9/9/9 4/4/4 11/11/11 
f 11/11/11 6/6/6 12/12/12 
f 8/8/8 12/12/12 6/6/6 
f 9/9/9 13/13/13 10/10/10 
f 14/14/14 10/10/10 13/13/13 
f 11/11/11 15/15/15 9/9/9 
f 13/13/13 9/9/9 15/15/15 
f 16/16/16 15/15/15 12/12/12 
f 11/11/11 12/12/12 15/15/15 
f 13/13/13 17/17/17 14/14/14 
f 18/18/18 14/14/14 17/17/17 
f 15/15/15 19/19/19 13/13/13 
f 17/17/17 13/13/13 19/19/19 
f 20/20/20 19/19/19 16/16/16 
f 15/15/15 16/16/16 19/19/19 
f 17/17/17 21/21/21 18/18/18 
f 22/22/22 18/18/18 21/21/21 
f 19/19/19 23/23/23 17/17/17 
f 21/21/21 17/17/17 23/23/23 
f 24/24/24 23/23/23 20/20/20 
f 19/19/19 20/20/20 23/23/23 
f 1/1/1 25/25/25 2/2/2 
f 26/26/26 2/2/2 25/25/25 
f 27/27/27 22/22/22 28/28/28 
f 21/21/21 28/28/28 22/22/22 
f 28/28/28 21/21/21 29/29/29 
f 23/23/23 29/29/29 21/21/21 
f 30/30/30 27/27/27 31/31/31 
f 28/28/28 31/31/31 27/27/27 
f 31/31/31 28/28/28 32/32/32 
f 29/29/29 32/32/32 28/28/28 
f 2/2/2 26/26/26 5/5/5 
f 33/33/33 5/5/5 26/26/26 
f 5/5/5 33/33/33 7/7/7 
f 34/34/34 7/7/7 33/33/33 
f 23/23/23 24/24/24 29/29/29 
f 35/35/35 29/29/29 24/24/24 
f 29/29/29 35/35/35 32/32/32 
f 36/36/36 32/32/32 35/35/35 
# 48 faces

